<mxfile host="Electron" modified="2024-05-06T08:24:42.257Z" agent="Mozilla/5.0 (Windows NT 10.0; Win64; x64) AppleWebKit/537.36 (KHTML, like Gecko) draw.io/24.2.5 Chrome/120.0.6099.109 Electron/28.1.0 Safari/537.36" etag="fBug3x8CCHZkSJt-YK_v" version="24.2.5" type="device">
  <diagram name="Page-1" id="74e2e168-ea6b-b213-b513-2b3c1d86103e">
    <mxGraphModel dx="1045" dy="-990" grid="1" gridSize="10" guides="1" tooltips="1" connect="1" arrows="1" fold="1" page="0" pageScale="1" pageWidth="4681" pageHeight="3300" background="none" math="0" shadow="0">
      <root>
        <mxCell id="0" />
        <mxCell id="1" parent="0" />
        <mxCell id="TSAiNINq-ciz6s8yGFa5-21" value="" style="endArrow=none;dashed=1;html=1;dashPattern=1 3;strokeWidth=1;rounded=0;fillColor=#ffff88;strokeColor=#2a2b2c;entryX=0.5;entryY=1;entryDx=0;entryDy=0;fontStyle=1" parent="1" edge="1">
          <mxGeometry width="50" height="50" relative="1" as="geometry">
            <mxPoint x="2434.63" y="3050" as="sourcePoint" />
            <mxPoint x="2434.63" y="2600" as="targetPoint" />
          </mxGeometry>
        </mxCell>
        <mxCell id="TSAiNINq-ciz6s8yGFa5-22" value="" style="endArrow=none;dashed=1;html=1;dashPattern=1 3;strokeWidth=1;rounded=0;fillColor=#ffff88;strokeColor=#2a2b2c;entryX=0.5;entryY=0;entryDx=0;entryDy=0;fontStyle=1" parent="1" target="8pBwBUJksHQwdAiR65Fr-157" edge="1">
          <mxGeometry width="50" height="50" relative="1" as="geometry">
            <mxPoint x="2494.63" y="3100" as="sourcePoint" />
            <mxPoint x="2494.63" y="2650" as="targetPoint" />
          </mxGeometry>
        </mxCell>
        <mxCell id="TSAiNINq-ciz6s8yGFa5-23" value="" style="endArrow=none;dashed=1;html=1;dashPattern=1 3;strokeWidth=1;rounded=0;fillColor=#ffff88;strokeColor=#2a2b2c;entryX=0.5;entryY=0;entryDx=0;entryDy=0;fontStyle=1" parent="1" edge="1">
          <mxGeometry width="50" height="50" relative="1" as="geometry">
            <mxPoint x="2675" y="3100" as="sourcePoint" />
            <mxPoint x="2674.94" y="3000" as="targetPoint" />
          </mxGeometry>
        </mxCell>
        <mxCell id="TSAiNINq-ciz6s8yGFa5-24" value="" style="endArrow=none;dashed=1;html=1;dashPattern=1 3;strokeWidth=1;rounded=0;fillColor=#ffff88;strokeColor=#2a2b2c;entryX=0.5;entryY=0;entryDx=0;entryDy=0;exitX=0.5;exitY=1;exitDx=0;exitDy=0;fontStyle=1" parent="1" source="8pBwBUJksHQwdAiR65Fr-131" edge="1">
          <mxGeometry width="50" height="50" relative="1" as="geometry">
            <mxPoint x="2734.63" y="2650" as="sourcePoint" />
            <mxPoint x="2734.57" y="2550" as="targetPoint" />
          </mxGeometry>
        </mxCell>
        <mxCell id="TSAiNINq-ciz6s8yGFa5-18" value="" style="endArrow=none;dashed=1;html=1;dashPattern=1 3;strokeWidth=1;rounded=0;fillColor=#ffff88;strokeColor=#2a2b2c;entryX=0.5;entryY=1;entryDx=0;entryDy=0;fontStyle=1" parent="1" target="8pBwBUJksHQwdAiR65Fr-70" edge="1">
          <mxGeometry width="50" height="50" relative="1" as="geometry">
            <mxPoint x="1775" y="3050" as="sourcePoint" />
            <mxPoint x="1774.7" y="2620" as="targetPoint" />
          </mxGeometry>
        </mxCell>
        <mxCell id="TSAiNINq-ciz6s8yGFa5-19" value="" style="endArrow=none;dashed=1;html=1;dashPattern=1 3;strokeWidth=1;rounded=0;fillColor=#ffff88;strokeColor=#2a2b2c;entryX=0.5;entryY=1;entryDx=0;entryDy=0;fontStyle=1" parent="1" edge="1">
          <mxGeometry width="50" height="50" relative="1" as="geometry">
            <mxPoint x="1834.74" y="3050" as="sourcePoint" />
            <mxPoint x="1834.74" y="2600" as="targetPoint" />
          </mxGeometry>
        </mxCell>
        <mxCell id="TSAiNINq-ciz6s8yGFa5-20" value="" style="endArrow=none;dashed=1;html=1;dashPattern=1 3;strokeWidth=1;rounded=0;fillColor=#ffff88;strokeColor=default;fontStyle=1" parent="1" edge="1">
          <mxGeometry width="50" height="50" relative="1" as="geometry">
            <mxPoint x="1895" y="3050" as="sourcePoint" />
            <mxPoint x="1894.63" y="3000" as="targetPoint" />
          </mxGeometry>
        </mxCell>
        <mxCell id="TSAiNINq-ciz6s8yGFa5-11" value="" style="endArrow=none;dashed=1;html=1;dashPattern=1 3;strokeWidth=1;rounded=0;fillColor=#ffff88;strokeColor=#2a2b2c;exitX=0.5;exitY=0;exitDx=0;exitDy=0;fontStyle=1" parent="1" source="8pBwBUJksHQwdAiR65Fr-52" edge="1">
          <mxGeometry width="50" height="50" relative="1" as="geometry">
            <mxPoint x="1354.68" y="2950" as="sourcePoint" />
            <mxPoint x="1355.3100000000002" y="2600" as="targetPoint" />
          </mxGeometry>
        </mxCell>
        <mxCell id="TSAiNINq-ciz6s8yGFa5-12" value="" style="endArrow=none;dashed=1;html=1;dashPattern=1 3;strokeWidth=1;rounded=0;fillColor=#ffff88;strokeColor=#2a2b2c;exitX=0.5;exitY=0;exitDx=0;exitDy=0;fontStyle=1" parent="1" edge="1">
          <mxGeometry width="50" height="50" relative="1" as="geometry">
            <mxPoint x="1414.7" y="3020" as="sourcePoint" />
            <mxPoint x="1415.0100000000002" y="2610" as="targetPoint" />
          </mxGeometry>
        </mxCell>
        <mxCell id="TSAiNINq-ciz6s8yGFa5-13" value="" style="endArrow=none;dashed=1;html=1;dashPattern=1 3;strokeWidth=1;rounded=0;fillColor=#ffff88;strokeColor=#2a2b2c;exitX=0.5;exitY=1;exitDx=0;exitDy=0;fontStyle=1" parent="1" source="8pBwBUJksHQwdAiR65Fr-61" edge="1">
          <mxGeometry width="50" height="50" relative="1" as="geometry">
            <mxPoint x="1474.7" y="3020" as="sourcePoint" />
            <mxPoint x="1475.0100000000002" y="2610" as="targetPoint" />
          </mxGeometry>
        </mxCell>
        <mxCell id="TSAiNINq-ciz6s8yGFa5-14" value="" style="endArrow=none;dashed=1;html=1;dashPattern=1 3;strokeWidth=1;rounded=0;fillColor=#ffff88;strokeColor=#2a2b2c;fontStyle=1" parent="1" edge="1">
          <mxGeometry width="50" height="50" relative="1" as="geometry">
            <mxPoint x="1535" y="3050" as="sourcePoint" />
            <mxPoint x="1534.7100000000003" y="2620" as="targetPoint" />
          </mxGeometry>
        </mxCell>
        <mxCell id="TSAiNINq-ciz6s8yGFa5-15" value="" style="endArrow=none;dashed=1;html=1;dashPattern=1 3;strokeWidth=1;rounded=0;fillColor=#ffff88;strokeColor=#2a2b2c;fontStyle=1" parent="1" edge="1">
          <mxGeometry width="50" height="50" relative="1" as="geometry">
            <mxPoint x="1594.99" y="3050" as="sourcePoint" />
            <mxPoint x="1594.7000000000003" y="2620" as="targetPoint" />
          </mxGeometry>
        </mxCell>
        <mxCell id="TSAiNINq-ciz6s8yGFa5-16" value="" style="endArrow=none;dashed=1;html=1;dashPattern=1 3;strokeWidth=1;rounded=0;fillColor=#ffff88;strokeColor=#2a2b2c;exitX=0.5;exitY=1;exitDx=0;exitDy=0;entryX=0.5;entryY=1;entryDx=0;entryDy=0;fontStyle=1" parent="1" source="8pBwBUJksHQwdAiR65Fr-80" target="8pBwBUJksHQwdAiR65Fr-90" edge="1">
          <mxGeometry width="50" height="50" relative="1" as="geometry">
            <mxPoint x="1654.99" y="3060" as="sourcePoint" />
            <mxPoint x="1654.7000000000003" y="2630" as="targetPoint" />
          </mxGeometry>
        </mxCell>
        <mxCell id="TSAiNINq-ciz6s8yGFa5-17" value="" style="endArrow=none;dashed=1;html=1;dashPattern=1 3;strokeWidth=1;rounded=0;fillColor=#ffff88;strokeColor=#2a2b2c;exitX=0.5;exitY=1;exitDx=0;exitDy=0;entryX=0.5;entryY=1;entryDx=0;entryDy=0;fontStyle=1" parent="1" edge="1">
          <mxGeometry width="50" height="50" relative="1" as="geometry">
            <mxPoint x="1714.7" y="3050" as="sourcePoint" />
            <mxPoint x="1714.7" y="2600" as="targetPoint" />
          </mxGeometry>
        </mxCell>
        <mxCell id="TSAiNINq-ciz6s8yGFa5-9" value="" style="endArrow=none;dashed=1;html=1;dashPattern=1 3;strokeWidth=1;rounded=0;fillColor=#ffff88;strokeColor=#2a2b2c;exitX=0.5;exitY=1;exitDx=0;exitDy=0;fontStyle=1" parent="1" source="8pBwBUJksHQwdAiR65Fr-43" edge="1">
          <mxGeometry width="50" height="50" relative="1" as="geometry">
            <mxPoint x="1233.75" y="2949" as="sourcePoint" />
            <mxPoint x="1236.25" y="2500" as="targetPoint" />
          </mxGeometry>
        </mxCell>
        <mxCell id="TSAiNINq-ciz6s8yGFa5-10" value="" style="endArrow=none;dashed=1;html=1;dashPattern=1 3;strokeWidth=1;rounded=0;fillColor=#ffff88;strokeColor=#2a2b2c;exitX=0.5;exitY=1;exitDx=0;exitDy=0;fontStyle=1" parent="1" source="8pBwBUJksHQwdAiR65Fr-51" edge="1">
          <mxGeometry width="50" height="50" relative="1" as="geometry">
            <mxPoint x="1290" y="2950" as="sourcePoint" />
            <mxPoint x="1295.63" y="2550" as="targetPoint" />
          </mxGeometry>
        </mxCell>
        <mxCell id="8pBwBUJksHQwdAiR65Fr-166" value="" style="endArrow=blockThin;html=1;rounded=0;exitX=0.5;exitY=1;exitDx=0;exitDy=0;entryX=0.5;entryY=0;entryDx=0;entryDy=0;endFill=1;fontStyle=1;" parent="1" source="8pBwBUJksHQwdAiR65Fr-47" target="8pBwBUJksHQwdAiR65Fr-43" edge="1">
          <mxGeometry width="50" height="50" relative="1" as="geometry">
            <mxPoint x="1600" y="2760" as="sourcePoint" />
            <mxPoint x="1650" y="2710" as="targetPoint" />
          </mxGeometry>
        </mxCell>
        <mxCell id="XcMSc3Dv5Vf1WdrxYV2J-293" value="" style="edgeStyle=orthogonalEdgeStyle;rounded=0;orthogonalLoop=1;jettySize=auto;html=1;exitX=0.75;exitY=1;exitDx=0;exitDy=0;entryX=0;entryY=0.25;entryDx=0;entryDy=0;fontFamily=Helvetica;fontSize=12;fontColor=default;entryPerimeter=0;endArrow=blockThin;endFill=1;fontStyle=1" parent="1" source="XcMSc3Dv5Vf1WdrxYV2J-239" target="8pBwBUJksHQwdAiR65Fr-34" edge="1">
          <mxGeometry relative="1" as="geometry" />
        </mxCell>
        <mxCell id="XcMSc3Dv5Vf1WdrxYV2J-103" value="" style="endArrow=none;html=1;rounded=0;entryX=0;entryY=0.5;entryDx=0;entryDy=0;exitX=1;exitY=0.5;exitDx=0;exitDy=0;fontStyle=1" parent="1" source="XcMSc3Dv5Vf1WdrxYV2J-79" target="XcMSc3Dv5Vf1WdrxYV2J-77" edge="1">
          <mxGeometry width="50" height="50" relative="1" as="geometry">
            <mxPoint x="130" y="2070" as="sourcePoint" />
            <mxPoint x="450" y="2120" as="targetPoint" />
          </mxGeometry>
        </mxCell>
        <mxCell id="XcMSc3Dv5Vf1WdrxYV2J-102" value="" style="endArrow=none;html=1;rounded=0;entryX=0;entryY=0.5;entryDx=0;entryDy=0;exitX=1;exitY=0.5;exitDx=0;exitDy=0;fontStyle=1" parent="1" source="XcMSc3Dv5Vf1WdrxYV2J-76" target="XcMSc3Dv5Vf1WdrxYV2J-74" edge="1">
          <mxGeometry width="50" height="50" relative="1" as="geometry">
            <mxPoint x="200" y="2070" as="sourcePoint" />
            <mxPoint x="520" y="2080" as="targetPoint" />
          </mxGeometry>
        </mxCell>
        <mxCell id="XcMSc3Dv5Vf1WdrxYV2J-101" value="" style="endArrow=none;html=1;rounded=0;exitX=1;exitY=0.5;exitDx=0;exitDy=0;entryX=0;entryY=0.5;entryDx=0;entryDy=0;fontStyle=1" parent="1" source="XcMSc3Dv5Vf1WdrxYV2J-72" target="XcMSc3Dv5Vf1WdrxYV2J-70" edge="1">
          <mxGeometry width="50" height="50" relative="1" as="geometry">
            <mxPoint x="270" y="2070" as="sourcePoint" />
            <mxPoint x="590" y="2040" as="targetPoint" />
          </mxGeometry>
        </mxCell>
        <mxCell id="XcMSc3Dv5Vf1WdrxYV2J-100" value="" style="endArrow=none;html=1;rounded=0;exitX=1;exitY=0.5;exitDx=0;exitDy=0;entryX=0;entryY=0.5;entryDx=0;entryDy=0;fontStyle=1" parent="1" source="XcMSc3Dv5Vf1WdrxYV2J-62" target="XcMSc3Dv5Vf1WdrxYV2J-60" edge="1">
          <mxGeometry width="50" height="50" relative="1" as="geometry">
            <mxPoint x="340" y="2070" as="sourcePoint" />
            <mxPoint x="660" y="2000" as="targetPoint" />
          </mxGeometry>
        </mxCell>
        <mxCell id="XcMSc3Dv5Vf1WdrxYV2J-99" value="" style="endArrow=none;html=1;rounded=0;exitX=1;exitY=0.5;exitDx=0;exitDy=0;entryX=0;entryY=0.5;entryDx=0;entryDy=0;fontStyle=1" parent="1" source="XcMSc3Dv5Vf1WdrxYV2J-56" target="XcMSc3Dv5Vf1WdrxYV2J-53" edge="1">
          <mxGeometry width="50" height="50" relative="1" as="geometry">
            <mxPoint x="410" y="2070" as="sourcePoint" />
            <mxPoint x="730" y="1960" as="targetPoint" />
          </mxGeometry>
        </mxCell>
        <mxCell id="XcMSc3Dv5Vf1WdrxYV2J-98" value="" style="endArrow=none;html=1;rounded=0;exitX=1;exitY=0.5;exitDx=0;exitDy=0;entryX=0;entryY=0.5;entryDx=0;entryDy=0;fontStyle=1" parent="1" source="XcMSc3Dv5Vf1WdrxYV2J-41" target="XcMSc3Dv5Vf1WdrxYV2J-47" edge="1">
          <mxGeometry width="50" height="50" relative="1" as="geometry">
            <mxPoint x="480" y="2070" as="sourcePoint" />
            <mxPoint x="800" y="1920" as="targetPoint" />
          </mxGeometry>
        </mxCell>
        <mxCell id="XcMSc3Dv5Vf1WdrxYV2J-97" value="" style="endArrow=none;html=1;rounded=0;exitX=1;exitY=0.5;exitDx=0;exitDy=0;entryX=0;entryY=0.5;entryDx=0;entryDy=0;fontStyle=1" parent="1" source="XcMSc3Dv5Vf1WdrxYV2J-24" target="XcMSc3Dv5Vf1WdrxYV2J-31" edge="1">
          <mxGeometry width="50" height="50" relative="1" as="geometry">
            <mxPoint x="550" y="2070" as="sourcePoint" />
            <mxPoint x="870" y="1880" as="targetPoint" />
          </mxGeometry>
        </mxCell>
        <mxCell id="IQ5qKJPqrVlkLBsWNbcG-1" value="ready&lt;br&gt;拉高" style="rounded=1;whiteSpace=wrap;html=1;shadow=0;labelBackgroundColor=none;strokeWidth=1;fontFamily=Verdana;fontSize=8;align=center;fontStyle=1;fillColor=#97E3FC;strokeColor=none;" parent="1" vertex="1">
          <mxGeometry x="1149.94" y="2460" width="50" height="40" as="geometry" />
        </mxCell>
        <mxCell id="XcMSc3Dv5Vf1WdrxYV2J-24" value="11111111" style="rounded=1;whiteSpace=wrap;html=1;shadow=0;labelBackgroundColor=none;strokeWidth=1;fontFamily=Verdana;fontSize=8;align=center;fontStyle=1" parent="1" vertex="1">
          <mxGeometry x="310" y="1870" width="60" height="20" as="geometry" />
        </mxCell>
        <mxCell id="XcMSc3Dv5Vf1WdrxYV2J-25" value="&lt;font color=&quot;#cc0066&quot;&gt;0&lt;/font&gt;1111111" style="rounded=1;whiteSpace=wrap;html=1;shadow=0;labelBackgroundColor=none;strokeWidth=1;fontFamily=Verdana;fontSize=8;align=center;fontStyle=1" parent="1" vertex="1">
          <mxGeometry x="380" y="1870" width="60" height="20" as="geometry" />
        </mxCell>
        <mxCell id="XcMSc3Dv5Vf1WdrxYV2J-26" value="&lt;font color=&quot;#cc0066&quot;&gt;00&lt;/font&gt;111111" style="rounded=1;whiteSpace=wrap;html=1;shadow=0;labelBackgroundColor=none;strokeWidth=1;fontFamily=Verdana;fontSize=8;align=center;fontStyle=1" parent="1" vertex="1">
          <mxGeometry x="450" y="1870" width="60" height="20" as="geometry" />
        </mxCell>
        <mxCell id="XcMSc3Dv5Vf1WdrxYV2J-27" value="&lt;font color=&quot;#cc0066&quot;&gt;000&lt;/font&gt;11111" style="rounded=1;whiteSpace=wrap;html=1;shadow=0;labelBackgroundColor=none;strokeWidth=1;fontFamily=Verdana;fontSize=8;align=center;fontStyle=1" parent="1" vertex="1">
          <mxGeometry x="520" y="1870" width="60" height="20" as="geometry" />
        </mxCell>
        <mxCell id="XcMSc3Dv5Vf1WdrxYV2J-28" value="&lt;font color=&quot;#cc0066&quot;&gt;0000&lt;/font&gt;1111" style="rounded=1;whiteSpace=wrap;html=1;shadow=0;labelBackgroundColor=none;strokeWidth=1;fontFamily=Verdana;fontSize=8;align=center;fontStyle=1" parent="1" vertex="1">
          <mxGeometry x="590" y="1870" width="60" height="20" as="geometry" />
        </mxCell>
        <mxCell id="XcMSc3Dv5Vf1WdrxYV2J-29" value="&lt;font color=&quot;#cc0066&quot;&gt;00000&lt;/font&gt;111" style="rounded=1;whiteSpace=wrap;html=1;shadow=0;labelBackgroundColor=none;strokeWidth=1;fontFamily=Verdana;fontSize=8;align=center;fontStyle=1" parent="1" vertex="1">
          <mxGeometry x="660" y="1870" width="60" height="20" as="geometry" />
        </mxCell>
        <mxCell id="XcMSc3Dv5Vf1WdrxYV2J-30" value="&lt;font color=&quot;#cc0066&quot;&gt;000000&lt;/font&gt;11" style="rounded=1;whiteSpace=wrap;html=1;shadow=0;labelBackgroundColor=none;strokeWidth=1;fontFamily=Verdana;fontSize=8;align=center;fontStyle=1" parent="1" vertex="1">
          <mxGeometry x="730" y="1870" width="60" height="20" as="geometry" />
        </mxCell>
        <mxCell id="XcMSc3Dv5Vf1WdrxYV2J-31" value="&lt;font color=&quot;#cc0066&quot;&gt;0000000&lt;/font&gt;1" style="rounded=1;whiteSpace=wrap;html=1;shadow=0;labelBackgroundColor=none;strokeWidth=1;fontFamily=Verdana;fontSize=8;align=center;fontStyle=1" parent="1" vertex="1">
          <mxGeometry x="800" y="1870" width="60" height="20" as="geometry" />
        </mxCell>
        <mxCell id="XcMSc3Dv5Vf1WdrxYV2J-41" value="1111111&lt;font color=&quot;#0066cc&quot;&gt;0&lt;/font&gt;" style="rounded=1;whiteSpace=wrap;html=1;shadow=0;labelBackgroundColor=none;strokeWidth=1;fontFamily=Verdana;fontSize=8;align=center;fontStyle=1" parent="1" vertex="1">
          <mxGeometry x="310" y="1910" width="60" height="20" as="geometry" />
        </mxCell>
        <mxCell id="XcMSc3Dv5Vf1WdrxYV2J-42" value="01111110" style="rounded=1;whiteSpace=wrap;html=1;shadow=0;labelBackgroundColor=none;strokeWidth=1;fontFamily=Verdana;fontSize=8;align=center;fontStyle=1" parent="1" vertex="1">
          <mxGeometry x="380" y="1910" width="60" height="20" as="geometry" />
        </mxCell>
        <mxCell id="XcMSc3Dv5Vf1WdrxYV2J-43" value="00111110" style="rounded=1;whiteSpace=wrap;html=1;shadow=0;labelBackgroundColor=none;strokeWidth=1;fontFamily=Verdana;fontSize=8;align=center;fontStyle=1" parent="1" vertex="1">
          <mxGeometry x="450" y="1910" width="60" height="20" as="geometry" />
        </mxCell>
        <mxCell id="XcMSc3Dv5Vf1WdrxYV2J-44" value="00011110" style="rounded=1;whiteSpace=wrap;html=1;shadow=0;labelBackgroundColor=none;strokeWidth=1;fontFamily=Verdana;fontSize=8;align=center;fontStyle=1" parent="1" vertex="1">
          <mxGeometry x="520" y="1910" width="60" height="20" as="geometry" />
        </mxCell>
        <mxCell id="XcMSc3Dv5Vf1WdrxYV2J-45" value="00001110" style="rounded=1;whiteSpace=wrap;html=1;shadow=0;labelBackgroundColor=none;strokeWidth=1;fontFamily=Verdana;fontSize=8;align=center;fontStyle=1" parent="1" vertex="1">
          <mxGeometry x="590" y="1910" width="60" height="20" as="geometry" />
        </mxCell>
        <mxCell id="XcMSc3Dv5Vf1WdrxYV2J-46" value="00000110" style="rounded=1;whiteSpace=wrap;html=1;shadow=0;labelBackgroundColor=none;strokeWidth=1;fontFamily=Verdana;fontSize=8;align=center;fontStyle=1" parent="1" vertex="1">
          <mxGeometry x="660" y="1910" width="60" height="20" as="geometry" />
        </mxCell>
        <mxCell id="XcMSc3Dv5Vf1WdrxYV2J-47" value="00000010" style="rounded=1;whiteSpace=wrap;html=1;shadow=0;labelBackgroundColor=none;strokeWidth=1;fontFamily=Verdana;fontSize=8;align=center;fontStyle=1" parent="1" vertex="1">
          <mxGeometry x="730" y="1910" width="60" height="20" as="geometry" />
        </mxCell>
        <mxCell id="XcMSc3Dv5Vf1WdrxYV2J-49" value="01111100" style="rounded=1;whiteSpace=wrap;html=1;shadow=0;labelBackgroundColor=none;strokeWidth=1;fontFamily=Verdana;fontSize=8;align=center;fontStyle=1" parent="1" vertex="1">
          <mxGeometry x="380" y="1950" width="60" height="20" as="geometry" />
        </mxCell>
        <mxCell id="XcMSc3Dv5Vf1WdrxYV2J-50" value="00111100" style="rounded=1;whiteSpace=wrap;html=1;shadow=0;labelBackgroundColor=none;strokeWidth=1;fontFamily=Verdana;fontSize=8;align=center;fontStyle=1" parent="1" vertex="1">
          <mxGeometry x="450" y="1950" width="60" height="20" as="geometry" />
        </mxCell>
        <mxCell id="XcMSc3Dv5Vf1WdrxYV2J-51" value="00011100" style="rounded=1;whiteSpace=wrap;html=1;shadow=0;labelBackgroundColor=none;strokeWidth=1;fontFamily=Verdana;fontSize=8;align=center;fontStyle=1" parent="1" vertex="1">
          <mxGeometry x="520" y="1950" width="60" height="20" as="geometry" />
        </mxCell>
        <mxCell id="XcMSc3Dv5Vf1WdrxYV2J-52" value="00001100" style="rounded=1;whiteSpace=wrap;html=1;shadow=0;labelBackgroundColor=none;strokeWidth=1;fontFamily=Verdana;fontSize=8;align=center;fontStyle=1" parent="1" vertex="1">
          <mxGeometry x="590" y="1950" width="60" height="20" as="geometry" />
        </mxCell>
        <mxCell id="XcMSc3Dv5Vf1WdrxYV2J-53" value="00000100" style="rounded=1;whiteSpace=wrap;html=1;shadow=0;labelBackgroundColor=none;strokeWidth=1;fontFamily=Verdana;fontSize=8;align=center;fontStyle=1" parent="1" vertex="1">
          <mxGeometry x="660" y="1950" width="60" height="20" as="geometry" />
        </mxCell>
        <mxCell id="XcMSc3Dv5Vf1WdrxYV2J-56" value="111111&lt;font color=&quot;#0066cc&quot;&gt;00&lt;/font&gt;" style="rounded=1;whiteSpace=wrap;html=1;shadow=0;labelBackgroundColor=none;strokeWidth=1;fontFamily=Verdana;fontSize=8;align=center;fontStyle=1" parent="1" vertex="1">
          <mxGeometry x="310" y="1950" width="60" height="20" as="geometry" />
        </mxCell>
        <mxCell id="XcMSc3Dv5Vf1WdrxYV2J-57" value="01111000" style="rounded=1;whiteSpace=wrap;html=1;shadow=0;labelBackgroundColor=none;strokeWidth=1;fontFamily=Verdana;fontSize=8;align=center;fontStyle=1" parent="1" vertex="1">
          <mxGeometry x="380" y="1990" width="60" height="20" as="geometry" />
        </mxCell>
        <mxCell id="XcMSc3Dv5Vf1WdrxYV2J-58" value="00111000" style="rounded=1;whiteSpace=wrap;html=1;shadow=0;labelBackgroundColor=none;strokeWidth=1;fontFamily=Verdana;fontSize=8;align=center;fontStyle=1" parent="1" vertex="1">
          <mxGeometry x="450" y="1990" width="60" height="20" as="geometry" />
        </mxCell>
        <mxCell id="XcMSc3Dv5Vf1WdrxYV2J-59" value="00011000" style="rounded=1;whiteSpace=wrap;html=1;shadow=0;labelBackgroundColor=none;strokeWidth=1;fontFamily=Verdana;fontSize=8;align=center;fontStyle=1" parent="1" vertex="1">
          <mxGeometry x="520" y="1990" width="60" height="20" as="geometry" />
        </mxCell>
        <mxCell id="XcMSc3Dv5Vf1WdrxYV2J-60" value="00001000" style="rounded=1;whiteSpace=wrap;html=1;shadow=0;labelBackgroundColor=none;strokeWidth=1;fontFamily=Verdana;fontSize=8;align=center;fontStyle=1" parent="1" vertex="1">
          <mxGeometry x="590" y="1990" width="60" height="20" as="geometry" />
        </mxCell>
        <mxCell id="XcMSc3Dv5Vf1WdrxYV2J-62" value="11111&lt;font color=&quot;#0066cc&quot;&gt;000&lt;/font&gt;" style="rounded=1;whiteSpace=wrap;html=1;shadow=0;labelBackgroundColor=none;strokeWidth=1;fontFamily=Verdana;fontSize=8;align=center;fontStyle=1" parent="1" vertex="1">
          <mxGeometry x="310" y="1990" width="60" height="20" as="geometry" />
        </mxCell>
        <mxCell id="XcMSc3Dv5Vf1WdrxYV2J-68" value="01110000" style="rounded=1;whiteSpace=wrap;html=1;shadow=0;labelBackgroundColor=none;strokeWidth=1;fontFamily=Verdana;fontSize=8;align=center;fontStyle=1" parent="1" vertex="1">
          <mxGeometry x="380" y="2030" width="60" height="20" as="geometry" />
        </mxCell>
        <mxCell id="XcMSc3Dv5Vf1WdrxYV2J-69" value="00110000" style="rounded=1;whiteSpace=wrap;html=1;shadow=0;labelBackgroundColor=none;strokeWidth=1;fontFamily=Verdana;fontSize=8;align=center;fontStyle=1" parent="1" vertex="1">
          <mxGeometry x="450" y="2030" width="60" height="20" as="geometry" />
        </mxCell>
        <mxCell id="XcMSc3Dv5Vf1WdrxYV2J-70" value="00010000" style="rounded=1;whiteSpace=wrap;html=1;shadow=0;labelBackgroundColor=none;strokeWidth=1;fontFamily=Verdana;fontSize=8;align=center;fontStyle=1" parent="1" vertex="1">
          <mxGeometry x="520" y="2030" width="60" height="20" as="geometry" />
        </mxCell>
        <mxCell id="XcMSc3Dv5Vf1WdrxYV2J-72" value="1111&lt;font color=&quot;#0066cc&quot;&gt;0000&lt;/font&gt;" style="rounded=1;whiteSpace=wrap;html=1;shadow=0;labelBackgroundColor=none;strokeWidth=1;fontFamily=Verdana;fontSize=8;align=center;fontStyle=1" parent="1" vertex="1">
          <mxGeometry x="310" y="2030" width="60" height="20" as="geometry" />
        </mxCell>
        <mxCell id="XcMSc3Dv5Vf1WdrxYV2J-73" value="01100000" style="rounded=1;whiteSpace=wrap;html=1;shadow=0;labelBackgroundColor=none;strokeWidth=1;fontFamily=Verdana;fontSize=8;align=center;fontStyle=1" parent="1" vertex="1">
          <mxGeometry x="380" y="2070" width="60" height="20" as="geometry" />
        </mxCell>
        <mxCell id="XcMSc3Dv5Vf1WdrxYV2J-74" value="00100000" style="rounded=1;whiteSpace=wrap;html=1;shadow=0;labelBackgroundColor=none;strokeWidth=1;fontFamily=Verdana;fontSize=8;align=center;fontStyle=1" parent="1" vertex="1">
          <mxGeometry x="450" y="2070" width="60" height="20" as="geometry" />
        </mxCell>
        <mxCell id="XcMSc3Dv5Vf1WdrxYV2J-76" value="111&lt;font color=&quot;#0066cc&quot;&gt;00000&lt;/font&gt;" style="rounded=1;whiteSpace=wrap;html=1;shadow=0;labelBackgroundColor=none;strokeWidth=1;fontFamily=Verdana;fontSize=8;align=center;fontStyle=1" parent="1" vertex="1">
          <mxGeometry x="310" y="2070" width="60" height="20" as="geometry" />
        </mxCell>
        <mxCell id="XcMSc3Dv5Vf1WdrxYV2J-77" value="01000000" style="rounded=1;whiteSpace=wrap;html=1;shadow=0;labelBackgroundColor=none;strokeWidth=1;fontFamily=Verdana;fontSize=8;align=center;fontStyle=1" parent="1" vertex="1">
          <mxGeometry x="380" y="2110" width="60" height="20" as="geometry" />
        </mxCell>
        <mxCell id="XcMSc3Dv5Vf1WdrxYV2J-79" value="11&lt;font color=&quot;#0066cc&quot;&gt;000000&lt;/font&gt;" style="rounded=1;whiteSpace=wrap;html=1;shadow=0;labelBackgroundColor=none;strokeWidth=1;fontFamily=Verdana;fontSize=8;align=center;fontStyle=1" parent="1" vertex="1">
          <mxGeometry x="310" y="2110" width="60" height="20" as="geometry" />
        </mxCell>
        <mxCell id="XcMSc3Dv5Vf1WdrxYV2J-116" style="edgeStyle=orthogonalEdgeStyle;rounded=0;orthogonalLoop=1;jettySize=auto;html=1;exitX=1;exitY=0.5;exitDx=0;exitDy=0;entryX=0;entryY=0.5;entryDx=0;entryDy=0;endArrow=blockThin;endFill=1;fontStyle=1" parent="1" source="XcMSc3Dv5Vf1WdrxYV2J-81" target="XcMSc3Dv5Vf1WdrxYV2J-24" edge="1">
          <mxGeometry relative="1" as="geometry">
            <Array as="points">
              <mxPoint x="900" y="2160" />
              <mxPoint x="900" y="1860" />
              <mxPoint x="290" y="1860" />
              <mxPoint x="290" y="1880" />
            </Array>
          </mxGeometry>
        </mxCell>
        <mxCell id="XcMSc3Dv5Vf1WdrxYV2J-86" value="" style="endArrow=blockThin;html=1;rounded=0;exitX=1;exitY=0.5;exitDx=0;exitDy=0;entryX=0;entryY=0.5;entryDx=0;entryDy=0;fontStyle=1;endFill=1;" parent="1" source="XcMSc3Dv5Vf1WdrxYV2J-31" target="XcMSc3Dv5Vf1WdrxYV2J-41" edge="1">
          <mxGeometry width="50" height="50" relative="1" as="geometry">
            <mxPoint x="930" y="1880" as="sourcePoint" />
            <mxPoint x="600" y="1970" as="targetPoint" />
            <Array as="points">
              <mxPoint x="880" y="1880" />
              <mxPoint x="880" y="1900" />
              <mxPoint x="290" y="1900" />
              <mxPoint x="290" y="1920" />
            </Array>
          </mxGeometry>
        </mxCell>
        <mxCell id="XcMSc3Dv5Vf1WdrxYV2J-87" value="" style="endArrow=blockThin;html=1;rounded=0;entryX=0;entryY=0.5;entryDx=0;entryDy=0;exitX=1;exitY=0.5;exitDx=0;exitDy=0;fontStyle=1;endFill=1;" parent="1" source="XcMSc3Dv5Vf1WdrxYV2J-47" target="XcMSc3Dv5Vf1WdrxYV2J-56" edge="1">
          <mxGeometry width="50" height="50" relative="1" as="geometry">
            <mxPoint x="930" y="1920" as="sourcePoint" />
            <mxPoint x="380" y="1960" as="targetPoint" />
            <Array as="points">
              <mxPoint x="810" y="1920" />
              <mxPoint x="810" y="1940" />
              <mxPoint x="290" y="1940" />
              <mxPoint x="290" y="1960" />
            </Array>
          </mxGeometry>
        </mxCell>
        <mxCell id="XcMSc3Dv5Vf1WdrxYV2J-91" value="" style="endArrow=blockThin;html=1;rounded=0;exitX=1;exitY=0.5;exitDx=0;exitDy=0;entryX=0;entryY=0.5;entryDx=0;entryDy=0;fontStyle=1;endFill=1;" parent="1" source="XcMSc3Dv5Vf1WdrxYV2J-53" target="XcMSc3Dv5Vf1WdrxYV2J-62" edge="1">
          <mxGeometry width="50" height="50" relative="1" as="geometry">
            <mxPoint x="930" y="1960" as="sourcePoint" />
            <mxPoint x="600" y="1970" as="targetPoint" />
            <Array as="points">
              <mxPoint x="740" y="1960" />
              <mxPoint x="740" y="1980" />
              <mxPoint x="290" y="1980" />
              <mxPoint x="290" y="2000" />
            </Array>
          </mxGeometry>
        </mxCell>
        <mxCell id="XcMSc3Dv5Vf1WdrxYV2J-93" value="" style="endArrow=blockThin;html=1;rounded=0;entryX=0;entryY=0.5;entryDx=0;entryDy=0;exitX=1;exitY=0.5;exitDx=0;exitDy=0;fontStyle=1;endFill=1;" parent="1" source="XcMSc3Dv5Vf1WdrxYV2J-77" target="XcMSc3Dv5Vf1WdrxYV2J-81" edge="1">
          <mxGeometry width="50" height="50" relative="1" as="geometry">
            <mxPoint x="930" y="2120" as="sourcePoint" />
            <mxPoint x="600" y="1970" as="targetPoint" />
            <Array as="points">
              <mxPoint x="460" y="2120" />
              <mxPoint x="460" y="2140" />
              <mxPoint x="290" y="2140" />
              <mxPoint x="290" y="2160" />
            </Array>
          </mxGeometry>
        </mxCell>
        <mxCell id="XcMSc3Dv5Vf1WdrxYV2J-94" value="" style="endArrow=blockThin;html=1;rounded=0;entryX=0;entryY=0.5;entryDx=0;entryDy=0;exitX=1;exitY=0.5;exitDx=0;exitDy=0;fontStyle=1;endFill=1;" parent="1" source="XcMSc3Dv5Vf1WdrxYV2J-74" target="XcMSc3Dv5Vf1WdrxYV2J-79" edge="1">
          <mxGeometry width="50" height="50" relative="1" as="geometry">
            <mxPoint x="930" y="2080" as="sourcePoint" />
            <mxPoint x="600" y="1970" as="targetPoint" />
            <Array as="points">
              <mxPoint x="530" y="2080" />
              <mxPoint x="530" y="2100" />
              <mxPoint x="290" y="2100" />
              <mxPoint x="290" y="2120" />
            </Array>
          </mxGeometry>
        </mxCell>
        <mxCell id="XcMSc3Dv5Vf1WdrxYV2J-95" value="" style="endArrow=blockThin;html=1;rounded=0;entryX=0;entryY=0.5;entryDx=0;entryDy=0;exitX=1;exitY=0.5;exitDx=0;exitDy=0;fontStyle=1;endFill=1;" parent="1" source="XcMSc3Dv5Vf1WdrxYV2J-70" target="XcMSc3Dv5Vf1WdrxYV2J-76" edge="1">
          <mxGeometry width="50" height="50" relative="1" as="geometry">
            <mxPoint x="930" y="2040" as="sourcePoint" />
            <mxPoint x="600" y="1970" as="targetPoint" />
            <Array as="points">
              <mxPoint x="600" y="2040" />
              <mxPoint x="600" y="2060" />
              <mxPoint x="290" y="2060" />
              <mxPoint x="290" y="2080" />
            </Array>
          </mxGeometry>
        </mxCell>
        <mxCell id="XcMSc3Dv5Vf1WdrxYV2J-96" value="" style="endArrow=blockThin;html=1;rounded=0;entryX=0;entryY=0.5;entryDx=0;entryDy=0;exitX=1;exitY=0.5;exitDx=0;exitDy=0;fontStyle=1;endFill=1;" parent="1" source="XcMSc3Dv5Vf1WdrxYV2J-60" target="XcMSc3Dv5Vf1WdrxYV2J-72" edge="1">
          <mxGeometry width="50" height="50" relative="1" as="geometry">
            <mxPoint x="930" y="2000" as="sourcePoint" />
            <mxPoint x="600" y="1970" as="targetPoint" />
            <Array as="points">
              <mxPoint x="670" y="2000" />
              <mxPoint x="670" y="2020" />
              <mxPoint x="290" y="2020" />
              <mxPoint x="290" y="2040" />
            </Array>
          </mxGeometry>
        </mxCell>
        <mxCell id="XcMSc3Dv5Vf1WdrxYV2J-105" value="0" style="rounded=1;whiteSpace=wrap;html=1;shadow=0;labelBackgroundColor=none;strokeWidth=1;fontFamily=Verdana;fontSize=8;align=center;fontStyle=1" parent="1" vertex="1">
          <mxGeometry x="240" y="1870" width="30" height="20" as="geometry" />
        </mxCell>
        <mxCell id="XcMSc3Dv5Vf1WdrxYV2J-106" value="1" style="rounded=1;whiteSpace=wrap;html=1;shadow=0;labelBackgroundColor=none;strokeWidth=1;fontFamily=Verdana;fontSize=8;align=center;fontStyle=1" parent="1" vertex="1">
          <mxGeometry x="240" y="1910" width="30" height="20" as="geometry" />
        </mxCell>
        <mxCell id="XcMSc3Dv5Vf1WdrxYV2J-107" value="2" style="rounded=1;whiteSpace=wrap;html=1;shadow=0;labelBackgroundColor=none;strokeWidth=1;fontFamily=Verdana;fontSize=8;align=center;fontStyle=1" parent="1" vertex="1">
          <mxGeometry x="240" y="1950" width="30" height="20" as="geometry" />
        </mxCell>
        <mxCell id="XcMSc3Dv5Vf1WdrxYV2J-108" value="3" style="rounded=1;whiteSpace=wrap;html=1;shadow=0;labelBackgroundColor=none;strokeWidth=1;fontFamily=Verdana;fontSize=8;align=center;fontStyle=1" parent="1" vertex="1">
          <mxGeometry x="240" y="1990" width="30" height="20" as="geometry" />
        </mxCell>
        <mxCell id="XcMSc3Dv5Vf1WdrxYV2J-109" value="4" style="rounded=1;whiteSpace=wrap;html=1;shadow=0;labelBackgroundColor=none;strokeWidth=1;fontFamily=Verdana;fontSize=8;align=center;fontStyle=1" parent="1" vertex="1">
          <mxGeometry x="240" y="2030" width="30" height="20" as="geometry" />
        </mxCell>
        <mxCell id="XcMSc3Dv5Vf1WdrxYV2J-110" value="5" style="rounded=1;whiteSpace=wrap;html=1;shadow=0;labelBackgroundColor=none;strokeWidth=1;fontFamily=Verdana;fontSize=8;align=center;fontStyle=1" parent="1" vertex="1">
          <mxGeometry x="240" y="2070" width="30" height="20" as="geometry" />
        </mxCell>
        <mxCell id="XcMSc3Dv5Vf1WdrxYV2J-111" value="6" style="rounded=1;whiteSpace=wrap;html=1;shadow=0;labelBackgroundColor=none;strokeWidth=1;fontFamily=Verdana;fontSize=8;align=center;fontStyle=1" parent="1" vertex="1">
          <mxGeometry x="240" y="2110" width="30" height="20" as="geometry" />
        </mxCell>
        <mxCell id="XcMSc3Dv5Vf1WdrxYV2J-112" value="7" style="rounded=1;whiteSpace=wrap;html=1;shadow=0;labelBackgroundColor=none;strokeWidth=1;fontFamily=Verdana;fontSize=8;align=center;fontStyle=1" parent="1" vertex="1">
          <mxGeometry x="240" y="2150" width="30" height="20" as="geometry" />
        </mxCell>
        <mxCell id="XcMSc3Dv5Vf1WdrxYV2J-124" value="" style="endArrow=none;dashed=1;html=1;rounded=0;exitX=1;exitY=0.5;exitDx=0;exitDy=0;fontStyle=1" parent="1" source="XcMSc3Dv5Vf1WdrxYV2J-81" edge="1">
          <mxGeometry width="50" height="50" relative="1" as="geometry">
            <mxPoint x="280" y="2159.77" as="sourcePoint" />
            <mxPoint x="780" y="2160" as="targetPoint" />
          </mxGeometry>
        </mxCell>
        <mxCell id="XcMSc3Dv5Vf1WdrxYV2J-141" style="edgeStyle=orthogonalEdgeStyle;rounded=0;orthogonalLoop=1;jettySize=auto;html=1;exitX=1;exitY=0.5;exitDx=0;exitDy=0;exitPerimeter=0;entryX=1;entryY=0.5;entryDx=0;entryDy=0;fontFamily=Helvetica;fontSize=12;fontColor=default;endArrow=blockThin;endFill=1;fontStyle=1" parent="1" source="XcMSc3Dv5Vf1WdrxYV2J-135" target="XcMSc3Dv5Vf1WdrxYV2J-139" edge="1">
          <mxGeometry relative="1" as="geometry" />
        </mxCell>
        <mxCell id="XcMSc3Dv5Vf1WdrxYV2J-152" style="edgeStyle=orthogonalEdgeStyle;rounded=0;orthogonalLoop=1;jettySize=auto;html=1;exitX=0.5;exitY=1;exitDx=0;exitDy=0;exitPerimeter=0;entryX=0.5;entryY=0;entryDx=0;entryDy=0;fontFamily=Helvetica;fontSize=12;fontColor=default;endArrow=blockThin;endFill=1;fontStyle=1" parent="1" source="XcMSc3Dv5Vf1WdrxYV2J-135" target="XcMSc3Dv5Vf1WdrxYV2J-145" edge="1">
          <mxGeometry relative="1" as="geometry" />
        </mxCell>
        <mxCell id="XcMSc3Dv5Vf1WdrxYV2J-135" value="mask_e = mask_s" style="strokeWidth=1;html=1;shape=mxgraph.flowchart.decision;whiteSpace=wrap;fillColor=#FBD9AC;fontStyle=1" parent="1" vertex="1">
          <mxGeometry x="1039.94" y="1940" width="160" height="40" as="geometry" />
        </mxCell>
        <mxCell id="XcMSc3Dv5Vf1WdrxYV2J-136" value="时钟上升沿" style="strokeWidth=1;html=1;shape=mxgraph.flowchart.delay;whiteSpace=wrap;strokeColor=#000000;align=center;verticalAlign=middle;fontFamily=Helvetica;fontSize=12;fillColor=#d5e8d4;fontStyle=1" parent="1" vertex="1">
          <mxGeometry x="1039.94" y="1880" width="160" height="40" as="geometry" />
        </mxCell>
        <mxCell id="XcMSc3Dv5Vf1WdrxYV2J-139" value="wrr_mask[mask_s] &amp;lt;= 0&lt;br&gt;mask_s &amp;lt;= mask_s + 1" style="rounded=1;whiteSpace=wrap;html=1;absoluteArcSize=1;arcSize=14;strokeWidth=1;strokeColor=default;align=center;verticalAlign=middle;fontFamily=Helvetica;fontSize=12;fontColor=default;fillColor=#F2F27D;fontStyle=1" parent="1" vertex="1">
          <mxGeometry x="1039.94" y="1820" width="160" height="40" as="geometry" />
        </mxCell>
        <mxCell id="XcMSc3Dv5Vf1WdrxYV2J-143" value="" style="edgeStyle=orthogonalEdgeStyle;rounded=0;orthogonalLoop=1;jettySize=auto;html=1;fontFamily=Helvetica;fontSize=12;fontColor=default;exitX=0.5;exitY=1;exitDx=0;exitDy=0;endArrow=blockThin;endFill=1;fontStyle=1" parent="1" source="XcMSc3Dv5Vf1WdrxYV2J-139" edge="1">
          <mxGeometry relative="1" as="geometry">
            <mxPoint x="1119.94" y="1860" as="sourcePoint" />
            <mxPoint x="1119.94" y="1880" as="targetPoint" />
          </mxGeometry>
        </mxCell>
        <mxCell id="XcMSc3Dv5Vf1WdrxYV2J-144" style="edgeStyle=orthogonalEdgeStyle;rounded=0;orthogonalLoop=1;jettySize=auto;html=1;exitX=0.5;exitY=1;exitDx=0;exitDy=0;exitPerimeter=0;entryX=0.5;entryY=0;entryDx=0;entryDy=0;entryPerimeter=0;fontFamily=Helvetica;fontSize=12;fontColor=default;endArrow=blockThin;endFill=1;fontStyle=1" parent="1" source="XcMSc3Dv5Vf1WdrxYV2J-136" target="XcMSc3Dv5Vf1WdrxYV2J-135" edge="1">
          <mxGeometry relative="1" as="geometry" />
        </mxCell>
        <mxCell id="XcMSc3Dv5Vf1WdrxYV2J-145" value="mask_s &amp;lt;= 0&lt;br&gt;mask_e &amp;lt;= mask_e - 1" style="rounded=1;whiteSpace=wrap;html=1;absoluteArcSize=1;arcSize=14;strokeWidth=1;strokeColor=default;align=center;verticalAlign=middle;fontFamily=Helvetica;fontSize=12;fontColor=default;fillColor=#F2F27D;fontStyle=1" parent="1" vertex="1">
          <mxGeometry x="1039.94" y="2000" width="160" height="40" as="geometry" />
        </mxCell>
        <mxCell id="XcMSc3Dv5Vf1WdrxYV2J-159" style="edgeStyle=orthogonalEdgeStyle;rounded=0;orthogonalLoop=1;jettySize=auto;html=1;exitX=0.5;exitY=1;exitDx=0;exitDy=0;exitPerimeter=0;entryX=0.5;entryY=0;entryDx=0;entryDy=0;fontFamily=Helvetica;fontSize=12;fontColor=default;endArrow=blockThin;endFill=1;fontStyle=1" parent="1" source="XcMSc3Dv5Vf1WdrxYV2J-154" target="XcMSc3Dv5Vf1WdrxYV2J-156" edge="1">
          <mxGeometry relative="1" as="geometry" />
        </mxCell>
        <mxCell id="XcMSc3Dv5Vf1WdrxYV2J-175" style="edgeStyle=orthogonalEdgeStyle;rounded=0;orthogonalLoop=1;jettySize=auto;html=1;exitX=0;exitY=0.5;exitDx=0;exitDy=0;exitPerimeter=0;entryX=1;entryY=0.5;entryDx=0;entryDy=0;fontFamily=Helvetica;fontSize=12;fontColor=default;endArrow=blockThin;endFill=1;fontStyle=1" parent="1" source="XcMSc3Dv5Vf1WdrxYV2J-154" target="XcMSc3Dv5Vf1WdrxYV2J-170" edge="1">
          <mxGeometry relative="1" as="geometry" />
        </mxCell>
        <mxCell id="XcMSc3Dv5Vf1WdrxYV2J-154" value="mask_e = 0" style="strokeWidth=1;html=1;shape=mxgraph.flowchart.decision;whiteSpace=wrap;fillColor=#FBD9AC;fontStyle=1" parent="1" vertex="1">
          <mxGeometry x="1039.94" y="2060" width="160" height="40" as="geometry" />
        </mxCell>
        <mxCell id="XcMSc3Dv5Vf1WdrxYV2J-156" value="wrr_mask &amp;lt;= 8&#39;b11111111&lt;br&gt;mask_e &amp;lt;= 7" style="rounded=1;whiteSpace=wrap;html=1;absoluteArcSize=1;arcSize=14;strokeWidth=1;strokeColor=default;align=center;verticalAlign=middle;fontFamily=Helvetica;fontSize=12;fontColor=default;fillColor=#F2F27D;fontStyle=1" parent="1" vertex="1">
          <mxGeometry x="1039.94" y="2120" width="160" height="40" as="geometry" />
        </mxCell>
        <mxCell id="XcMSc3Dv5Vf1WdrxYV2J-158" style="edgeStyle=orthogonalEdgeStyle;rounded=0;orthogonalLoop=1;jettySize=auto;html=1;exitX=0.5;exitY=1;exitDx=0;exitDy=0;entryX=0.5;entryY=0;entryDx=0;entryDy=0;entryPerimeter=0;fontFamily=Helvetica;fontSize=12;fontColor=default;endArrow=blockThin;endFill=1;fontStyle=1" parent="1" source="XcMSc3Dv5Vf1WdrxYV2J-145" target="XcMSc3Dv5Vf1WdrxYV2J-154" edge="1">
          <mxGeometry relative="1" as="geometry">
            <mxPoint x="1119.94" y="2100" as="sourcePoint" />
          </mxGeometry>
        </mxCell>
        <mxCell id="XcMSc3Dv5Vf1WdrxYV2J-166" value="起始截断位&lt;br&gt;wrr_s" style="rounded=1;whiteSpace=wrap;html=1;strokeColor=none;strokeWidth=1;align=center;verticalAlign=middle;fontFamily=Helvetica;fontSize=12;fontColor=default;fillColor=none;fontStyle=1;rotation=90;" parent="1" vertex="1">
          <mxGeometry x="160" y="2000" width="90" height="40" as="geometry" />
        </mxCell>
        <mxCell id="XcMSc3Dv5Vf1WdrxYV2J-167" value="终止截断位&lt;br&gt;wrr_e" style="rounded=1;whiteSpace=wrap;html=1;strokeColor=none;strokeWidth=1;align=center;verticalAlign=middle;fontFamily=Helvetica;fontSize=12;fontColor=default;fillColor=none;fontStyle=1" parent="1" vertex="1">
          <mxGeometry x="550" y="1770" width="90" height="40" as="geometry" />
        </mxCell>
        <mxCell id="XcMSc3Dv5Vf1WdrxYV2J-169" style="edgeStyle=orthogonalEdgeStyle;rounded=0;orthogonalLoop=1;jettySize=auto;html=1;exitX=0;exitY=0.5;exitDx=0;exitDy=0;entryX=0;entryY=0.5;entryDx=0;entryDy=0;fontFamily=Helvetica;fontSize=12;fontColor=default;entryPerimeter=0;fontStyle=1" parent="1" source="XcMSc3Dv5Vf1WdrxYV2J-156" target="XcMSc3Dv5Vf1WdrxYV2J-136" edge="1">
          <mxGeometry relative="1" as="geometry">
            <mxPoint x="1049.9700000000003" y="2090" as="sourcePoint" />
            <mxPoint x="1049.9700000000003" y="1910" as="targetPoint" />
            <Array as="points">
              <mxPoint x="960" y="2140" />
              <mxPoint x="960" y="1900" />
            </Array>
          </mxGeometry>
        </mxCell>
        <mxCell id="XcMSc3Dv5Vf1WdrxYV2J-170" value="wrr_mask[mask_e] &amp;lt;= 0" style="rounded=1;whiteSpace=wrap;html=1;absoluteArcSize=1;arcSize=14;strokeWidth=1;strokeColor=default;align=center;verticalAlign=middle;fontFamily=Helvetica;fontSize=12;fontColor=default;fillColor=#F2F27D;rotation=90;fontStyle=1" parent="1" vertex="1">
          <mxGeometry x="930" y="1970" width="140" height="40" as="geometry" />
        </mxCell>
        <mxCell id="XcMSc3Dv5Vf1WdrxYV2J-174" style="edgeStyle=orthogonalEdgeStyle;rounded=0;orthogonalLoop=1;jettySize=auto;html=1;exitX=0;exitY=0.5;exitDx=0;exitDy=0;entryX=0;entryY=0.5;entryDx=0;entryDy=0;entryPerimeter=0;fontFamily=Helvetica;fontSize=12;fontColor=default;endArrow=blockThin;endFill=1;fontStyle=1" parent="1" source="XcMSc3Dv5Vf1WdrxYV2J-170" target="XcMSc3Dv5Vf1WdrxYV2J-136" edge="1">
          <mxGeometry relative="1" as="geometry">
            <Array as="points">
              <mxPoint x="1000" y="1900" />
            </Array>
          </mxGeometry>
        </mxCell>
        <mxCell id="XcMSc3Dv5Vf1WdrxYV2J-176" value="" style="group;fontStyle=1" parent="1" vertex="1" connectable="0">
          <mxGeometry x="690" y="2070" width="160" height="40" as="geometry" />
        </mxCell>
        <mxCell id="XcMSc3Dv5Vf1WdrxYV2J-150" value="" style="group;fontStyle=1;rounded=1;" parent="XcMSc3Dv5Vf1WdrxYV2J-176" vertex="1" connectable="0">
          <mxGeometry width="160" height="30" as="geometry" />
        </mxCell>
        <mxCell id="XcMSc3Dv5Vf1WdrxYV2J-147" value="&lt;span style=&quot;color: rgb(0, 0, 0); font-family: Verdana; font-style: normal; font-variant-ligatures: normal; font-variant-caps: normal; letter-spacing: normal; orphans: 2; text-align: center; text-indent: 0px; text-transform: none; widows: 2; word-spacing: 0px; -webkit-text-stroke-width: 0px; white-space: normal; background-color: rgb(251, 251, 251); text-decoration-thickness: initial; text-decoration-style: initial; text-decoration-color: initial; float: none; display: inline !important;&quot;&gt;&lt;font style=&quot;font-size: 12px;&quot;&gt;WRR位掩码&lt;br&gt;wrr_mask&lt;/font&gt;&lt;/span&gt;" style="shape=process;whiteSpace=wrap;html=1;backgroundOutline=1;strokeColor=default;strokeWidth=1;align=center;verticalAlign=middle;fontFamily=Helvetica;fontSize=12;fontColor=default;fillColor=default;fontStyle=1;rounded=1;" parent="XcMSc3Dv5Vf1WdrxYV2J-150" vertex="1">
          <mxGeometry y="-10" width="160" height="40" as="geometry" />
        </mxCell>
        <mxCell id="XcMSc3Dv5Vf1WdrxYV2J-148" value="LSB" style="rounded=1;whiteSpace=wrap;html=1;strokeColor=default;strokeWidth=1;align=center;verticalAlign=middle;fontFamily=Helvetica;fontSize=12;fontColor=default;fillColor=default;fontStyle=1" parent="XcMSc3Dv5Vf1WdrxYV2J-150" vertex="1">
          <mxGeometry y="-10" width="32" height="40" as="geometry" />
        </mxCell>
        <mxCell id="XcMSc3Dv5Vf1WdrxYV2J-149" value="MSB" style="rounded=1;whiteSpace=wrap;html=1;strokeColor=default;strokeWidth=1;align=center;verticalAlign=middle;fontFamily=Helvetica;fontSize=12;fontColor=default;fillColor=default;fontStyle=1" parent="XcMSc3Dv5Vf1WdrxYV2J-150" vertex="1">
          <mxGeometry x="128" y="-10" width="32" height="40" as="geometry" />
        </mxCell>
        <mxCell id="XcMSc3Dv5Vf1WdrxYV2J-151" value="&lt;font style=&quot;font-size: 10px;&quot;&gt;优先&lt;span style=&quot;white-space: pre;&quot;&gt;&#x9;&lt;/span&gt;&amp;nbsp; &amp;nbsp; &amp;nbsp; &amp;nbsp; &amp;nbsp; &amp;nbsp; &amp;nbsp; &amp;nbsp; &amp;nbsp; &amp;nbsp; &amp;nbsp; &amp;nbsp; &amp;nbsp; &amp;nbsp; &amp;nbsp; &amp;nbsp; &amp;nbsp; &amp;nbsp; &amp;nbsp; 非优先&lt;/font&gt;" style="endArrow=async;html=1;rounded=0;fontFamily=Helvetica;fontSize=12;fontColor=default;verticalAlign=top;endFill=1;fontStyle=1" parent="XcMSc3Dv5Vf1WdrxYV2J-176" edge="1">
          <mxGeometry width="50" height="50" relative="1" as="geometry">
            <mxPoint y="40" as="sourcePoint" />
            <mxPoint x="160" y="40" as="targetPoint" />
          </mxGeometry>
        </mxCell>
        <mxCell id="XcMSc3Dv5Vf1WdrxYV2J-81" value="1&lt;font color=&quot;#0066cc&quot;&gt;0000000&lt;/font&gt;" style="rounded=1;whiteSpace=wrap;html=1;shadow=0;labelBackgroundColor=none;strokeWidth=1;fontFamily=Verdana;fontSize=8;align=center;fontStyle=1" parent="1" vertex="1">
          <mxGeometry x="310" y="2150" width="60" height="20" as="geometry" />
        </mxCell>
        <mxCell id="XcMSc3Dv5Vf1WdrxYV2J-181" value="0" style="rounded=1;whiteSpace=wrap;html=1;shadow=0;labelBackgroundColor=none;strokeWidth=1;fontFamily=Verdana;fontSize=8;align=center;fontStyle=1" parent="1" vertex="1">
          <mxGeometry x="325" y="1820" width="30" height="20" as="geometry" />
        </mxCell>
        <mxCell id="XcMSc3Dv5Vf1WdrxYV2J-191" value="1" style="rounded=1;whiteSpace=wrap;html=1;shadow=0;labelBackgroundColor=none;strokeWidth=1;fontFamily=Verdana;fontSize=8;align=center;fontStyle=1" parent="1" vertex="1">
          <mxGeometry x="395" y="1820" width="30" height="20" as="geometry" />
        </mxCell>
        <mxCell id="XcMSc3Dv5Vf1WdrxYV2J-192" value="2" style="rounded=1;whiteSpace=wrap;html=1;shadow=0;labelBackgroundColor=none;strokeWidth=1;fontFamily=Verdana;fontSize=8;align=center;fontStyle=1" parent="1" vertex="1">
          <mxGeometry x="465" y="1820" width="30" height="20" as="geometry" />
        </mxCell>
        <mxCell id="XcMSc3Dv5Vf1WdrxYV2J-193" value="3" style="rounded=1;whiteSpace=wrap;html=1;shadow=0;labelBackgroundColor=none;strokeWidth=1;fontFamily=Verdana;fontSize=8;align=center;fontStyle=1" parent="1" vertex="1">
          <mxGeometry x="535" y="1820" width="30" height="20" as="geometry" />
        </mxCell>
        <mxCell id="XcMSc3Dv5Vf1WdrxYV2J-194" value="4" style="rounded=1;whiteSpace=wrap;html=1;shadow=0;labelBackgroundColor=none;strokeWidth=1;fontFamily=Verdana;fontSize=8;align=center;fontStyle=1" parent="1" vertex="1">
          <mxGeometry x="605" y="1820" width="30" height="20" as="geometry" />
        </mxCell>
        <mxCell id="XcMSc3Dv5Vf1WdrxYV2J-195" value="5" style="rounded=1;whiteSpace=wrap;html=1;shadow=0;labelBackgroundColor=none;strokeWidth=1;fontFamily=Verdana;fontSize=8;align=center;fontStyle=1" parent="1" vertex="1">
          <mxGeometry x="675" y="1820" width="30" height="20" as="geometry" />
        </mxCell>
        <mxCell id="XcMSc3Dv5Vf1WdrxYV2J-196" value="6" style="rounded=1;whiteSpace=wrap;html=1;shadow=0;labelBackgroundColor=none;strokeWidth=1;fontFamily=Verdana;fontSize=8;align=center;fontStyle=1" parent="1" vertex="1">
          <mxGeometry x="745" y="1820" width="30" height="20" as="geometry" />
        </mxCell>
        <mxCell id="XcMSc3Dv5Vf1WdrxYV2J-197" value="7" style="rounded=1;whiteSpace=wrap;html=1;shadow=0;labelBackgroundColor=none;strokeWidth=1;fontFamily=Verdana;fontSize=8;align=center;fontStyle=1" parent="1" vertex="1">
          <mxGeometry x="815" y="1820" width="30" height="20" as="geometry" />
        </mxCell>
        <mxCell id="XcMSc3Dv5Vf1WdrxYV2J-240" value="" style="group;fontStyle=1" parent="1" vertex="1" connectable="0">
          <mxGeometry x="380" y="2300" width="470" height="60" as="geometry" />
        </mxCell>
        <mxCell id="XcMSc3Dv5Vf1WdrxYV2J-211" value="" style="group;fontStyle=1" parent="XcMSc3Dv5Vf1WdrxYV2J-240" vertex="1" connectable="0">
          <mxGeometry x="80" y="40" width="160" height="20" as="geometry" />
        </mxCell>
        <mxCell id="XcMSc3Dv5Vf1WdrxYV2J-202" value="" style="rounded=0;whiteSpace=wrap;html=1;strokeColor=default;strokeWidth=1;align=center;verticalAlign=middle;fontFamily=Helvetica;fontSize=12;fontColor=default;fillColor=default;fontStyle=1" parent="XcMSc3Dv5Vf1WdrxYV2J-211" vertex="1">
          <mxGeometry width="160" height="20" as="geometry" />
        </mxCell>
        <mxCell id="XcMSc3Dv5Vf1WdrxYV2J-203" value="" style="rounded=0;whiteSpace=wrap;html=1;strokeColor=default;strokeWidth=1;align=center;verticalAlign=middle;fontFamily=Helvetica;fontSize=12;fontColor=default;fillColor=#FF3333;fontStyle=1" parent="XcMSc3Dv5Vf1WdrxYV2J-211" vertex="1">
          <mxGeometry width="20" height="20" as="geometry" />
        </mxCell>
        <mxCell id="XcMSc3Dv5Vf1WdrxYV2J-204" value="" style="rounded=0;whiteSpace=wrap;html=1;strokeColor=default;strokeWidth=1;align=center;verticalAlign=middle;fontFamily=Helvetica;fontSize=12;fontColor=default;fillColor=#FF3333;fontStyle=1" parent="XcMSc3Dv5Vf1WdrxYV2J-211" vertex="1">
          <mxGeometry x="20" width="20" height="20" as="geometry" />
        </mxCell>
        <mxCell id="XcMSc3Dv5Vf1WdrxYV2J-205" value="" style="rounded=0;whiteSpace=wrap;html=1;strokeColor=default;strokeWidth=1;align=center;verticalAlign=middle;fontFamily=Helvetica;fontSize=12;fontColor=default;fillColor=default;fontStyle=1" parent="XcMSc3Dv5Vf1WdrxYV2J-211" vertex="1">
          <mxGeometry x="40" width="20" height="20" as="geometry" />
        </mxCell>
        <mxCell id="XcMSc3Dv5Vf1WdrxYV2J-206" value="" style="rounded=0;whiteSpace=wrap;html=1;strokeColor=default;strokeWidth=1;align=center;verticalAlign=middle;fontFamily=Helvetica;fontSize=12;fontColor=default;fillColor=#FF3333;fontStyle=1" parent="XcMSc3Dv5Vf1WdrxYV2J-211" vertex="1">
          <mxGeometry x="60" width="20" height="20" as="geometry" />
        </mxCell>
        <mxCell id="XcMSc3Dv5Vf1WdrxYV2J-207" value="" style="rounded=0;whiteSpace=wrap;html=1;strokeColor=default;strokeWidth=1;align=center;verticalAlign=middle;fontFamily=Helvetica;fontSize=12;fontColor=default;fillColor=default;fontStyle=1" parent="XcMSc3Dv5Vf1WdrxYV2J-211" vertex="1">
          <mxGeometry x="80" width="20" height="20" as="geometry" />
        </mxCell>
        <mxCell id="XcMSc3Dv5Vf1WdrxYV2J-208" value="" style="rounded=0;whiteSpace=wrap;html=1;strokeColor=default;strokeWidth=1;align=center;verticalAlign=middle;fontFamily=Helvetica;fontSize=12;fontColor=default;fillColor=default;fontStyle=1" parent="XcMSc3Dv5Vf1WdrxYV2J-211" vertex="1">
          <mxGeometry x="100" width="20" height="20" as="geometry" />
        </mxCell>
        <mxCell id="XcMSc3Dv5Vf1WdrxYV2J-209" value="" style="rounded=0;whiteSpace=wrap;html=1;strokeColor=default;strokeWidth=1;align=center;verticalAlign=middle;fontFamily=Helvetica;fontSize=12;fontColor=default;fillColor=default;fontStyle=1" parent="XcMSc3Dv5Vf1WdrxYV2J-211" vertex="1">
          <mxGeometry x="120" width="20" height="20" as="geometry" />
        </mxCell>
        <mxCell id="XcMSc3Dv5Vf1WdrxYV2J-210" value="" style="rounded=0;whiteSpace=wrap;html=1;strokeColor=default;strokeWidth=1;align=center;verticalAlign=middle;fontFamily=Helvetica;fontSize=12;fontColor=default;fillColor=default;fontStyle=1" parent="XcMSc3Dv5Vf1WdrxYV2J-211" vertex="1">
          <mxGeometry x="140" width="20" height="20" as="geometry" />
        </mxCell>
        <mxCell id="XcMSc3Dv5Vf1WdrxYV2J-212" value="01111000" style="rounded=1;whiteSpace=wrap;html=1;shadow=0;labelBackgroundColor=none;strokeWidth=1;fontFamily=Verdana;fontSize=8;align=center;fontStyle=1" parent="XcMSc3Dv5Vf1WdrxYV2J-240" vertex="1">
          <mxGeometry width="60" height="20" as="geometry" />
        </mxCell>
        <mxCell id="XcMSc3Dv5Vf1WdrxYV2J-213" value="" style="group;fontStyle=1" parent="XcMSc3Dv5Vf1WdrxYV2J-240" vertex="1" connectable="0">
          <mxGeometry x="80" width="160" height="20" as="geometry" />
        </mxCell>
        <mxCell id="XcMSc3Dv5Vf1WdrxYV2J-214" value="" style="rounded=0;whiteSpace=wrap;html=1;strokeColor=default;strokeWidth=1;align=center;verticalAlign=middle;fontFamily=Helvetica;fontSize=12;fontColor=default;fillColor=default;fontStyle=1" parent="XcMSc3Dv5Vf1WdrxYV2J-213" vertex="1">
          <mxGeometry width="160" height="20" as="geometry" />
        </mxCell>
        <mxCell id="XcMSc3Dv5Vf1WdrxYV2J-215" value="" style="rounded=0;whiteSpace=wrap;html=1;strokeColor=default;strokeWidth=1;align=center;verticalAlign=middle;fontFamily=Helvetica;fontSize=12;fontColor=default;fillColor=#000000;fontStyle=1" parent="XcMSc3Dv5Vf1WdrxYV2J-213" vertex="1">
          <mxGeometry width="20" height="20" as="geometry" />
        </mxCell>
        <mxCell id="XcMSc3Dv5Vf1WdrxYV2J-216" value="" style="rounded=0;whiteSpace=wrap;html=1;strokeColor=default;strokeWidth=1;align=center;verticalAlign=middle;fontFamily=Helvetica;fontSize=12;fontColor=default;fillColor=default;fontStyle=1" parent="XcMSc3Dv5Vf1WdrxYV2J-213" vertex="1">
          <mxGeometry x="20" width="20" height="20" as="geometry" />
        </mxCell>
        <mxCell id="XcMSc3Dv5Vf1WdrxYV2J-217" value="" style="rounded=0;whiteSpace=wrap;html=1;strokeColor=default;strokeWidth=1;align=center;verticalAlign=middle;fontFamily=Helvetica;fontSize=12;fontColor=default;fillColor=default;fontStyle=1" parent="XcMSc3Dv5Vf1WdrxYV2J-213" vertex="1">
          <mxGeometry x="40" width="20" height="20" as="geometry" />
        </mxCell>
        <mxCell id="XcMSc3Dv5Vf1WdrxYV2J-218" value="" style="rounded=0;whiteSpace=wrap;html=1;strokeColor=default;strokeWidth=1;align=center;verticalAlign=middle;fontFamily=Helvetica;fontSize=12;fontColor=default;fillColor=default;fontStyle=1" parent="XcMSc3Dv5Vf1WdrxYV2J-213" vertex="1">
          <mxGeometry x="60" width="20" height="20" as="geometry" />
        </mxCell>
        <mxCell id="XcMSc3Dv5Vf1WdrxYV2J-219" value="" style="rounded=0;whiteSpace=wrap;html=1;strokeColor=default;strokeWidth=1;align=center;verticalAlign=middle;fontFamily=Helvetica;fontSize=12;fontColor=default;fillColor=default;fontStyle=1" parent="XcMSc3Dv5Vf1WdrxYV2J-213" vertex="1">
          <mxGeometry x="80" width="20" height="20" as="geometry" />
        </mxCell>
        <mxCell id="XcMSc3Dv5Vf1WdrxYV2J-220" value="" style="rounded=0;whiteSpace=wrap;html=1;strokeColor=default;strokeWidth=1;align=center;verticalAlign=middle;fontFamily=Helvetica;fontSize=12;fontColor=default;fillColor=#000000;fontStyle=1" parent="XcMSc3Dv5Vf1WdrxYV2J-213" vertex="1">
          <mxGeometry x="100" width="20" height="20" as="geometry" />
        </mxCell>
        <mxCell id="XcMSc3Dv5Vf1WdrxYV2J-221" value="" style="rounded=0;whiteSpace=wrap;html=1;strokeColor=default;strokeWidth=1;align=center;verticalAlign=middle;fontFamily=Helvetica;fontSize=12;fontColor=default;fillColor=#000000;fontStyle=1" parent="XcMSc3Dv5Vf1WdrxYV2J-213" vertex="1">
          <mxGeometry x="120" width="20" height="20" as="geometry" />
        </mxCell>
        <mxCell id="XcMSc3Dv5Vf1WdrxYV2J-222" value="" style="rounded=0;whiteSpace=wrap;html=1;strokeColor=default;strokeWidth=1;align=center;verticalAlign=middle;fontFamily=Helvetica;fontSize=12;fontColor=default;fillColor=#000000;fontStyle=1" parent="XcMSc3Dv5Vf1WdrxYV2J-213" vertex="1">
          <mxGeometry x="140" width="20" height="20" as="geometry" />
        </mxCell>
        <mxCell id="XcMSc3Dv5Vf1WdrxYV2J-223" value="AND" style="shape=or;whiteSpace=wrap;html=1;strokeColor=default;strokeWidth=1;align=center;verticalAlign=middle;fontFamily=Helvetica;fontSize=12;fontColor=default;fillColor=default;fontStyle=1" parent="XcMSc3Dv5Vf1WdrxYV2J-240" vertex="1">
          <mxGeometry x="250" width="50" height="60" as="geometry" />
        </mxCell>
        <mxCell id="XcMSc3Dv5Vf1WdrxYV2J-224" value="" style="group;fontStyle=1" parent="XcMSc3Dv5Vf1WdrxYV2J-240" vertex="1" connectable="0">
          <mxGeometry x="310" y="20" width="160" height="40" as="geometry" />
        </mxCell>
        <mxCell id="XcMSc3Dv5Vf1WdrxYV2J-225" value="" style="rounded=0;whiteSpace=wrap;html=1;strokeColor=default;strokeWidth=1;align=center;verticalAlign=middle;fontFamily=Helvetica;fontSize=12;fontColor=default;fillColor=default;fontStyle=1" parent="XcMSc3Dv5Vf1WdrxYV2J-224" vertex="1">
          <mxGeometry width="160" height="20" as="geometry" />
        </mxCell>
        <mxCell id="XcMSc3Dv5Vf1WdrxYV2J-226" value="" style="rounded=0;whiteSpace=wrap;html=1;strokeColor=#000000;strokeWidth=1;align=center;verticalAlign=middle;fontFamily=Helvetica;fontSize=12;fontColor=default;fillColor=#000000;fontStyle=1" parent="XcMSc3Dv5Vf1WdrxYV2J-224" vertex="1">
          <mxGeometry width="20" height="20" as="geometry" />
        </mxCell>
        <mxCell id="XcMSc3Dv5Vf1WdrxYV2J-227" value="" style="rounded=0;whiteSpace=wrap;html=1;strokeColor=default;strokeWidth=1;align=center;verticalAlign=middle;fontFamily=Helvetica;fontSize=12;fontColor=default;fillColor=#FF3333;fontStyle=1" parent="XcMSc3Dv5Vf1WdrxYV2J-224" vertex="1">
          <mxGeometry x="20" width="20" height="20" as="geometry" />
        </mxCell>
        <mxCell id="XcMSc3Dv5Vf1WdrxYV2J-228" value="" style="rounded=0;whiteSpace=wrap;html=1;strokeColor=default;strokeWidth=1;align=center;verticalAlign=middle;fontFamily=Helvetica;fontSize=12;fontColor=default;fillColor=none;fontStyle=1" parent="XcMSc3Dv5Vf1WdrxYV2J-224" vertex="1">
          <mxGeometry x="40" width="20" height="20" as="geometry" />
        </mxCell>
        <mxCell id="XcMSc3Dv5Vf1WdrxYV2J-229" value="" style="rounded=0;whiteSpace=wrap;html=1;strokeColor=default;strokeWidth=1;align=center;verticalAlign=middle;fontFamily=Helvetica;fontSize=12;fontColor=default;fillColor=#FF3333;fontStyle=1" parent="XcMSc3Dv5Vf1WdrxYV2J-224" vertex="1">
          <mxGeometry x="60" width="20" height="20" as="geometry" />
        </mxCell>
        <mxCell id="XcMSc3Dv5Vf1WdrxYV2J-230" value="" style="rounded=0;whiteSpace=wrap;html=1;strokeColor=#000000;strokeWidth=1;align=center;verticalAlign=middle;fontFamily=Helvetica;fontSize=12;fontColor=default;fillColor=#000000;fontStyle=1" parent="XcMSc3Dv5Vf1WdrxYV2J-224" vertex="1">
          <mxGeometry x="80" width="20" height="20" as="geometry" />
        </mxCell>
        <mxCell id="XcMSc3Dv5Vf1WdrxYV2J-231" value="" style="rounded=0;whiteSpace=wrap;html=1;strokeColor=#000000;strokeWidth=1;align=center;verticalAlign=middle;fontFamily=Helvetica;fontSize=12;fontColor=default;fillColor=#000000;fontStyle=1" parent="XcMSc3Dv5Vf1WdrxYV2J-224" vertex="1">
          <mxGeometry x="100" width="20" height="20" as="geometry" />
        </mxCell>
        <mxCell id="XcMSc3Dv5Vf1WdrxYV2J-232" value="" style="rounded=0;whiteSpace=wrap;html=1;strokeColor=#000000;strokeWidth=1;align=center;verticalAlign=middle;fontFamily=Helvetica;fontSize=12;fontColor=default;fillColor=#000000;fontStyle=1" parent="XcMSc3Dv5Vf1WdrxYV2J-224" vertex="1">
          <mxGeometry x="120" width="20" height="20" as="geometry" />
        </mxCell>
        <mxCell id="XcMSc3Dv5Vf1WdrxYV2J-233" value="" style="rounded=0;whiteSpace=wrap;html=1;strokeColor=#000000;strokeWidth=1;align=center;verticalAlign=middle;fontFamily=Helvetica;fontSize=12;fontColor=default;fillColor=#000000;fontStyle=1" parent="XcMSc3Dv5Vf1WdrxYV2J-224" vertex="1">
          <mxGeometry x="140" width="20" height="20" as="geometry" />
        </mxCell>
        <mxCell id="XcMSc3Dv5Vf1WdrxYV2J-239" value="&lt;h2 style=&quot;box-sizing: border-box; padding: 1rem; margin: 0px; outline: 0px; line-height: 22px; font-size: 16px; border-bottom: 1px solid var(--bd_01); position: relative; color: rgb(63, 66, 87); font-family: -apple-system, BlinkMacSystemFont, &amp;quot;Segoe UI&amp;quot;, Roboto, &amp;quot;Helvetica Neue&amp;quot;, Arial, &amp;quot;Noto Sans&amp;quot;, sans-serif, &amp;quot;Apple Color Emoji&amp;quot;, &amp;quot;Segoe UI Emoji&amp;quot;, &amp;quot;Segoe UI Symbol&amp;quot;, &amp;quot;Noto Color Emoji&amp;quot;; font-style: normal; font-variant-ligatures: normal; font-variant-caps: normal; letter-spacing: normal; orphans: 2; text-align: start; text-indent: 0px; text-transform: none; widows: 2; word-spacing: 0px; -webkit-text-stroke-width: 0px; white-space: normal; text-decoration-thickness: initial; text-decoration-style: initial; text-decoration-color: initial;&quot; class=&quot;&quot;&gt;&lt;span style=&quot;box-sizing: border-box; padding: 0px; margin: 0px 2px 0px 0px; outline: 0px; display: inline-flex; font-style: normal; font-family: var(--font-emoji); direction: initial; align-items: center; justify-content: center; min-width: 1.5em;&quot; class=&quot;emoji_font line&quot;&gt;✅&lt;/span&gt;&lt;/h2&gt;" style="text;whiteSpace=wrap;html=1;fontFamily=Helvetica;fontSize=12;fontColor=default;fontStyle=1" parent="XcMSc3Dv5Vf1WdrxYV2J-224" vertex="1">
          <mxGeometry width="40" height="40" as="geometry" />
        </mxCell>
        <mxCell id="XcMSc3Dv5Vf1WdrxYV2J-238" value="11010000" style="rounded=1;whiteSpace=wrap;html=1;shadow=0;labelBackgroundColor=none;strokeWidth=1;fontFamily=Verdana;fontSize=8;align=center;fontStyle=1" parent="XcMSc3Dv5Vf1WdrxYV2J-240" vertex="1">
          <mxGeometry y="40" width="60" height="20" as="geometry" />
        </mxCell>
        <mxCell id="XcMSc3Dv5Vf1WdrxYV2J-273" value="" style="group;fontStyle=1" parent="1" vertex="1" connectable="0">
          <mxGeometry x="290" y="2380" width="110" height="160" as="geometry" />
        </mxCell>
        <mxCell id="XcMSc3Dv5Vf1WdrxYV2J-262" value="" style="rounded=0;whiteSpace=wrap;html=1;strokeColor=default;strokeWidth=1;align=center;verticalAlign=middle;fontFamily=Helvetica;fontSize=12;fontColor=default;fillColor=default;rotation=90;fontStyle=1" parent="XcMSc3Dv5Vf1WdrxYV2J-273" vertex="1">
          <mxGeometry x="-25" y="25" width="160" height="110" as="geometry" />
        </mxCell>
        <mxCell id="XcMSc3Dv5Vf1WdrxYV2J-264" value="~queue_0_empty" style="rounded=0;whiteSpace=wrap;html=1;strokeColor=default;strokeWidth=1;align=center;verticalAlign=middle;fontFamily=Helvetica;fontSize=10;fontColor=default;fillColor=default;fontStyle=1" parent="XcMSc3Dv5Vf1WdrxYV2J-273" vertex="1">
          <mxGeometry width="110" height="20" as="geometry" />
        </mxCell>
        <mxCell id="XcMSc3Dv5Vf1WdrxYV2J-265" value="&lt;span style=&quot;font-size: 10px;&quot;&gt;~queue_1_empty&lt;/span&gt;" style="rounded=0;whiteSpace=wrap;html=1;strokeColor=default;strokeWidth=1;align=center;verticalAlign=middle;fontFamily=Helvetica;fontSize=12;fontColor=default;fillColor=default;fontStyle=1" parent="XcMSc3Dv5Vf1WdrxYV2J-273" vertex="1">
          <mxGeometry y="20" width="110" height="20" as="geometry" />
        </mxCell>
        <mxCell id="XcMSc3Dv5Vf1WdrxYV2J-266" value="&lt;span style=&quot;font-size: 10px;&quot;&gt;~queue_2_empty&lt;/span&gt;" style="rounded=0;whiteSpace=wrap;html=1;strokeColor=default;strokeWidth=1;align=center;verticalAlign=middle;fontFamily=Helvetica;fontSize=12;fontColor=default;fillColor=default;fontStyle=1" parent="XcMSc3Dv5Vf1WdrxYV2J-273" vertex="1">
          <mxGeometry y="40" width="110" height="20" as="geometry" />
        </mxCell>
        <mxCell id="XcMSc3Dv5Vf1WdrxYV2J-267" value="&lt;span style=&quot;font-size: 10px;&quot;&gt;~queue_3_empty&lt;/span&gt;" style="rounded=0;whiteSpace=wrap;html=1;strokeColor=default;strokeWidth=1;align=center;verticalAlign=middle;fontFamily=Helvetica;fontSize=12;fontColor=default;fillColor=default;fontStyle=1" parent="XcMSc3Dv5Vf1WdrxYV2J-273" vertex="1">
          <mxGeometry y="60" width="110" height="20" as="geometry" />
        </mxCell>
        <mxCell id="XcMSc3Dv5Vf1WdrxYV2J-268" value="&lt;span style=&quot;font-size: 10px;&quot;&gt;~queue_4_empty&lt;/span&gt;" style="rounded=0;whiteSpace=wrap;html=1;strokeColor=default;strokeWidth=1;align=center;verticalAlign=middle;fontFamily=Helvetica;fontSize=12;fontColor=default;fillColor=default;fontStyle=1" parent="XcMSc3Dv5Vf1WdrxYV2J-273" vertex="1">
          <mxGeometry y="80" width="110" height="20" as="geometry" />
        </mxCell>
        <mxCell id="XcMSc3Dv5Vf1WdrxYV2J-269" value="&lt;span style=&quot;font-size: 10px;&quot;&gt;~queue_5_empty&lt;/span&gt;" style="rounded=0;whiteSpace=wrap;html=1;strokeColor=default;strokeWidth=1;align=center;verticalAlign=middle;fontFamily=Helvetica;fontSize=12;fontColor=default;fillColor=default;fontStyle=1" parent="XcMSc3Dv5Vf1WdrxYV2J-273" vertex="1">
          <mxGeometry y="100" width="110" height="20" as="geometry" />
        </mxCell>
        <mxCell id="XcMSc3Dv5Vf1WdrxYV2J-270" value="&lt;span style=&quot;font-size: 10px;&quot;&gt;~queue_6_empty&lt;/span&gt;" style="rounded=0;whiteSpace=wrap;html=1;strokeColor=default;strokeWidth=1;align=center;verticalAlign=middle;fontFamily=Helvetica;fontSize=12;fontColor=default;fillColor=default;fontStyle=1" parent="XcMSc3Dv5Vf1WdrxYV2J-273" vertex="1">
          <mxGeometry y="120" width="110" height="20" as="geometry" />
        </mxCell>
        <mxCell id="XcMSc3Dv5Vf1WdrxYV2J-271" value="&lt;span style=&quot;font-size: 10px;&quot;&gt;~queue_7_empty&lt;/span&gt;" style="rounded=0;whiteSpace=wrap;html=1;strokeColor=default;strokeWidth=1;align=center;verticalAlign=middle;fontFamily=Helvetica;fontSize=12;fontColor=default;fillColor=default;fontStyle=1" parent="XcMSc3Dv5Vf1WdrxYV2J-273" vertex="1">
          <mxGeometry y="140" width="110" height="20" as="geometry" />
        </mxCell>
        <mxCell id="XcMSc3Dv5Vf1WdrxYV2J-274" value="" style="group;rotation=90;fontStyle=1" parent="1" vertex="1" connectable="0">
          <mxGeometry x="350" y="2450" width="160" height="20" as="geometry" />
        </mxCell>
        <mxCell id="XcMSc3Dv5Vf1WdrxYV2J-275" value="" style="rounded=0;whiteSpace=wrap;html=1;strokeColor=default;strokeWidth=1;align=center;verticalAlign=middle;fontFamily=Helvetica;fontSize=12;fontColor=default;fillColor=default;rotation=90;fontStyle=1" parent="XcMSc3Dv5Vf1WdrxYV2J-274" vertex="1">
          <mxGeometry width="160" height="20" as="geometry" />
        </mxCell>
        <mxCell id="XcMSc3Dv5Vf1WdrxYV2J-276" value="" style="rounded=0;whiteSpace=wrap;html=1;strokeColor=default;strokeWidth=1;align=center;verticalAlign=middle;fontFamily=Helvetica;fontSize=12;fontColor=default;fillColor=#FF3333;rotation=90;fontStyle=1" parent="XcMSc3Dv5Vf1WdrxYV2J-274" vertex="1">
          <mxGeometry x="70" y="-70" width="20" height="20" as="geometry" />
        </mxCell>
        <mxCell id="XcMSc3Dv5Vf1WdrxYV2J-277" value="" style="rounded=0;whiteSpace=wrap;html=1;strokeColor=default;strokeWidth=1;align=center;verticalAlign=middle;fontFamily=Helvetica;fontSize=12;fontColor=default;fillColor=#FF3333;rotation=90;fontStyle=1" parent="XcMSc3Dv5Vf1WdrxYV2J-274" vertex="1">
          <mxGeometry x="70" y="-50" width="20" height="20" as="geometry" />
        </mxCell>
        <mxCell id="XcMSc3Dv5Vf1WdrxYV2J-278" value="" style="rounded=0;whiteSpace=wrap;html=1;strokeColor=default;strokeWidth=1;align=center;verticalAlign=middle;fontFamily=Helvetica;fontSize=12;fontColor=default;fillColor=default;rotation=90;fontStyle=1" parent="XcMSc3Dv5Vf1WdrxYV2J-274" vertex="1">
          <mxGeometry x="70" y="-30" width="20" height="20" as="geometry" />
        </mxCell>
        <mxCell id="XcMSc3Dv5Vf1WdrxYV2J-279" value="" style="rounded=0;whiteSpace=wrap;html=1;strokeColor=default;strokeWidth=1;align=center;verticalAlign=middle;fontFamily=Helvetica;fontSize=12;fontColor=default;fillColor=#FF3333;rotation=90;fontStyle=1" parent="XcMSc3Dv5Vf1WdrxYV2J-274" vertex="1">
          <mxGeometry x="70" y="-10" width="20" height="20" as="geometry" />
        </mxCell>
        <mxCell id="XcMSc3Dv5Vf1WdrxYV2J-280" value="" style="rounded=0;whiteSpace=wrap;html=1;strokeColor=default;strokeWidth=1;align=center;verticalAlign=middle;fontFamily=Helvetica;fontSize=12;fontColor=default;fillColor=default;rotation=90;fontStyle=1" parent="XcMSc3Dv5Vf1WdrxYV2J-274" vertex="1">
          <mxGeometry x="70" y="10" width="20" height="20" as="geometry" />
        </mxCell>
        <mxCell id="XcMSc3Dv5Vf1WdrxYV2J-281" value="" style="rounded=0;whiteSpace=wrap;html=1;strokeColor=default;strokeWidth=1;align=center;verticalAlign=middle;fontFamily=Helvetica;fontSize=12;fontColor=default;fillColor=default;rotation=90;fontStyle=1" parent="XcMSc3Dv5Vf1WdrxYV2J-274" vertex="1">
          <mxGeometry x="70" y="30" width="20" height="20" as="geometry" />
        </mxCell>
        <mxCell id="XcMSc3Dv5Vf1WdrxYV2J-282" value="" style="rounded=0;whiteSpace=wrap;html=1;strokeColor=default;strokeWidth=1;align=center;verticalAlign=middle;fontFamily=Helvetica;fontSize=12;fontColor=default;fillColor=default;rotation=90;fontStyle=1" parent="XcMSc3Dv5Vf1WdrxYV2J-274" vertex="1">
          <mxGeometry x="70" y="50" width="20" height="20" as="geometry" />
        </mxCell>
        <mxCell id="XcMSc3Dv5Vf1WdrxYV2J-283" value="" style="rounded=0;whiteSpace=wrap;html=1;strokeColor=default;strokeWidth=1;align=center;verticalAlign=middle;fontFamily=Helvetica;fontSize=12;fontColor=default;fillColor=default;rotation=90;fontStyle=1" parent="XcMSc3Dv5Vf1WdrxYV2J-274" vertex="1">
          <mxGeometry x="70" y="70" width="20" height="20" as="geometry" />
        </mxCell>
        <mxCell id="XcMSc3Dv5Vf1WdrxYV2J-286" value="" style="endArrow=blockThin;html=1;rounded=0;fontFamily=Helvetica;fontSize=12;fontColor=default;exitX=0;exitY=0;exitDx=0;exitDy=0;entryX=1;entryY=1;entryDx=0;entryDy=0;endFill=1;fontStyle=1" parent="1" source="XcMSc3Dv5Vf1WdrxYV2J-280" target="XcMSc3Dv5Vf1WdrxYV2J-206" edge="1">
          <mxGeometry width="50" height="50" relative="1" as="geometry">
            <mxPoint x="455" y="2460" as="sourcePoint" />
            <mxPoint x="505" y="2410" as="targetPoint" />
            <Array as="points">
              <mxPoint x="540" y="2460" />
            </Array>
          </mxGeometry>
        </mxCell>
        <mxCell id="XcMSc3Dv5Vf1WdrxYV2J-287" value="端口空闲指示码&lt;br&gt;&lt;span style=&quot;&quot;&gt;&lt;font style=&quot;font-size: 11px;&quot;&gt;(各队列是否有数据)&lt;/font&gt;&lt;/span&gt;" style="rounded=1;whiteSpace=wrap;html=1;strokeColor=none;strokeWidth=1;align=center;verticalAlign=middle;fontFamily=Helvetica;fontSize=12;fontColor=default;fillColor=none;fontStyle=1" parent="1" vertex="1">
          <mxGeometry x="290" y="2550" width="110" height="40" as="geometry" />
        </mxCell>
        <mxCell id="XcMSc3Dv5Vf1WdrxYV2J-290" value="" style="rounded=0;whiteSpace=wrap;html=1;strokeColor=default;strokeWidth=1;align=center;verticalAlign=middle;fontFamily=Helvetica;fontSize=12;fontColor=default;fillColor=default;fontStyle=1" parent="1" vertex="1">
          <mxGeometry x="880" y="2320" width="20" height="220" as="geometry" />
        </mxCell>
        <mxCell id="XcMSc3Dv5Vf1WdrxYV2J-292" value="" style="rounded=0;whiteSpace=wrap;html=1;strokeColor=default;strokeWidth=1;align=center;verticalAlign=middle;fontFamily=Helvetica;fontSize=12;fontColor=default;fillColor=#FF8000;fontStyle=1" parent="1" vertex="1">
          <mxGeometry x="880" y="2410" width="20" height="20" as="geometry" />
        </mxCell>
        <mxCell id="XcMSc3Dv5Vf1WdrxYV2J-296" value="" style="rounded=0;whiteSpace=wrap;html=1;strokeColor=default;strokeWidth=1;align=center;verticalAlign=middle;fontFamily=Helvetica;fontSize=12;fontColor=default;fillColor=default;fontStyle=1" parent="1" vertex="1">
          <mxGeometry x="880" y="2320" width="20" height="20" as="geometry" />
        </mxCell>
        <mxCell id="XcMSc3Dv5Vf1WdrxYV2J-297" value="" style="rounded=0;whiteSpace=wrap;html=1;strokeColor=default;strokeWidth=1;align=center;verticalAlign=middle;fontFamily=Helvetica;fontSize=12;fontColor=default;fillColor=default;fontStyle=1" parent="1" vertex="1">
          <mxGeometry x="880" y="2340" width="20" height="20" as="geometry" />
        </mxCell>
        <mxCell id="XcMSc3Dv5Vf1WdrxYV2J-298" value="..." style="rounded=0;whiteSpace=wrap;html=1;strokeColor=default;strokeWidth=1;align=center;verticalAlign=middle;fontFamily=Helvetica;fontSize=12;fontColor=default;fillColor=default;fontStyle=1" parent="1" vertex="1">
          <mxGeometry x="880" y="2360" width="20" height="50" as="geometry" />
        </mxCell>
        <mxCell id="XcMSc3Dv5Vf1WdrxYV2J-299" value="..." style="rounded=0;whiteSpace=wrap;html=1;strokeColor=default;strokeWidth=1;align=center;verticalAlign=middle;fontFamily=Helvetica;fontSize=12;fontColor=default;fillColor=default;fontStyle=1" parent="1" vertex="1">
          <mxGeometry x="880" y="2430" width="20" height="90" as="geometry" />
        </mxCell>
        <mxCell id="XcMSc3Dv5Vf1WdrxYV2J-300" value="" style="rounded=0;whiteSpace=wrap;html=1;strokeColor=default;strokeWidth=1;align=center;verticalAlign=middle;fontFamily=Helvetica;fontSize=12;fontColor=default;fillColor=default;fontStyle=1" parent="1" vertex="1">
          <mxGeometry x="880" y="2520" width="20" height="20" as="geometry" />
        </mxCell>
        <mxCell id="XcMSc3Dv5Vf1WdrxYV2J-301" value="Port #0" style="rounded=0;whiteSpace=wrap;html=1;strokeColor=none;strokeWidth=1;align=left;verticalAlign=middle;fontFamily=Helvetica;fontSize=12;fontColor=default;fillColor=none;fontStyle=1" parent="1" vertex="1">
          <mxGeometry x="910" y="2320" width="50" height="20" as="geometry" />
        </mxCell>
        <mxCell id="XcMSc3Dv5Vf1WdrxYV2J-302" value="Port #1" style="rounded=0;whiteSpace=wrap;html=1;strokeColor=none;strokeWidth=1;align=left;verticalAlign=middle;fontFamily=Helvetica;fontSize=12;fontColor=default;fillColor=none;fontStyle=1" parent="1" vertex="1">
          <mxGeometry x="910" y="2340" width="50" height="20" as="geometry" />
        </mxCell>
        <mxCell id="XcMSc3Dv5Vf1WdrxYV2J-303" value="Port #N" style="rounded=0;whiteSpace=wrap;html=1;strokeColor=none;strokeWidth=1;align=left;verticalAlign=middle;fontFamily=Helvetica;fontSize=12;fontColor=default;fillColor=none;fontStyle=1" parent="1" vertex="1">
          <mxGeometry x="910" y="2410" width="50" height="20" as="geometry" />
        </mxCell>
        <mxCell id="XcMSc3Dv5Vf1WdrxYV2J-304" value="Port #16" style="rounded=0;whiteSpace=wrap;html=1;strokeColor=none;strokeWidth=1;align=center;verticalAlign=middle;fontFamily=Helvetica;fontSize=12;fontColor=default;fillColor=none;fontStyle=1" parent="1" vertex="1">
          <mxGeometry x="910" y="2520" width="50" height="20" as="geometry" />
        </mxCell>
        <mxCell id="XcMSc3Dv5Vf1WdrxYV2J-305" value="SRAM请求指示码&lt;br&gt;&lt;span style=&quot;&quot;&gt;&lt;font style=&quot;font-size: 11px;&quot;&gt;(各端口是否正在请求)&lt;/font&gt;&lt;/span&gt;" style="rounded=1;whiteSpace=wrap;html=1;strokeColor=none;strokeWidth=1;align=center;verticalAlign=middle;fontFamily=Helvetica;fontSize=12;fontColor=default;fillColor=none;fontStyle=1" parent="1" vertex="1">
          <mxGeometry x="835" y="2550" width="110" height="40" as="geometry" />
        </mxCell>
        <mxCell id="XcMSc3Dv5Vf1WdrxYV2J-306" value="通过AND运算&lt;br&gt;得到WRR调度&lt;br&gt;当前回合可轮询位置" style="rounded=0;whiteSpace=wrap;html=1;strokeColor=none;strokeWidth=1;align=left;verticalAlign=middle;fontFamily=Helvetica;fontSize=12;fontColor=default;fillColor=none;fontStyle=1" parent="1" vertex="1">
          <mxGeometry x="580" y="2390" width="120" height="60" as="geometry" />
        </mxCell>
        <mxCell id="XcMSc3Dv5Vf1WdrxYV2J-378" value="" style="group;fontStyle=1" parent="1" vertex="1" connectable="0">
          <mxGeometry x="290" y="2660" width="670" height="290" as="geometry" />
        </mxCell>
        <mxCell id="XcMSc3Dv5Vf1WdrxYV2J-308" value="" style="group;fontStyle=1" parent="XcMSc3Dv5Vf1WdrxYV2J-378" vertex="1" connectable="0">
          <mxGeometry x="90" width="470" height="60" as="geometry" />
        </mxCell>
        <mxCell id="XcMSc3Dv5Vf1WdrxYV2J-309" value="" style="group;fontStyle=1" parent="XcMSc3Dv5Vf1WdrxYV2J-308" vertex="1" connectable="0">
          <mxGeometry x="80" y="40" width="160" height="20" as="geometry" />
        </mxCell>
        <mxCell id="XcMSc3Dv5Vf1WdrxYV2J-310" value="" style="rounded=0;whiteSpace=wrap;html=1;strokeColor=default;strokeWidth=1;align=center;verticalAlign=middle;fontFamily=Helvetica;fontSize=12;fontColor=default;fillColor=default;fontStyle=1" parent="XcMSc3Dv5Vf1WdrxYV2J-309" vertex="1">
          <mxGeometry width="160" height="20" as="geometry" />
        </mxCell>
        <mxCell id="XcMSc3Dv5Vf1WdrxYV2J-311" value="" style="rounded=0;whiteSpace=wrap;html=1;strokeColor=default;strokeWidth=1;align=center;verticalAlign=middle;fontFamily=Helvetica;fontSize=12;fontColor=default;fillColor=#FF3333;fontStyle=1" parent="XcMSc3Dv5Vf1WdrxYV2J-309" vertex="1">
          <mxGeometry width="20" height="20" as="geometry" />
        </mxCell>
        <mxCell id="XcMSc3Dv5Vf1WdrxYV2J-312" value="" style="rounded=0;whiteSpace=wrap;html=1;strokeColor=default;strokeWidth=1;align=center;verticalAlign=middle;fontFamily=Helvetica;fontSize=12;fontColor=default;fillColor=#FFFFFF;fontStyle=1" parent="XcMSc3Dv5Vf1WdrxYV2J-309" vertex="1">
          <mxGeometry x="20" width="20" height="20" as="geometry" />
        </mxCell>
        <mxCell id="XcMSc3Dv5Vf1WdrxYV2J-313" value="" style="rounded=0;whiteSpace=wrap;html=1;strokeColor=default;strokeWidth=1;align=center;verticalAlign=middle;fontFamily=Helvetica;fontSize=12;fontColor=default;fillColor=default;fontStyle=1" parent="XcMSc3Dv5Vf1WdrxYV2J-309" vertex="1">
          <mxGeometry x="40" width="20" height="20" as="geometry" />
        </mxCell>
        <mxCell id="XcMSc3Dv5Vf1WdrxYV2J-314" value="" style="rounded=0;whiteSpace=wrap;html=1;strokeColor=default;strokeWidth=1;align=center;verticalAlign=middle;fontFamily=Helvetica;fontSize=12;fontColor=default;fillColor=#FFFFFF;fontStyle=1" parent="XcMSc3Dv5Vf1WdrxYV2J-309" vertex="1">
          <mxGeometry x="60" width="20" height="20" as="geometry" />
        </mxCell>
        <mxCell id="XcMSc3Dv5Vf1WdrxYV2J-315" value="" style="rounded=0;whiteSpace=wrap;html=1;strokeColor=default;strokeWidth=1;align=center;verticalAlign=middle;fontFamily=Helvetica;fontSize=12;fontColor=default;fillColor=default;fontStyle=1" parent="XcMSc3Dv5Vf1WdrxYV2J-309" vertex="1">
          <mxGeometry x="80" width="20" height="20" as="geometry" />
        </mxCell>
        <mxCell id="XcMSc3Dv5Vf1WdrxYV2J-316" value="" style="rounded=0;whiteSpace=wrap;html=1;strokeColor=default;strokeWidth=1;align=center;verticalAlign=middle;fontFamily=Helvetica;fontSize=12;fontColor=default;fillColor=default;fontStyle=1" parent="XcMSc3Dv5Vf1WdrxYV2J-309" vertex="1">
          <mxGeometry x="100" width="20" height="20" as="geometry" />
        </mxCell>
        <mxCell id="XcMSc3Dv5Vf1WdrxYV2J-317" value="" style="rounded=0;whiteSpace=wrap;html=1;strokeColor=default;strokeWidth=1;align=center;verticalAlign=middle;fontFamily=Helvetica;fontSize=12;fontColor=default;fillColor=#FF3333;fontStyle=1" parent="XcMSc3Dv5Vf1WdrxYV2J-309" vertex="1">
          <mxGeometry x="120" width="20" height="20" as="geometry" />
        </mxCell>
        <mxCell id="XcMSc3Dv5Vf1WdrxYV2J-318" value="" style="rounded=0;whiteSpace=wrap;html=1;strokeColor=default;strokeWidth=1;align=center;verticalAlign=middle;fontFamily=Helvetica;fontSize=12;fontColor=default;fillColor=default;fontStyle=1" parent="XcMSc3Dv5Vf1WdrxYV2J-309" vertex="1">
          <mxGeometry x="140" width="20" height="20" as="geometry" />
        </mxCell>
        <mxCell id="XcMSc3Dv5Vf1WdrxYV2J-319" value="01111000" style="rounded=1;whiteSpace=wrap;html=1;shadow=0;labelBackgroundColor=none;strokeWidth=1;fontFamily=Verdana;fontSize=8;align=center;fontStyle=1" parent="XcMSc3Dv5Vf1WdrxYV2J-308" vertex="1">
          <mxGeometry width="60" height="20" as="geometry" />
        </mxCell>
        <mxCell id="XcMSc3Dv5Vf1WdrxYV2J-320" value="" style="group;fontStyle=1" parent="XcMSc3Dv5Vf1WdrxYV2J-308" vertex="1" connectable="0">
          <mxGeometry x="80" width="160" height="20" as="geometry" />
        </mxCell>
        <mxCell id="XcMSc3Dv5Vf1WdrxYV2J-321" value="" style="rounded=0;whiteSpace=wrap;html=1;strokeColor=default;strokeWidth=1;align=center;verticalAlign=middle;fontFamily=Helvetica;fontSize=12;fontColor=default;fillColor=default;fontStyle=1" parent="XcMSc3Dv5Vf1WdrxYV2J-320" vertex="1">
          <mxGeometry width="160" height="20" as="geometry" />
        </mxCell>
        <mxCell id="XcMSc3Dv5Vf1WdrxYV2J-322" value="" style="rounded=0;whiteSpace=wrap;html=1;strokeColor=default;strokeWidth=1;align=center;verticalAlign=middle;fontFamily=Helvetica;fontSize=12;fontColor=default;fillColor=#000000;fontStyle=1" parent="XcMSc3Dv5Vf1WdrxYV2J-320" vertex="1">
          <mxGeometry width="20" height="20" as="geometry" />
        </mxCell>
        <mxCell id="XcMSc3Dv5Vf1WdrxYV2J-323" value="" style="rounded=0;whiteSpace=wrap;html=1;strokeColor=default;strokeWidth=1;align=center;verticalAlign=middle;fontFamily=Helvetica;fontSize=12;fontColor=default;fillColor=default;fontStyle=1" parent="XcMSc3Dv5Vf1WdrxYV2J-320" vertex="1">
          <mxGeometry x="20" width="20" height="20" as="geometry" />
        </mxCell>
        <mxCell id="XcMSc3Dv5Vf1WdrxYV2J-324" value="" style="rounded=0;whiteSpace=wrap;html=1;strokeColor=default;strokeWidth=1;align=center;verticalAlign=middle;fontFamily=Helvetica;fontSize=12;fontColor=default;fillColor=default;fontStyle=1" parent="XcMSc3Dv5Vf1WdrxYV2J-320" vertex="1">
          <mxGeometry x="40" width="20" height="20" as="geometry" />
        </mxCell>
        <mxCell id="XcMSc3Dv5Vf1WdrxYV2J-325" value="" style="rounded=0;whiteSpace=wrap;html=1;strokeColor=default;strokeWidth=1;align=center;verticalAlign=middle;fontFamily=Helvetica;fontSize=12;fontColor=default;fillColor=default;fontStyle=1" parent="XcMSc3Dv5Vf1WdrxYV2J-320" vertex="1">
          <mxGeometry x="60" width="20" height="20" as="geometry" />
        </mxCell>
        <mxCell id="XcMSc3Dv5Vf1WdrxYV2J-326" value="" style="rounded=0;whiteSpace=wrap;html=1;strokeColor=default;strokeWidth=1;align=center;verticalAlign=middle;fontFamily=Helvetica;fontSize=12;fontColor=default;fillColor=default;fontStyle=1" parent="XcMSc3Dv5Vf1WdrxYV2J-320" vertex="1">
          <mxGeometry x="80" width="20" height="20" as="geometry" />
        </mxCell>
        <mxCell id="XcMSc3Dv5Vf1WdrxYV2J-327" value="" style="rounded=0;whiteSpace=wrap;html=1;strokeColor=default;strokeWidth=1;align=center;verticalAlign=middle;fontFamily=Helvetica;fontSize=12;fontColor=default;fillColor=#000000;fontStyle=1" parent="XcMSc3Dv5Vf1WdrxYV2J-320" vertex="1">
          <mxGeometry x="100" width="20" height="20" as="geometry" />
        </mxCell>
        <mxCell id="XcMSc3Dv5Vf1WdrxYV2J-328" value="" style="rounded=0;whiteSpace=wrap;html=1;strokeColor=default;strokeWidth=1;align=center;verticalAlign=middle;fontFamily=Helvetica;fontSize=12;fontColor=default;fillColor=#000000;fontStyle=1" parent="XcMSc3Dv5Vf1WdrxYV2J-320" vertex="1">
          <mxGeometry x="120" width="20" height="20" as="geometry" />
        </mxCell>
        <mxCell id="XcMSc3Dv5Vf1WdrxYV2J-329" value="" style="rounded=0;whiteSpace=wrap;html=1;strokeColor=default;strokeWidth=1;align=center;verticalAlign=middle;fontFamily=Helvetica;fontSize=12;fontColor=default;fillColor=#000000;fontStyle=1" parent="XcMSc3Dv5Vf1WdrxYV2J-320" vertex="1">
          <mxGeometry x="140" width="20" height="20" as="geometry" />
        </mxCell>
        <mxCell id="XcMSc3Dv5Vf1WdrxYV2J-330" value="AND" style="shape=or;whiteSpace=wrap;html=1;strokeColor=default;strokeWidth=1;align=center;verticalAlign=middle;fontFamily=Helvetica;fontSize=12;fontColor=default;fillColor=default;fontStyle=1" parent="XcMSc3Dv5Vf1WdrxYV2J-308" vertex="1">
          <mxGeometry x="250" width="50" height="60" as="geometry" />
        </mxCell>
        <mxCell id="XcMSc3Dv5Vf1WdrxYV2J-331" value="" style="group;fontStyle=1" parent="XcMSc3Dv5Vf1WdrxYV2J-308" vertex="1" connectable="0">
          <mxGeometry x="310" y="20" width="160" height="40" as="geometry" />
        </mxCell>
        <mxCell id="XcMSc3Dv5Vf1WdrxYV2J-332" value="" style="rounded=0;whiteSpace=wrap;html=1;strokeColor=default;strokeWidth=1;align=center;verticalAlign=middle;fontFamily=Helvetica;fontSize=12;fontColor=default;fillColor=default;fontStyle=1" parent="XcMSc3Dv5Vf1WdrxYV2J-331" vertex="1">
          <mxGeometry width="160" height="20" as="geometry" />
        </mxCell>
        <mxCell id="XcMSc3Dv5Vf1WdrxYV2J-333" value="" style="rounded=0;whiteSpace=wrap;html=1;strokeColor=#000000;strokeWidth=1;align=center;verticalAlign=middle;fontFamily=Helvetica;fontSize=12;fontColor=default;fillColor=#000000;fontStyle=1" parent="XcMSc3Dv5Vf1WdrxYV2J-331" vertex="1">
          <mxGeometry width="20" height="20" as="geometry" />
        </mxCell>
        <mxCell id="XcMSc3Dv5Vf1WdrxYV2J-334" value="" style="rounded=0;whiteSpace=wrap;html=1;strokeColor=default;strokeWidth=1;align=center;verticalAlign=middle;fontFamily=Helvetica;fontSize=12;fontColor=default;fillColor=#FFFFFF;fontStyle=1" parent="XcMSc3Dv5Vf1WdrxYV2J-331" vertex="1">
          <mxGeometry x="20" width="20" height="20" as="geometry" />
        </mxCell>
        <mxCell id="XcMSc3Dv5Vf1WdrxYV2J-335" value="" style="rounded=0;whiteSpace=wrap;html=1;strokeColor=default;strokeWidth=1;align=center;verticalAlign=middle;fontFamily=Helvetica;fontSize=12;fontColor=default;fillColor=none;fontStyle=1" parent="XcMSc3Dv5Vf1WdrxYV2J-331" vertex="1">
          <mxGeometry x="40" width="20" height="20" as="geometry" />
        </mxCell>
        <mxCell id="XcMSc3Dv5Vf1WdrxYV2J-336" value="" style="rounded=0;whiteSpace=wrap;html=1;strokeColor=default;strokeWidth=1;align=center;verticalAlign=middle;fontFamily=Helvetica;fontSize=12;fontColor=default;fillColor=#FFFFFF;fontStyle=1" parent="XcMSc3Dv5Vf1WdrxYV2J-331" vertex="1">
          <mxGeometry x="60" width="20" height="20" as="geometry" />
        </mxCell>
        <mxCell id="XcMSc3Dv5Vf1WdrxYV2J-337" value="" style="rounded=0;whiteSpace=wrap;html=1;strokeColor=#000000;strokeWidth=1;align=center;verticalAlign=middle;fontFamily=Helvetica;fontSize=12;fontColor=default;fillColor=#000000;fontStyle=1" parent="XcMSc3Dv5Vf1WdrxYV2J-331" vertex="1">
          <mxGeometry x="80" width="20" height="20" as="geometry" />
        </mxCell>
        <mxCell id="XcMSc3Dv5Vf1WdrxYV2J-338" value="" style="rounded=0;whiteSpace=wrap;html=1;strokeColor=#000000;strokeWidth=1;align=center;verticalAlign=middle;fontFamily=Helvetica;fontSize=12;fontColor=default;fillColor=#000000;fontStyle=1" parent="XcMSc3Dv5Vf1WdrxYV2J-331" vertex="1">
          <mxGeometry x="100" width="20" height="20" as="geometry" />
        </mxCell>
        <mxCell id="XcMSc3Dv5Vf1WdrxYV2J-339" value="" style="rounded=0;whiteSpace=wrap;html=1;strokeColor=#000000;strokeWidth=1;align=center;verticalAlign=middle;fontFamily=Helvetica;fontSize=12;fontColor=default;fillColor=#000000;fontStyle=1" parent="XcMSc3Dv5Vf1WdrxYV2J-331" vertex="1">
          <mxGeometry x="120" width="20" height="20" as="geometry" />
        </mxCell>
        <mxCell id="XcMSc3Dv5Vf1WdrxYV2J-340" value="" style="rounded=0;whiteSpace=wrap;html=1;strokeColor=#000000;strokeWidth=1;align=center;verticalAlign=middle;fontFamily=Helvetica;fontSize=12;fontColor=default;fillColor=#000000;fontStyle=1" parent="XcMSc3Dv5Vf1WdrxYV2J-331" vertex="1">
          <mxGeometry x="140" width="20" height="20" as="geometry" />
        </mxCell>
        <mxCell id="XcMSc3Dv5Vf1WdrxYV2J-396" value="10000010" style="rounded=1;whiteSpace=wrap;html=1;shadow=0;labelBackgroundColor=none;strokeWidth=1;fontFamily=Verdana;fontSize=8;align=center;fontStyle=1" parent="XcMSc3Dv5Vf1WdrxYV2J-308" vertex="1">
          <mxGeometry y="40" width="60" height="20" as="geometry" />
        </mxCell>
        <mxCell id="XcMSc3Dv5Vf1WdrxYV2J-343" value="" style="group;fontStyle=1" parent="XcMSc3Dv5Vf1WdrxYV2J-378" vertex="1" connectable="0">
          <mxGeometry y="80" width="110" height="160" as="geometry" />
        </mxCell>
        <mxCell id="XcMSc3Dv5Vf1WdrxYV2J-344" value="" style="rounded=0;whiteSpace=wrap;html=1;strokeColor=default;strokeWidth=1;align=center;verticalAlign=middle;fontFamily=Helvetica;fontSize=12;fontColor=default;fillColor=default;rotation=90;fontStyle=1" parent="XcMSc3Dv5Vf1WdrxYV2J-343" vertex="1">
          <mxGeometry x="-25" y="25" width="160" height="110" as="geometry" />
        </mxCell>
        <mxCell id="XcMSc3Dv5Vf1WdrxYV2J-345" value="~queue_0_empty" style="rounded=0;whiteSpace=wrap;html=1;strokeColor=default;strokeWidth=1;align=center;verticalAlign=middle;fontFamily=Helvetica;fontSize=10;fontColor=default;fillColor=default;fontStyle=1" parent="XcMSc3Dv5Vf1WdrxYV2J-343" vertex="1">
          <mxGeometry width="110" height="20" as="geometry" />
        </mxCell>
        <mxCell id="XcMSc3Dv5Vf1WdrxYV2J-346" value="&lt;span style=&quot;font-size: 10px;&quot;&gt;~queue_1_empty&lt;/span&gt;" style="rounded=0;whiteSpace=wrap;html=1;strokeColor=default;strokeWidth=1;align=center;verticalAlign=middle;fontFamily=Helvetica;fontSize=12;fontColor=default;fillColor=default;fontStyle=1" parent="XcMSc3Dv5Vf1WdrxYV2J-343" vertex="1">
          <mxGeometry y="20" width="110" height="20" as="geometry" />
        </mxCell>
        <mxCell id="XcMSc3Dv5Vf1WdrxYV2J-347" value="&lt;span style=&quot;font-size: 10px;&quot;&gt;~queue_2_empty&lt;/span&gt;" style="rounded=0;whiteSpace=wrap;html=1;strokeColor=default;strokeWidth=1;align=center;verticalAlign=middle;fontFamily=Helvetica;fontSize=12;fontColor=default;fillColor=default;fontStyle=1" parent="XcMSc3Dv5Vf1WdrxYV2J-343" vertex="1">
          <mxGeometry y="40" width="110" height="20" as="geometry" />
        </mxCell>
        <mxCell id="XcMSc3Dv5Vf1WdrxYV2J-348" value="&lt;span style=&quot;font-size: 10px;&quot;&gt;~queue_3_empty&lt;/span&gt;" style="rounded=0;whiteSpace=wrap;html=1;strokeColor=default;strokeWidth=1;align=center;verticalAlign=middle;fontFamily=Helvetica;fontSize=12;fontColor=default;fillColor=default;fontStyle=1" parent="XcMSc3Dv5Vf1WdrxYV2J-343" vertex="1">
          <mxGeometry y="60" width="110" height="20" as="geometry" />
        </mxCell>
        <mxCell id="XcMSc3Dv5Vf1WdrxYV2J-349" value="&lt;span style=&quot;font-size: 10px;&quot;&gt;~queue_4_empty&lt;/span&gt;" style="rounded=0;whiteSpace=wrap;html=1;strokeColor=default;strokeWidth=1;align=center;verticalAlign=middle;fontFamily=Helvetica;fontSize=12;fontColor=default;fillColor=default;fontStyle=1" parent="XcMSc3Dv5Vf1WdrxYV2J-343" vertex="1">
          <mxGeometry y="80" width="110" height="20" as="geometry" />
        </mxCell>
        <mxCell id="XcMSc3Dv5Vf1WdrxYV2J-350" value="&lt;span style=&quot;font-size: 10px;&quot;&gt;~queue_5_empty&lt;/span&gt;" style="rounded=0;whiteSpace=wrap;html=1;strokeColor=default;strokeWidth=1;align=center;verticalAlign=middle;fontFamily=Helvetica;fontSize=12;fontColor=default;fillColor=default;fontStyle=1" parent="XcMSc3Dv5Vf1WdrxYV2J-343" vertex="1">
          <mxGeometry y="100" width="110" height="20" as="geometry" />
        </mxCell>
        <mxCell id="XcMSc3Dv5Vf1WdrxYV2J-351" value="&lt;span style=&quot;font-size: 10px;&quot;&gt;~queue_6_empty&lt;/span&gt;" style="rounded=0;whiteSpace=wrap;html=1;strokeColor=default;strokeWidth=1;align=center;verticalAlign=middle;fontFamily=Helvetica;fontSize=12;fontColor=default;fillColor=default;fontStyle=1" parent="XcMSc3Dv5Vf1WdrxYV2J-343" vertex="1">
          <mxGeometry y="120" width="110" height="20" as="geometry" />
        </mxCell>
        <mxCell id="XcMSc3Dv5Vf1WdrxYV2J-352" value="&lt;span style=&quot;font-size: 10px;&quot;&gt;~queue_7_empty&lt;/span&gt;" style="rounded=0;whiteSpace=wrap;html=1;strokeColor=default;strokeWidth=1;align=center;verticalAlign=middle;fontFamily=Helvetica;fontSize=12;fontColor=default;fillColor=default;fontStyle=1" parent="XcMSc3Dv5Vf1WdrxYV2J-343" vertex="1">
          <mxGeometry y="140" width="110" height="20" as="geometry" />
        </mxCell>
        <mxCell id="XcMSc3Dv5Vf1WdrxYV2J-353" value="" style="group;rotation=90;fontStyle=1" parent="XcMSc3Dv5Vf1WdrxYV2J-378" vertex="1" connectable="0">
          <mxGeometry x="60" y="150" width="160" height="20" as="geometry" />
        </mxCell>
        <mxCell id="XcMSc3Dv5Vf1WdrxYV2J-354" value="" style="rounded=0;whiteSpace=wrap;html=1;strokeColor=default;strokeWidth=1;align=center;verticalAlign=middle;fontFamily=Helvetica;fontSize=12;fontColor=default;fillColor=default;rotation=90;fontStyle=1" parent="XcMSc3Dv5Vf1WdrxYV2J-353" vertex="1">
          <mxGeometry width="160" height="20" as="geometry" />
        </mxCell>
        <mxCell id="XcMSc3Dv5Vf1WdrxYV2J-355" value="" style="rounded=0;whiteSpace=wrap;html=1;strokeColor=default;strokeWidth=1;align=center;verticalAlign=middle;fontFamily=Helvetica;fontSize=12;fontColor=default;fillColor=#FF3333;rotation=90;fontStyle=1" parent="XcMSc3Dv5Vf1WdrxYV2J-353" vertex="1">
          <mxGeometry x="70" y="-70" width="20" height="20" as="geometry" />
        </mxCell>
        <mxCell id="XcMSc3Dv5Vf1WdrxYV2J-356" value="" style="rounded=0;whiteSpace=wrap;html=1;strokeColor=default;strokeWidth=1;align=center;verticalAlign=middle;fontFamily=Helvetica;fontSize=12;fontColor=default;fillColor=#FFFFFF;rotation=90;fontStyle=1" parent="XcMSc3Dv5Vf1WdrxYV2J-353" vertex="1">
          <mxGeometry x="70" y="-50" width="20" height="20" as="geometry" />
        </mxCell>
        <mxCell id="XcMSc3Dv5Vf1WdrxYV2J-357" value="" style="rounded=0;whiteSpace=wrap;html=1;strokeColor=default;strokeWidth=1;align=center;verticalAlign=middle;fontFamily=Helvetica;fontSize=12;fontColor=default;fillColor=default;rotation=90;fontStyle=1" parent="XcMSc3Dv5Vf1WdrxYV2J-353" vertex="1">
          <mxGeometry x="70" y="-30" width="20" height="20" as="geometry" />
        </mxCell>
        <mxCell id="XcMSc3Dv5Vf1WdrxYV2J-358" value="" style="rounded=0;whiteSpace=wrap;html=1;strokeColor=default;strokeWidth=1;align=center;verticalAlign=middle;fontFamily=Helvetica;fontSize=12;fontColor=default;fillColor=#FFFFFF;rotation=90;fontStyle=1" parent="XcMSc3Dv5Vf1WdrxYV2J-353" vertex="1">
          <mxGeometry x="70" y="-10" width="20" height="20" as="geometry" />
        </mxCell>
        <mxCell id="XcMSc3Dv5Vf1WdrxYV2J-359" value="" style="rounded=0;whiteSpace=wrap;html=1;strokeColor=default;strokeWidth=1;align=center;verticalAlign=middle;fontFamily=Helvetica;fontSize=12;fontColor=default;fillColor=default;rotation=90;fontStyle=1" parent="XcMSc3Dv5Vf1WdrxYV2J-353" vertex="1">
          <mxGeometry x="70" y="10" width="20" height="20" as="geometry" />
        </mxCell>
        <mxCell id="XcMSc3Dv5Vf1WdrxYV2J-360" value="" style="rounded=0;whiteSpace=wrap;html=1;strokeColor=default;strokeWidth=1;align=center;verticalAlign=middle;fontFamily=Helvetica;fontSize=12;fontColor=default;fillColor=default;rotation=90;fontStyle=1" parent="XcMSc3Dv5Vf1WdrxYV2J-353" vertex="1">
          <mxGeometry x="70" y="30" width="20" height="20" as="geometry" />
        </mxCell>
        <mxCell id="XcMSc3Dv5Vf1WdrxYV2J-361" value="" style="rounded=0;whiteSpace=wrap;html=1;strokeColor=default;strokeWidth=1;align=center;verticalAlign=middle;fontFamily=Helvetica;fontSize=12;fontColor=default;fillColor=#FF3333;rotation=90;fontStyle=1" parent="XcMSc3Dv5Vf1WdrxYV2J-353" vertex="1">
          <mxGeometry x="70" y="50" width="20" height="20" as="geometry" />
        </mxCell>
        <mxCell id="XcMSc3Dv5Vf1WdrxYV2J-362" value="" style="rounded=0;whiteSpace=wrap;html=1;strokeColor=default;strokeWidth=1;align=center;verticalAlign=middle;fontFamily=Helvetica;fontSize=12;fontColor=default;fillColor=default;rotation=90;fontStyle=1" parent="XcMSc3Dv5Vf1WdrxYV2J-353" vertex="1">
          <mxGeometry x="70" y="70" width="20" height="20" as="geometry" />
        </mxCell>
        <mxCell id="XcMSc3Dv5Vf1WdrxYV2J-363" value="" style="endArrow=blockThin;html=1;rounded=0;fontFamily=Helvetica;fontSize=12;fontColor=default;exitX=0;exitY=0;exitDx=0;exitDy=0;entryX=1;entryY=1;entryDx=0;entryDy=0;endFill=1;fontStyle=1" parent="XcMSc3Dv5Vf1WdrxYV2J-378" source="XcMSc3Dv5Vf1WdrxYV2J-359" target="XcMSc3Dv5Vf1WdrxYV2J-314" edge="1">
          <mxGeometry width="50" height="50" relative="1" as="geometry">
            <mxPoint x="165" y="160" as="sourcePoint" />
            <mxPoint x="215" y="110" as="targetPoint" />
            <Array as="points">
              <mxPoint x="250" y="160" />
            </Array>
          </mxGeometry>
        </mxCell>
        <mxCell id="XcMSc3Dv5Vf1WdrxYV2J-364" value="端口空闲指示码&lt;br&gt;&lt;span style=&quot;&quot;&gt;&lt;font style=&quot;font-size: 11px;&quot;&gt;(各队列是否有数据)&lt;/font&gt;&lt;/span&gt;" style="rounded=1;whiteSpace=wrap;html=1;strokeColor=none;strokeWidth=1;align=center;verticalAlign=middle;fontFamily=Helvetica;fontSize=12;fontColor=default;fillColor=none;fontStyle=1" parent="XcMSc3Dv5Vf1WdrxYV2J-378" vertex="1">
          <mxGeometry y="250" width="110" height="40" as="geometry" />
        </mxCell>
        <mxCell id="XcMSc3Dv5Vf1WdrxYV2J-365" value="" style="rounded=0;whiteSpace=wrap;html=1;strokeColor=default;strokeWidth=1;align=center;verticalAlign=middle;fontFamily=Helvetica;fontSize=12;fontColor=default;fillColor=default;fontStyle=1" parent="XcMSc3Dv5Vf1WdrxYV2J-378" vertex="1">
          <mxGeometry x="590" y="20" width="20" height="220" as="geometry" />
        </mxCell>
        <mxCell id="XcMSc3Dv5Vf1WdrxYV2J-366" value="" style="rounded=0;whiteSpace=wrap;html=1;strokeColor=default;strokeWidth=1;align=center;verticalAlign=middle;fontFamily=Helvetica;fontSize=12;fontColor=default;fillColor=#FF8000;fontStyle=1" parent="XcMSc3Dv5Vf1WdrxYV2J-378" vertex="1">
          <mxGeometry x="590" y="150" width="20" height="20" as="geometry" />
        </mxCell>
        <mxCell id="XcMSc3Dv5Vf1WdrxYV2J-367" value="" style="rounded=0;whiteSpace=wrap;html=1;strokeColor=default;strokeWidth=1;align=center;verticalAlign=middle;fontFamily=Helvetica;fontSize=12;fontColor=default;fillColor=default;fontStyle=1" parent="XcMSc3Dv5Vf1WdrxYV2J-378" vertex="1">
          <mxGeometry x="590" y="20" width="20" height="20" as="geometry" />
        </mxCell>
        <mxCell id="XcMSc3Dv5Vf1WdrxYV2J-368" value="" style="rounded=0;whiteSpace=wrap;html=1;strokeColor=default;strokeWidth=1;align=center;verticalAlign=middle;fontFamily=Helvetica;fontSize=12;fontColor=default;fillColor=default;fontStyle=1" parent="XcMSc3Dv5Vf1WdrxYV2J-378" vertex="1">
          <mxGeometry x="590" y="40" width="20" height="20" as="geometry" />
        </mxCell>
        <mxCell id="XcMSc3Dv5Vf1WdrxYV2J-369" value="..." style="rounded=0;whiteSpace=wrap;html=1;strokeColor=default;strokeWidth=1;align=center;verticalAlign=middle;fontFamily=Helvetica;fontSize=12;fontColor=default;fillColor=default;fontStyle=1" parent="XcMSc3Dv5Vf1WdrxYV2J-378" vertex="1">
          <mxGeometry x="590" y="60" width="20" height="90" as="geometry" />
        </mxCell>
        <mxCell id="XcMSc3Dv5Vf1WdrxYV2J-370" value="..." style="rounded=0;whiteSpace=wrap;html=1;strokeColor=default;strokeWidth=1;align=center;verticalAlign=middle;fontFamily=Helvetica;fontSize=12;fontColor=default;fillColor=default;fontStyle=1" parent="XcMSc3Dv5Vf1WdrxYV2J-378" vertex="1">
          <mxGeometry x="590" y="170" width="20" height="50" as="geometry" />
        </mxCell>
        <mxCell id="XcMSc3Dv5Vf1WdrxYV2J-371" value="" style="rounded=0;whiteSpace=wrap;html=1;strokeColor=default;strokeWidth=1;align=center;verticalAlign=middle;fontFamily=Helvetica;fontSize=12;fontColor=default;fillColor=default;fontStyle=1" parent="XcMSc3Dv5Vf1WdrxYV2J-378" vertex="1">
          <mxGeometry x="590" y="220" width="20" height="20" as="geometry" />
        </mxCell>
        <mxCell id="XcMSc3Dv5Vf1WdrxYV2J-372" value="Port #0" style="rounded=0;whiteSpace=wrap;html=1;strokeColor=none;strokeWidth=1;align=left;verticalAlign=middle;fontFamily=Helvetica;fontSize=12;fontColor=default;fillColor=none;fontStyle=1" parent="XcMSc3Dv5Vf1WdrxYV2J-378" vertex="1">
          <mxGeometry x="620" y="20" width="50" height="20" as="geometry" />
        </mxCell>
        <mxCell id="XcMSc3Dv5Vf1WdrxYV2J-373" value="Port #1" style="rounded=0;whiteSpace=wrap;html=1;strokeColor=none;strokeWidth=1;align=left;verticalAlign=middle;fontFamily=Helvetica;fontSize=12;fontColor=default;fillColor=none;fontStyle=1" parent="XcMSc3Dv5Vf1WdrxYV2J-378" vertex="1">
          <mxGeometry x="620" y="40" width="50" height="20" as="geometry" />
        </mxCell>
        <mxCell id="XcMSc3Dv5Vf1WdrxYV2J-374" value="Port #M" style="rounded=0;whiteSpace=wrap;html=1;strokeColor=none;strokeWidth=1;align=left;verticalAlign=middle;fontFamily=Helvetica;fontSize=12;fontColor=default;fillColor=none;fontStyle=1" parent="XcMSc3Dv5Vf1WdrxYV2J-378" vertex="1">
          <mxGeometry x="620" y="150" width="50" height="20" as="geometry" />
        </mxCell>
        <mxCell id="XcMSc3Dv5Vf1WdrxYV2J-375" value="Port #16" style="rounded=0;whiteSpace=wrap;html=1;strokeColor=none;strokeWidth=1;align=center;verticalAlign=middle;fontFamily=Helvetica;fontSize=12;fontColor=default;fillColor=none;fontStyle=1" parent="XcMSc3Dv5Vf1WdrxYV2J-378" vertex="1">
          <mxGeometry x="620" y="220" width="50" height="20" as="geometry" />
        </mxCell>
        <mxCell id="XcMSc3Dv5Vf1WdrxYV2J-376" value="SRAM请求指示码&lt;br&gt;&lt;span style=&quot;&quot;&gt;&lt;font style=&quot;font-size: 11px;&quot;&gt;(各端口是否正在请求)&lt;/font&gt;&lt;/span&gt;" style="rounded=1;whiteSpace=wrap;html=1;strokeColor=none;strokeWidth=1;align=center;verticalAlign=middle;fontFamily=Helvetica;fontSize=12;fontColor=default;fillColor=none;fontStyle=1" parent="XcMSc3Dv5Vf1WdrxYV2J-378" vertex="1">
          <mxGeometry x="545" y="250" width="110" height="40" as="geometry" />
        </mxCell>
        <mxCell id="XcMSc3Dv5Vf1WdrxYV2J-377" value="若可读取队列数为0&lt;br&gt;则直接通过端口空闲指示码&lt;br&gt;获取应读取的队列" style="rounded=0;whiteSpace=wrap;html=1;strokeColor=none;strokeWidth=1;align=left;verticalAlign=middle;fontFamily=Helvetica;fontSize=12;fontColor=default;fillColor=none;fontStyle=1" parent="XcMSc3Dv5Vf1WdrxYV2J-378" vertex="1">
          <mxGeometry x="200" y="180" width="150" height="60" as="geometry" />
        </mxCell>
        <mxCell id="XcMSc3Dv5Vf1WdrxYV2J-383" value="" style="group;fontStyle=1" parent="XcMSc3Dv5Vf1WdrxYV2J-378" vertex="1" connectable="0">
          <mxGeometry x="400" y="70" width="160" height="20" as="geometry" />
        </mxCell>
        <mxCell id="XcMSc3Dv5Vf1WdrxYV2J-384" value="" style="rounded=0;whiteSpace=wrap;html=1;strokeColor=default;strokeWidth=1;align=center;verticalAlign=middle;fontFamily=Helvetica;fontSize=12;fontColor=default;fillColor=default;fontStyle=1" parent="XcMSc3Dv5Vf1WdrxYV2J-383" vertex="1">
          <mxGeometry width="160" height="20" as="geometry" />
        </mxCell>
        <mxCell id="XcMSc3Dv5Vf1WdrxYV2J-385" value="" style="rounded=0;whiteSpace=wrap;html=1;strokeColor=default;strokeWidth=1;align=center;verticalAlign=middle;fontFamily=Helvetica;fontSize=12;fontColor=default;fillColor=#FF3333;fontStyle=1" parent="XcMSc3Dv5Vf1WdrxYV2J-383" vertex="1">
          <mxGeometry width="20" height="20" as="geometry" />
        </mxCell>
        <mxCell id="XcMSc3Dv5Vf1WdrxYV2J-386" value="" style="rounded=0;whiteSpace=wrap;html=1;strokeColor=default;strokeWidth=1;align=center;verticalAlign=middle;fontFamily=Helvetica;fontSize=12;fontColor=default;fillColor=#FFFFFF;fontStyle=1" parent="XcMSc3Dv5Vf1WdrxYV2J-383" vertex="1">
          <mxGeometry x="20" width="20" height="20" as="geometry" />
        </mxCell>
        <mxCell id="XcMSc3Dv5Vf1WdrxYV2J-387" value="" style="rounded=0;whiteSpace=wrap;html=1;strokeColor=default;strokeWidth=1;align=center;verticalAlign=middle;fontFamily=Helvetica;fontSize=12;fontColor=default;fillColor=default;fontStyle=1" parent="XcMSc3Dv5Vf1WdrxYV2J-383" vertex="1">
          <mxGeometry x="40" width="20" height="20" as="geometry" />
        </mxCell>
        <mxCell id="XcMSc3Dv5Vf1WdrxYV2J-388" value="" style="rounded=0;whiteSpace=wrap;html=1;strokeColor=default;strokeWidth=1;align=center;verticalAlign=middle;fontFamily=Helvetica;fontSize=12;fontColor=default;fillColor=#FFFFFF;fontStyle=1" parent="XcMSc3Dv5Vf1WdrxYV2J-383" vertex="1">
          <mxGeometry x="60" width="20" height="20" as="geometry" />
        </mxCell>
        <mxCell id="XcMSc3Dv5Vf1WdrxYV2J-389" value="" style="rounded=0;whiteSpace=wrap;html=1;strokeColor=default;strokeWidth=1;align=center;verticalAlign=middle;fontFamily=Helvetica;fontSize=12;fontColor=default;fillColor=default;fontStyle=1" parent="XcMSc3Dv5Vf1WdrxYV2J-383" vertex="1">
          <mxGeometry x="80" width="20" height="20" as="geometry" />
        </mxCell>
        <mxCell id="XcMSc3Dv5Vf1WdrxYV2J-390" value="" style="rounded=0;whiteSpace=wrap;html=1;strokeColor=default;strokeWidth=1;align=center;verticalAlign=middle;fontFamily=Helvetica;fontSize=12;fontColor=default;fillColor=default;fontStyle=1" parent="XcMSc3Dv5Vf1WdrxYV2J-383" vertex="1">
          <mxGeometry x="100" width="20" height="20" as="geometry" />
        </mxCell>
        <mxCell id="XcMSc3Dv5Vf1WdrxYV2J-391" value="" style="rounded=0;whiteSpace=wrap;html=1;strokeColor=default;strokeWidth=1;align=center;verticalAlign=middle;fontFamily=Helvetica;fontSize=12;fontColor=default;fillColor=#FF3333;fontStyle=1" parent="XcMSc3Dv5Vf1WdrxYV2J-383" vertex="1">
          <mxGeometry x="120" width="20" height="20" as="geometry" />
        </mxCell>
        <mxCell id="XcMSc3Dv5Vf1WdrxYV2J-392" value="" style="rounded=0;whiteSpace=wrap;html=1;strokeColor=default;strokeWidth=1;align=center;verticalAlign=middle;fontFamily=Helvetica;fontSize=12;fontColor=default;fillColor=default;fontStyle=1" parent="XcMSc3Dv5Vf1WdrxYV2J-383" vertex="1">
          <mxGeometry x="140" width="20" height="20" as="geometry" />
        </mxCell>
        <mxCell id="XcMSc3Dv5Vf1WdrxYV2J-393" style="edgeStyle=orthogonalEdgeStyle;rounded=0;orthogonalLoop=1;jettySize=auto;html=1;exitX=1;exitY=1;exitDx=0;exitDy=0;entryX=0;entryY=0.5;entryDx=0;entryDy=0;fontFamily=Helvetica;fontSize=12;fontColor=default;endArrow=blockThin;endFill=1;fontStyle=1" parent="XcMSc3Dv5Vf1WdrxYV2J-378" source="XcMSc3Dv5Vf1WdrxYV2J-316" target="XcMSc3Dv5Vf1WdrxYV2J-385" edge="1">
          <mxGeometry relative="1" as="geometry" />
        </mxCell>
        <mxCell id="XcMSc3Dv5Vf1WdrxYV2J-395" value="" style="edgeStyle=orthogonalEdgeStyle;rounded=0;orthogonalLoop=1;jettySize=auto;html=1;exitX=0.75;exitY=1;exitDx=0;exitDy=0;entryX=0;entryY=0.25;entryDx=0;entryDy=0;fontFamily=Helvetica;fontSize=12;fontColor=default;entryPerimeter=0;endArrow=blockThin;endFill=1;fontStyle=1" parent="XcMSc3Dv5Vf1WdrxYV2J-378" source="XcMSc3Dv5Vf1WdrxYV2J-394" target="8pBwBUJksHQwdAiR65Fr-38" edge="1">
          <mxGeometry relative="1" as="geometry">
            <mxPoint x="410" y="150" as="sourcePoint" />
            <mxPoint x="570" y="210" as="targetPoint" />
            <Array as="points">
              <mxPoint x="410" y="150" />
            </Array>
          </mxGeometry>
        </mxCell>
        <mxCell id="XcMSc3Dv5Vf1WdrxYV2J-394" value="&lt;h2 style=&quot;box-sizing: border-box; padding: 1rem; margin: 0px; outline: 0px; line-height: 22px; font-size: 16px; border-bottom: 1px solid var(--bd_01); position: relative; color: rgb(63, 66, 87); font-family: -apple-system, BlinkMacSystemFont, &amp;quot;Segoe UI&amp;quot;, Roboto, &amp;quot;Helvetica Neue&amp;quot;, Arial, &amp;quot;Noto Sans&amp;quot;, sans-serif, &amp;quot;Apple Color Emoji&amp;quot;, &amp;quot;Segoe UI Emoji&amp;quot;, &amp;quot;Segoe UI Symbol&amp;quot;, &amp;quot;Noto Color Emoji&amp;quot;; font-style: normal; font-variant-ligatures: normal; font-variant-caps: normal; letter-spacing: normal; orphans: 2; text-align: start; text-indent: 0px; text-transform: none; widows: 2; word-spacing: 0px; -webkit-text-stroke-width: 0px; white-space: normal; text-decoration-thickness: initial; text-decoration-style: initial; text-decoration-color: initial;&quot; class=&quot;&quot;&gt;&lt;span style=&quot;box-sizing: border-box; padding: 0px; margin: 0px 2px 0px 0px; outline: 0px; display: inline-flex; font-style: normal; font-family: var(--font-emoji); direction: initial; align-items: center; justify-content: center; min-width: 1.5em;&quot; class=&quot;emoji_font line&quot;&gt;✅&lt;/span&gt;&lt;/h2&gt;" style="text;whiteSpace=wrap;html=1;fontFamily=Helvetica;fontSize=12;fontColor=default;fontStyle=1" parent="XcMSc3Dv5Vf1WdrxYV2J-378" vertex="1">
          <mxGeometry x="380" y="70" width="40" height="40" as="geometry" />
        </mxCell>
        <mxCell id="XcMSc3Dv5Vf1WdrxYV2J-397" value="WRR位掩码" style="rounded=1;whiteSpace=wrap;html=1;shadow=0;labelBackgroundColor=none;strokeWidth=1;fontFamily=Verdana;fontSize=10;align=center;fontStyle=1;fillColor=none;strokeColor=none;" parent="XcMSc3Dv5Vf1WdrxYV2J-378" vertex="1">
          <mxGeometry x="10" width="60" height="20" as="geometry" />
        </mxCell>
        <mxCell id="8pBwBUJksHQwdAiR65Fr-37" value="&lt;span&gt;ready信号&lt;/span&gt;" style="rounded=1;whiteSpace=wrap;html=1;shadow=0;labelBackgroundColor=none;strokeWidth=1;fontFamily=Verdana;fontSize=8;align=center;fontStyle=1" parent="XcMSc3Dv5Vf1WdrxYV2J-378" vertex="1">
          <mxGeometry x="380" y="210" width="60" height="20" as="geometry" />
        </mxCell>
        <mxCell id="8pBwBUJksHQwdAiR65Fr-40" style="edgeStyle=orthogonalEdgeStyle;rounded=0;orthogonalLoop=1;jettySize=auto;html=1;exitX=1;exitY=0.5;exitDx=0;exitDy=0;exitPerimeter=0;entryX=0;entryY=0.5;entryDx=0;entryDy=0;endArrow=blockThin;endFill=1;fontStyle=1" parent="XcMSc3Dv5Vf1WdrxYV2J-378" source="8pBwBUJksHQwdAiR65Fr-38" target="XcMSc3Dv5Vf1WdrxYV2J-366" edge="1">
          <mxGeometry relative="1" as="geometry" />
        </mxCell>
        <mxCell id="8pBwBUJksHQwdAiR65Fr-38" value="AND" style="shape=or;whiteSpace=wrap;html=1;strokeColor=default;strokeWidth=1;align=center;verticalAlign=middle;fontFamily=Helvetica;fontSize=12;fontColor=default;fillColor=default;fontStyle=1" parent="XcMSc3Dv5Vf1WdrxYV2J-378" vertex="1">
          <mxGeometry x="500" y="140" width="40" height="40" as="geometry" />
        </mxCell>
        <mxCell id="8pBwBUJksHQwdAiR65Fr-39" style="edgeStyle=orthogonalEdgeStyle;rounded=0;orthogonalLoop=1;jettySize=auto;html=1;exitX=0.5;exitY=0;exitDx=0;exitDy=0;entryX=0;entryY=0.75;entryDx=0;entryDy=0;entryPerimeter=0;endArrow=blockThin;endFill=1;fontStyle=1" parent="XcMSc3Dv5Vf1WdrxYV2J-378" source="8pBwBUJksHQwdAiR65Fr-37" target="8pBwBUJksHQwdAiR65Fr-38" edge="1">
          <mxGeometry relative="1" as="geometry" />
        </mxCell>
        <mxCell id="XcMSc3Dv5Vf1WdrxYV2J-398" value="WRR位掩码" style="rounded=1;whiteSpace=wrap;html=1;shadow=0;labelBackgroundColor=none;strokeWidth=1;fontFamily=Verdana;fontSize=10;align=center;fontStyle=1;fillColor=none;strokeColor=none;" parent="1" vertex="1">
          <mxGeometry x="300" y="2300" width="60" height="20" as="geometry" />
        </mxCell>
        <mxCell id="8pBwBUJksHQwdAiR65Fr-12" value="" style="rounded=0;whiteSpace=wrap;html=1;strokeColor=default;strokeWidth=1;align=center;verticalAlign=middle;fontFamily=Helvetica;fontSize=12;fontColor=default;fillColor=default;fontStyle=1" parent="1" vertex="1">
          <mxGeometry x="1080" y="2500" width="20" height="220" as="geometry" />
        </mxCell>
        <mxCell id="8pBwBUJksHQwdAiR65Fr-13" value="" style="rounded=0;whiteSpace=wrap;html=1;strokeColor=default;strokeWidth=1;align=center;verticalAlign=middle;fontFamily=Helvetica;fontSize=12;fontColor=default;fillColor=#FF8000;fontStyle=1" parent="1" vertex="1">
          <mxGeometry x="1080" y="2590" width="20" height="20" as="geometry" />
        </mxCell>
        <mxCell id="8pBwBUJksHQwdAiR65Fr-14" value="" style="rounded=0;whiteSpace=wrap;html=1;strokeColor=default;strokeWidth=1;align=center;verticalAlign=middle;fontFamily=Helvetica;fontSize=12;fontColor=default;fillColor=default;fontStyle=1" parent="1" vertex="1">
          <mxGeometry x="1080" y="2500" width="20" height="20" as="geometry" />
        </mxCell>
        <mxCell id="8pBwBUJksHQwdAiR65Fr-15" value="" style="rounded=0;whiteSpace=wrap;html=1;strokeColor=default;strokeWidth=1;align=center;verticalAlign=middle;fontFamily=Helvetica;fontSize=12;fontColor=default;fillColor=#FF8000;fontStyle=1" parent="1" vertex="1">
          <mxGeometry x="1080" y="2520" width="20" height="20" as="geometry" />
        </mxCell>
        <mxCell id="8pBwBUJksHQwdAiR65Fr-16" value="..." style="rounded=0;whiteSpace=wrap;html=1;strokeColor=default;strokeWidth=1;align=center;verticalAlign=middle;fontFamily=Helvetica;fontSize=12;fontColor=default;fillColor=default;fontStyle=1" parent="1" vertex="1">
          <mxGeometry x="1080" y="2540" width="20" height="50" as="geometry" />
        </mxCell>
        <mxCell id="8pBwBUJksHQwdAiR65Fr-17" value="..." style="rounded=0;whiteSpace=wrap;html=1;strokeColor=default;strokeWidth=1;align=center;verticalAlign=middle;fontFamily=Helvetica;fontSize=12;fontColor=default;fillColor=default;fontStyle=1" parent="1" vertex="1">
          <mxGeometry x="1080" y="2610" width="20" height="90" as="geometry" />
        </mxCell>
        <mxCell id="8pBwBUJksHQwdAiR65Fr-18" value="" style="rounded=0;whiteSpace=wrap;html=1;strokeColor=default;strokeWidth=1;align=center;verticalAlign=middle;fontFamily=Helvetica;fontSize=12;fontColor=default;fillColor=#FF8000;fontStyle=1" parent="1" vertex="1">
          <mxGeometry x="1080" y="2700" width="20" height="20" as="geometry" />
        </mxCell>
        <mxCell id="8pBwBUJksHQwdAiR65Fr-19" value="Port #0" style="rounded=0;whiteSpace=wrap;html=1;strokeColor=none;strokeWidth=1;align=right;verticalAlign=middle;fontFamily=Helvetica;fontSize=12;fontColor=default;fillColor=none;fontStyle=1" parent="1" vertex="1">
          <mxGeometry x="1020" y="2500" width="50" height="20" as="geometry" />
        </mxCell>
        <mxCell id="8pBwBUJksHQwdAiR65Fr-20" value="Port #1" style="rounded=0;whiteSpace=wrap;html=1;strokeColor=none;strokeWidth=1;align=right;verticalAlign=middle;fontFamily=Helvetica;fontSize=12;fontColor=default;fillColor=none;fontStyle=1" parent="1" vertex="1">
          <mxGeometry x="1020" y="2520" width="50" height="20" as="geometry" />
        </mxCell>
        <mxCell id="8pBwBUJksHQwdAiR65Fr-21" value="Port #N" style="rounded=0;whiteSpace=wrap;html=1;strokeColor=none;strokeWidth=1;align=right;verticalAlign=middle;fontFamily=Helvetica;fontSize=12;fontColor=default;fillColor=none;fontStyle=1" parent="1" vertex="1">
          <mxGeometry x="1020" y="2590" width="50" height="20" as="geometry" />
        </mxCell>
        <mxCell id="8pBwBUJksHQwdAiR65Fr-22" value="Port #16" style="rounded=0;whiteSpace=wrap;html=1;strokeColor=none;strokeWidth=1;align=right;verticalAlign=middle;fontFamily=Helvetica;fontSize=12;fontColor=default;fillColor=none;fontStyle=1" parent="1" vertex="1">
          <mxGeometry x="1020" y="2700" width="50" height="20" as="geometry" />
        </mxCell>
        <mxCell id="8pBwBUJksHQwdAiR65Fr-23" value="SRAM请求指示码&lt;br&gt;&lt;span style=&quot;&quot;&gt;&lt;font style=&quot;font-size: 11px;&quot;&gt;(各端口是否正在请求)&lt;/font&gt;&lt;/span&gt;" style="rounded=1;whiteSpace=wrap;html=1;strokeColor=none;strokeWidth=1;align=center;verticalAlign=middle;fontFamily=Helvetica;fontSize=12;fontColor=default;fillColor=none;fontStyle=1" parent="1" vertex="1">
          <mxGeometry x="1010" y="2730" width="110" height="40" as="geometry" />
        </mxCell>
        <mxCell id="8pBwBUJksHQwdAiR65Fr-25" value="" style="endArrow=blockThin;html=1;rounded=0;exitX=1;exitY=0.5;exitDx=0;exitDy=0;entryX=0.5;entryY=0;entryDx=0;entryDy=0;endFill=1;fontStyle=1" parent="1" source="8pBwBUJksHQwdAiR65Fr-15" target="8pBwBUJksHQwdAiR65Fr-26" edge="1">
          <mxGeometry width="50" height="50" relative="1" as="geometry">
            <mxPoint x="1170" y="2610" as="sourcePoint" />
            <mxPoint x="1160" y="2530" as="targetPoint" />
            <Array as="points">
              <mxPoint x="1130" y="2530" />
              <mxPoint x="1130" y="2440" />
              <mxPoint x="1235" y="2440" />
            </Array>
          </mxGeometry>
        </mxCell>
        <mxCell id="8pBwBUJksHQwdAiR65Fr-26" value="处理Port #1&lt;br style=&quot;font-size: 8px;&quot;&gt;读取请求" style="rounded=1;whiteSpace=wrap;html=1;fontStyle=1;fontSize=8;fillColor=#97E3FC;strokeColor=none;" parent="1" vertex="1">
          <mxGeometry x="1210" y="2460" width="50" height="40" as="geometry" />
        </mxCell>
        <mxCell id="8pBwBUJksHQwdAiR65Fr-30" value="" style="shape=curlyBracket;whiteSpace=wrap;html=1;rounded=1;flipH=1;labelPosition=right;verticalLabelPosition=middle;align=left;verticalAlign=middle;fontStyle=1" parent="1" vertex="1">
          <mxGeometry x="970" y="2300" width="40" height="640" as="geometry" />
        </mxCell>
        <mxCell id="8pBwBUJksHQwdAiR65Fr-33" value="&lt;span&gt;ready信号&lt;/span&gt;" style="rounded=1;whiteSpace=wrap;html=1;shadow=0;labelBackgroundColor=none;strokeWidth=1;fontFamily=Verdana;fontSize=8;align=center;fontStyle=1" parent="1" vertex="1">
          <mxGeometry x="690" y="2480" width="60" height="20" as="geometry" />
        </mxCell>
        <mxCell id="8pBwBUJksHQwdAiR65Fr-36" style="edgeStyle=orthogonalEdgeStyle;rounded=0;orthogonalLoop=1;jettySize=auto;html=1;exitX=1;exitY=0.5;exitDx=0;exitDy=0;exitPerimeter=0;entryX=0;entryY=0.5;entryDx=0;entryDy=0;endArrow=blockThin;endFill=1;fontStyle=1" parent="1" source="8pBwBUJksHQwdAiR65Fr-34" target="XcMSc3Dv5Vf1WdrxYV2J-292" edge="1">
          <mxGeometry relative="1" as="geometry" />
        </mxCell>
        <mxCell id="8pBwBUJksHQwdAiR65Fr-34" value="AND" style="shape=or;whiteSpace=wrap;html=1;strokeColor=default;strokeWidth=1;align=center;verticalAlign=middle;fontFamily=Helvetica;fontSize=12;fontColor=default;fillColor=default;fontStyle=1" parent="1" vertex="1">
          <mxGeometry x="790" y="2400" width="40" height="40" as="geometry" />
        </mxCell>
        <mxCell id="8pBwBUJksHQwdAiR65Fr-35" style="edgeStyle=orthogonalEdgeStyle;rounded=0;orthogonalLoop=1;jettySize=auto;html=1;exitX=0.5;exitY=0;exitDx=0;exitDy=0;entryX=0;entryY=0.75;entryDx=0;entryDy=0;entryPerimeter=0;endArrow=blockThin;endFill=1;fontStyle=1" parent="1" source="8pBwBUJksHQwdAiR65Fr-33" target="8pBwBUJksHQwdAiR65Fr-34" edge="1">
          <mxGeometry relative="1" as="geometry" />
        </mxCell>
        <mxCell id="8pBwBUJksHQwdAiR65Fr-41" value="rd_sop&lt;br&gt;拉高" style="rounded=1;whiteSpace=wrap;html=1;fontStyle=1;fontSize=8;fillColor=#5ED1F7;strokeColor=none;" parent="1" vertex="1">
          <mxGeometry x="1210" y="2510" width="50" height="40" as="geometry" />
        </mxCell>
        <mxCell id="8pBwBUJksHQwdAiR65Fr-42" value="rd_sop&lt;br&gt;拉低" style="rounded=1;whiteSpace=wrap;html=1;fontStyle=1;fontSize=8;fillColor=#5ED1F7;strokeColor=none;" parent="1" vertex="1">
          <mxGeometry x="1270" y="2510" width="50" height="40" as="geometry" />
        </mxCell>
        <mxCell id="8pBwBUJksHQwdAiR65Fr-43" value="读取SRAM&lt;div&gt;batch#0&lt;/div&gt;" style="rounded=1;whiteSpace=wrap;html=1;fontStyle=1;fontSize=8;fillColor=#FDC086;strokeColor=none;" parent="1" vertex="1">
          <mxGeometry x="1210" y="2660" width="50" height="40" as="geometry" />
        </mxCell>
        <mxCell id="8pBwBUJksHQwdAiR65Fr-44" value="读出页地址&lt;br&gt;(队头)" style="rounded=1;whiteSpace=wrap;html=1;fontStyle=1;fontSize=8;fillColor=#f9e6b4;strokeColor=none;" parent="1" vertex="1">
          <mxGeometry x="1210" y="2610" width="50" height="40" as="geometry" />
        </mxCell>
        <mxCell id="8pBwBUJksHQwdAiR65Fr-46" value="batch计数器累加(0→1)" style="rounded=1;whiteSpace=wrap;html=1;fontStyle=1;fontSize=8;fillColor=#FFD257;strokeColor=none;" parent="1" vertex="1">
          <mxGeometry x="1270" y="2560" width="50" height="40" as="geometry" />
        </mxCell>
        <mxCell id="8pBwBUJksHQwdAiR65Fr-47" value="batch计数器重置(→0)" style="rounded=1;whiteSpace=wrap;html=1;fontStyle=1;fontSize=8;fillColor=#FFD257;strokeColor=none;" parent="1" vertex="1">
          <mxGeometry x="1210" y="2560" width="50" height="40" as="geometry" />
        </mxCell>
        <mxCell id="8pBwBUJksHQwdAiR65Fr-222" style="edgeStyle=orthogonalEdgeStyle;rounded=0;orthogonalLoop=1;jettySize=auto;html=1;exitX=0.5;exitY=1;exitDx=0;exitDy=0;entryX=0.5;entryY=0;entryDx=0;entryDy=0;endArrow=blockThin;endFill=1;fontStyle=1" parent="1" source="8pBwBUJksHQwdAiR65Fr-50" target="8pBwBUJksHQwdAiR65Fr-95" edge="1">
          <mxGeometry relative="1" as="geometry" />
        </mxCell>
        <mxCell id="8pBwBUJksHQwdAiR65Fr-50" value="得到数据&lt;br&gt;batch#0" style="rounded=1;whiteSpace=wrap;html=1;fontStyle=1;fontSize=8;fillColor=#F7C597;strokeColor=none;" parent="1" vertex="1">
          <mxGeometry x="1270" y="2710" width="50" height="40" as="geometry" />
        </mxCell>
        <mxCell id="8pBwBUJksHQwdAiR65Fr-51" value="长度计数器&lt;br&gt;赋值" style="rounded=1;whiteSpace=wrap;html=1;fontStyle=1;fontSize=8;fillColor=#FFD257;strokeColor=none;" parent="1" vertex="1">
          <mxGeometry x="1270" y="3010" width="50" height="40" as="geometry" />
        </mxCell>
        <mxCell id="8pBwBUJksHQwdAiR65Fr-52" value="长度计数器&lt;br&gt;-1" style="rounded=1;whiteSpace=wrap;html=1;fontStyle=1;fontSize=8;strokeColor=none;fillColor=#FFD257;" parent="1" vertex="1">
          <mxGeometry x="1330" y="3010" width="50" height="40" as="geometry" />
        </mxCell>
        <mxCell id="8pBwBUJksHQwdAiR65Fr-53" value="batch计数器累加(1→2)" style="rounded=1;whiteSpace=wrap;html=1;fontStyle=1;fontSize=8;fillColor=#FFD257;strokeColor=none;" parent="1" vertex="1">
          <mxGeometry x="1330" y="2560" width="50" height="40" as="geometry" />
        </mxCell>
        <mxCell id="8pBwBUJksHQwdAiR65Fr-56" value="读取SRAM&lt;div&gt;batch#1&lt;/div&gt;" style="rounded=1;whiteSpace=wrap;html=1;fontStyle=1;fontSize=8;fillColor=#FDC086;strokeColor=none;" parent="1" vertex="1">
          <mxGeometry x="1270" y="2660" width="50" height="40" as="geometry" />
        </mxCell>
        <mxCell id="8pBwBUJksHQwdAiR65Fr-223" style="edgeStyle=orthogonalEdgeStyle;rounded=0;orthogonalLoop=1;jettySize=auto;html=1;exitX=0.5;exitY=1;exitDx=0;exitDy=0;entryX=0.5;entryY=0;entryDx=0;entryDy=0;endArrow=blockThin;endFill=1;fontStyle=1" parent="1" source="8pBwBUJksHQwdAiR65Fr-57" target="8pBwBUJksHQwdAiR65Fr-96" edge="1">
          <mxGeometry relative="1" as="geometry" />
        </mxCell>
        <mxCell id="8pBwBUJksHQwdAiR65Fr-57" value="得到数据&lt;br&gt;batch#1" style="rounded=1;whiteSpace=wrap;html=1;fontStyle=1;fontSize=8;strokeColor=none;fillColor=#F7C597;" parent="1" vertex="1">
          <mxGeometry x="1330" y="2710" width="50" height="40" as="geometry" />
        </mxCell>
        <mxCell id="8pBwBUJksHQwdAiR65Fr-58" value="长度计数器&lt;br&gt;-1" style="rounded=1;whiteSpace=wrap;html=1;fontStyle=1;fontSize=8;strokeColor=none;fillColor=#FFD257;" parent="1" vertex="1">
          <mxGeometry x="1390" y="3010" width="50" height="40" as="geometry" />
        </mxCell>
        <mxCell id="8pBwBUJksHQwdAiR65Fr-59" value="读取SRAM&lt;div&gt;batch#2&lt;/div&gt;" style="rounded=1;whiteSpace=wrap;html=1;fontStyle=1;fontSize=8;fillColor=#FDC086;strokeColor=none;" parent="1" vertex="1">
          <mxGeometry x="1330" y="2660" width="50" height="40" as="geometry" />
        </mxCell>
        <mxCell id="8pBwBUJksHQwdAiR65Fr-224" style="edgeStyle=orthogonalEdgeStyle;rounded=0;orthogonalLoop=1;jettySize=auto;html=1;exitX=0.5;exitY=1;exitDx=0;exitDy=0;entryX=0.5;entryY=0;entryDx=0;entryDy=0;endArrow=blockThin;endFill=1;fontStyle=1" parent="1" source="8pBwBUJksHQwdAiR65Fr-60" target="8pBwBUJksHQwdAiR65Fr-97" edge="1">
          <mxGeometry relative="1" as="geometry" />
        </mxCell>
        <mxCell id="8pBwBUJksHQwdAiR65Fr-60" value="得到数据&lt;br&gt;batch#2" style="rounded=1;whiteSpace=wrap;html=1;fontStyle=1;fontSize=8;strokeColor=none;fillColor=#F7C597;" parent="1" vertex="1">
          <mxGeometry x="1390" y="2710" width="50" height="40" as="geometry" />
        </mxCell>
        <mxCell id="8pBwBUJksHQwdAiR65Fr-61" value="长度计数器&lt;br&gt;-1" style="rounded=1;whiteSpace=wrap;html=1;fontStyle=1;fontSize=8;strokeColor=none;fillColor=#FFD257;" parent="1" vertex="1">
          <mxGeometry x="1450" y="3010" width="50" height="40" as="geometry" />
        </mxCell>
        <mxCell id="8pBwBUJksHQwdAiR65Fr-65" value="batch计数器累加(2→3)" style="rounded=1;whiteSpace=wrap;html=1;fontStyle=1;fontSize=8;fillColor=#FFD257;strokeColor=none;" parent="1" vertex="1">
          <mxGeometry x="1390" y="2560" width="50" height="40" as="geometry" />
        </mxCell>
        <mxCell id="8pBwBUJksHQwdAiR65Fr-66" value="batch计数器累加(3→4)" style="rounded=1;whiteSpace=wrap;html=1;fontStyle=1;fontSize=8;fillColor=#FFD257;strokeColor=none;" parent="1" vertex="1">
          <mxGeometry x="1450" y="2560" width="50" height="40" as="geometry" />
        </mxCell>
        <mxCell id="8pBwBUJksHQwdAiR65Fr-67" value="batch计数器累加(4→5)" style="rounded=1;whiteSpace=wrap;html=1;fontStyle=1;fontSize=8;fillColor=#FFD257;strokeColor=none;" parent="1" vertex="1">
          <mxGeometry x="1510" y="2560" width="50" height="40" as="geometry" />
        </mxCell>
        <mxCell id="8pBwBUJksHQwdAiR65Fr-68" value="batch计数器累加(5→6)" style="rounded=1;whiteSpace=wrap;html=1;fontStyle=1;fontSize=8;fillColor=#FFD257;strokeColor=none;" parent="1" vertex="1">
          <mxGeometry x="1570" y="2560" width="50" height="40" as="geometry" />
        </mxCell>
        <mxCell id="8pBwBUJksHQwdAiR65Fr-69" value="batch计数器累加(7→0)" style="rounded=1;whiteSpace=wrap;html=1;fontStyle=1;fontSize=8;fillColor=#FFD257;strokeColor=none;" parent="1" vertex="1">
          <mxGeometry x="1690" y="2560" width="50" height="40" as="geometry" />
        </mxCell>
        <mxCell id="8pBwBUJksHQwdAiR65Fr-70" value="batch计数器累加(0→1)" style="rounded=1;whiteSpace=wrap;html=1;fontStyle=1;fontSize=8;fillColor=#FFD257;strokeColor=none;" parent="1" vertex="1">
          <mxGeometry x="1750" y="2560" width="50" height="40" as="geometry" />
        </mxCell>
        <mxCell id="8pBwBUJksHQwdAiR65Fr-71" value="batch计数器累加(1→2)" style="rounded=1;whiteSpace=wrap;html=1;fontStyle=1;fontSize=8;fillColor=#FFD257;strokeColor=none;" parent="1" vertex="1">
          <mxGeometry x="1810" y="2560" width="50" height="40" as="geometry" />
        </mxCell>
        <mxCell id="8pBwBUJksHQwdAiR65Fr-72" value="读取SRAM&lt;div&gt;batch#3&lt;/div&gt;" style="rounded=1;whiteSpace=wrap;html=1;fontStyle=1;fontSize=8;fillColor=#FDC086;strokeColor=none;" parent="1" vertex="1">
          <mxGeometry x="1390" y="2660" width="50" height="40" as="geometry" />
        </mxCell>
        <mxCell id="8pBwBUJksHQwdAiR65Fr-225" style="edgeStyle=orthogonalEdgeStyle;rounded=0;orthogonalLoop=1;jettySize=auto;html=1;exitX=0.5;exitY=1;exitDx=0;exitDy=0;entryX=0.5;entryY=0;entryDx=0;entryDy=0;endArrow=blockThin;endFill=1;fontStyle=1" parent="1" source="8pBwBUJksHQwdAiR65Fr-73" target="8pBwBUJksHQwdAiR65Fr-98" edge="1">
          <mxGeometry relative="1" as="geometry" />
        </mxCell>
        <mxCell id="8pBwBUJksHQwdAiR65Fr-73" value="得到数据&lt;br&gt;batch#3" style="rounded=1;whiteSpace=wrap;html=1;fontStyle=1;fontSize=8;strokeColor=none;fillColor=#F7C597;" parent="1" vertex="1">
          <mxGeometry x="1450" y="2710" width="50" height="40" as="geometry" />
        </mxCell>
        <mxCell id="8pBwBUJksHQwdAiR65Fr-74" value="长度计数器&lt;br&gt;-1" style="rounded=1;whiteSpace=wrap;html=1;fontStyle=1;fontSize=8;strokeColor=none;fillColor=#FFD257;" parent="1" vertex="1">
          <mxGeometry x="1510" y="3010" width="50" height="40" as="geometry" />
        </mxCell>
        <mxCell id="8pBwBUJksHQwdAiR65Fr-75" value="读取SRAM&lt;div&gt;batch#4&lt;/div&gt;" style="rounded=1;whiteSpace=wrap;html=1;fontStyle=1;fontSize=8;fillColor=#FDC086;strokeColor=none;" parent="1" vertex="1">
          <mxGeometry x="1450" y="2660" width="50" height="40" as="geometry" />
        </mxCell>
        <mxCell id="8pBwBUJksHQwdAiR65Fr-226" style="edgeStyle=orthogonalEdgeStyle;rounded=0;orthogonalLoop=1;jettySize=auto;html=1;exitX=0.5;exitY=1;exitDx=0;exitDy=0;entryX=0.5;entryY=0;entryDx=0;entryDy=0;endArrow=blockThin;endFill=1;fontStyle=1" parent="1" source="8pBwBUJksHQwdAiR65Fr-76" target="8pBwBUJksHQwdAiR65Fr-99" edge="1">
          <mxGeometry relative="1" as="geometry" />
        </mxCell>
        <mxCell id="8pBwBUJksHQwdAiR65Fr-76" value="得到数据&lt;br&gt;batch#4" style="rounded=1;whiteSpace=wrap;html=1;fontStyle=1;fontSize=8;strokeColor=none;fillColor=#F7C597;" parent="1" vertex="1">
          <mxGeometry x="1510" y="2710" width="50" height="40" as="geometry" />
        </mxCell>
        <mxCell id="8pBwBUJksHQwdAiR65Fr-77" value="长度计数器&lt;br&gt;-1" style="rounded=1;whiteSpace=wrap;html=1;fontStyle=1;fontSize=8;strokeColor=none;fillColor=#FFD257;" parent="1" vertex="1">
          <mxGeometry x="1570" y="3010" width="50" height="40" as="geometry" />
        </mxCell>
        <mxCell id="8pBwBUJksHQwdAiR65Fr-78" value="读取SRAM&lt;div&gt;batch#5&lt;/div&gt;" style="rounded=1;whiteSpace=wrap;html=1;fontStyle=1;fontSize=8;fillColor=#FDC086;strokeColor=none;" parent="1" vertex="1">
          <mxGeometry x="1510" y="2660" width="50" height="40" as="geometry" />
        </mxCell>
        <mxCell id="8pBwBUJksHQwdAiR65Fr-227" style="edgeStyle=orthogonalEdgeStyle;rounded=0;orthogonalLoop=1;jettySize=auto;html=1;exitX=0.5;exitY=1;exitDx=0;exitDy=0;entryX=0.5;entryY=0;entryDx=0;entryDy=0;endArrow=blockThin;endFill=1;fontStyle=1" parent="1" source="8pBwBUJksHQwdAiR65Fr-79" target="8pBwBUJksHQwdAiR65Fr-100" edge="1">
          <mxGeometry relative="1" as="geometry" />
        </mxCell>
        <mxCell id="8pBwBUJksHQwdAiR65Fr-79" value="得到数据&lt;br&gt;batch#5" style="rounded=1;whiteSpace=wrap;html=1;fontStyle=1;fontSize=8;strokeColor=none;fillColor=#F7C597;" parent="1" vertex="1">
          <mxGeometry x="1570" y="2710" width="50" height="40" as="geometry" />
        </mxCell>
        <mxCell id="8pBwBUJksHQwdAiR65Fr-80" value="长度计数器&lt;br&gt;-1" style="rounded=1;whiteSpace=wrap;html=1;fontStyle=1;fontSize=8;strokeColor=none;fillColor=#FFD257;" parent="1" vertex="1">
          <mxGeometry x="1630" y="3010" width="50" height="40" as="geometry" />
        </mxCell>
        <mxCell id="8pBwBUJksHQwdAiR65Fr-81" value="读取SRAM&lt;div&gt;batch#6&lt;/div&gt;" style="rounded=1;whiteSpace=wrap;html=1;fontStyle=1;fontSize=8;fillColor=#FDC086;strokeColor=none;" parent="1" vertex="1">
          <mxGeometry x="1570" y="2660" width="50" height="40" as="geometry" />
        </mxCell>
        <mxCell id="8pBwBUJksHQwdAiR65Fr-228" style="edgeStyle=orthogonalEdgeStyle;rounded=0;orthogonalLoop=1;jettySize=auto;html=1;exitX=0.5;exitY=1;exitDx=0;exitDy=0;entryX=0.5;entryY=0;entryDx=0;entryDy=0;endArrow=blockThin;endFill=1;fontStyle=1" parent="1" source="8pBwBUJksHQwdAiR65Fr-82" target="8pBwBUJksHQwdAiR65Fr-101" edge="1">
          <mxGeometry relative="1" as="geometry" />
        </mxCell>
        <mxCell id="8pBwBUJksHQwdAiR65Fr-82" value="得到数据&lt;br&gt;batch#6" style="rounded=1;whiteSpace=wrap;html=1;fontStyle=1;fontSize=8;strokeColor=none;fillColor=#F7C597;" parent="1" vertex="1">
          <mxGeometry x="1630" y="2710" width="50" height="40" as="geometry" />
        </mxCell>
        <mxCell id="8pBwBUJksHQwdAiR65Fr-83" value="长度计数器&lt;br&gt;-1" style="rounded=1;whiteSpace=wrap;html=1;fontStyle=1;fontSize=8;strokeColor=none;fillColor=#FFD257;" parent="1" vertex="1">
          <mxGeometry x="1690" y="3010" width="50" height="40" as="geometry" />
        </mxCell>
        <mxCell id="8pBwBUJksHQwdAiR65Fr-84" value="读取SRAM&lt;div&gt;batch#7&lt;/div&gt;" style="rounded=1;whiteSpace=wrap;html=1;fontStyle=1;fontSize=8;fillColor=#FDC086;strokeColor=none;" parent="1" vertex="1">
          <mxGeometry x="1630" y="2660" width="50" height="40" as="geometry" />
        </mxCell>
        <mxCell id="8pBwBUJksHQwdAiR65Fr-229" style="edgeStyle=orthogonalEdgeStyle;rounded=0;orthogonalLoop=1;jettySize=auto;html=1;exitX=0.5;exitY=1;exitDx=0;exitDy=0;entryX=0.5;entryY=0;entryDx=0;entryDy=0;endArrow=blockThin;endFill=1;fontStyle=1" parent="1" source="8pBwBUJksHQwdAiR65Fr-85" target="8pBwBUJksHQwdAiR65Fr-102" edge="1">
          <mxGeometry relative="1" as="geometry" />
        </mxCell>
        <mxCell id="8pBwBUJksHQwdAiR65Fr-85" value="得到数据&lt;br&gt;batch#7" style="rounded=1;whiteSpace=wrap;html=1;fontStyle=1;fontSize=8;strokeColor=none;fillColor=#F7C597;" parent="1" vertex="1">
          <mxGeometry x="1690" y="2710" width="50" height="40" as="geometry" />
        </mxCell>
        <mxCell id="8pBwBUJksHQwdAiR65Fr-86" value="长度计数器&lt;br&gt;-1" style="rounded=1;whiteSpace=wrap;html=1;fontStyle=1;fontSize=8;strokeColor=none;fillColor=#FFD257;" parent="1" vertex="1">
          <mxGeometry x="1750" y="3010" width="50" height="40" as="geometry" />
        </mxCell>
        <mxCell id="8pBwBUJksHQwdAiR65Fr-87" value="读取SRAM&lt;div&gt;batch#0&lt;/div&gt;" style="rounded=1;whiteSpace=wrap;html=1;fontStyle=1;fontSize=8;fillColor=#FDC086;strokeColor=none;" parent="1" vertex="1">
          <mxGeometry x="1690" y="2660" width="50" height="40" as="geometry" />
        </mxCell>
        <mxCell id="8pBwBUJksHQwdAiR65Fr-231" style="edgeStyle=orthogonalEdgeStyle;rounded=0;orthogonalLoop=1;jettySize=auto;html=1;exitX=0.5;exitY=1;exitDx=0;exitDy=0;entryX=0.5;entryY=0;entryDx=0;entryDy=0;endArrow=blockThin;endFill=1;fontStyle=1" parent="1" source="8pBwBUJksHQwdAiR65Fr-88" target="8pBwBUJksHQwdAiR65Fr-103" edge="1">
          <mxGeometry relative="1" as="geometry" />
        </mxCell>
        <mxCell id="8pBwBUJksHQwdAiR65Fr-88" value="得到数据&lt;br&gt;batch#0" style="rounded=1;whiteSpace=wrap;html=1;fontStyle=1;fontSize=8;strokeColor=none;fillColor=#F7C597;" parent="1" vertex="1">
          <mxGeometry x="1750" y="2710" width="50" height="40" as="geometry" />
        </mxCell>
        <mxCell id="8pBwBUJksHQwdAiR65Fr-89" value="长度计数器&lt;br&gt;-1" style="rounded=1;whiteSpace=wrap;html=1;fontStyle=1;fontSize=8;strokeColor=none;fillColor=#FFD257;" parent="1" vertex="1">
          <mxGeometry x="1810" y="3010" width="50" height="40" as="geometry" />
        </mxCell>
        <mxCell id="8pBwBUJksHQwdAiR65Fr-90" value="batch计数器累加(6→7)" style="rounded=1;whiteSpace=wrap;html=1;fontStyle=1;fontSize=8;fillColor=#FFD257;strokeColor=none;" parent="1" vertex="1">
          <mxGeometry x="1630" y="2560" width="50" height="40" as="geometry" />
        </mxCell>
        <mxCell id="8pBwBUJksHQwdAiR65Fr-91" value="读取SRAM&lt;div&gt;batch#1&lt;/div&gt;" style="rounded=1;whiteSpace=wrap;html=1;fontStyle=1;fontSize=8;fillColor=#FDC086;strokeColor=none;" parent="1" vertex="1">
          <mxGeometry x="1750" y="2660" width="50" height="40" as="geometry" />
        </mxCell>
        <mxCell id="8pBwBUJksHQwdAiR65Fr-232" style="edgeStyle=orthogonalEdgeStyle;rounded=0;orthogonalLoop=1;jettySize=auto;html=1;exitX=0.5;exitY=1;exitDx=0;exitDy=0;entryX=0.5;entryY=0;entryDx=0;entryDy=0;endArrow=blockThin;endFill=1;fontStyle=1" parent="1" source="8pBwBUJksHQwdAiR65Fr-92" target="8pBwBUJksHQwdAiR65Fr-104" edge="1">
          <mxGeometry relative="1" as="geometry" />
        </mxCell>
        <mxCell id="8pBwBUJksHQwdAiR65Fr-92" value="得到数据&lt;br&gt;batch#1" style="rounded=1;whiteSpace=wrap;html=1;fontStyle=1;fontSize=8;strokeColor=none;fillColor=#F7C597;" parent="1" vertex="1">
          <mxGeometry x="1810" y="2710" width="50" height="40" as="geometry" />
        </mxCell>
        <mxCell id="8pBwBUJksHQwdAiR65Fr-94" value="长度计数器&lt;br&gt;-1" style="rounded=1;whiteSpace=wrap;html=1;fontStyle=1;fontSize=8;strokeColor=none;fillColor=#FFD257;" parent="1" vertex="1">
          <mxGeometry x="1870" y="3010" width="50" height="40" as="geometry" />
        </mxCell>
        <mxCell id="8pBwBUJksHQwdAiR65Fr-95" value="写入ECC&lt;br&gt;校验缓冲区&lt;br&gt;batch#0" style="rounded=1;whiteSpace=wrap;html=1;fontStyle=1;fontSize=8;fillColor=#9FE49B;strokeColor=none;" parent="1" vertex="1">
          <mxGeometry x="1270" y="2760" width="50" height="40" as="geometry" />
        </mxCell>
        <mxCell id="8pBwBUJksHQwdAiR65Fr-96" value="写入ECC&lt;br&gt;校验缓冲区&lt;br&gt;batch#1" style="rounded=1;whiteSpace=wrap;html=1;fontStyle=1;fontSize=8;fillColor=#9FE49B;strokeColor=none;" parent="1" vertex="1">
          <mxGeometry x="1330" y="2760" width="50" height="40" as="geometry" />
        </mxCell>
        <mxCell id="8pBwBUJksHQwdAiR65Fr-97" value="写入ECC&lt;br&gt;校验缓冲区&lt;br&gt;batch#2" style="rounded=1;whiteSpace=wrap;html=1;fontStyle=1;fontSize=8;fillColor=#9FE49B;strokeColor=none;" parent="1" vertex="1">
          <mxGeometry x="1390" y="2760" width="50" height="40" as="geometry" />
        </mxCell>
        <mxCell id="8pBwBUJksHQwdAiR65Fr-98" value="写入ECC&lt;br&gt;校验缓冲区&lt;br&gt;batch#3" style="rounded=1;whiteSpace=wrap;html=1;fontStyle=1;fontSize=8;fillColor=#9FE49B;strokeColor=none;" parent="1" vertex="1">
          <mxGeometry x="1450" y="2760" width="50" height="40" as="geometry" />
        </mxCell>
        <mxCell id="8pBwBUJksHQwdAiR65Fr-99" value="写入ECC&lt;br&gt;校验缓冲区&lt;br&gt;batch#4" style="rounded=1;whiteSpace=wrap;html=1;fontStyle=1;fontSize=8;fillColor=#9FE49B;strokeColor=none;" parent="1" vertex="1">
          <mxGeometry x="1510" y="2760" width="50" height="40" as="geometry" />
        </mxCell>
        <mxCell id="8pBwBUJksHQwdAiR65Fr-100" value="写入ECC&lt;br&gt;校验缓冲区&lt;br&gt;batch#5" style="rounded=1;whiteSpace=wrap;html=1;fontStyle=1;fontSize=8;fillColor=#9FE49B;strokeColor=none;" parent="1" vertex="1">
          <mxGeometry x="1570" y="2760" width="50" height="40" as="geometry" />
        </mxCell>
        <mxCell id="8pBwBUJksHQwdAiR65Fr-101" value="写入ECC&lt;br&gt;校验缓冲区&lt;br&gt;batch#6" style="rounded=1;whiteSpace=wrap;html=1;fontStyle=1;fontSize=8;fillColor=#9FE49B;strokeColor=none;" parent="1" vertex="1">
          <mxGeometry x="1630" y="2760" width="50" height="40" as="geometry" />
        </mxCell>
        <mxCell id="8pBwBUJksHQwdAiR65Fr-102" value="写入ECC&lt;br&gt;校验缓冲区&lt;br&gt;batch#7" style="rounded=1;whiteSpace=wrap;html=1;fontStyle=1;fontSize=8;fillColor=#9FE49B;strokeColor=none;" parent="1" vertex="1">
          <mxGeometry x="1690" y="2760" width="50" height="40" as="geometry" />
        </mxCell>
        <mxCell id="8pBwBUJksHQwdAiR65Fr-103" value="写入ECC&lt;br&gt;校验缓冲区&lt;br&gt;batch#0" style="rounded=1;whiteSpace=wrap;html=1;fontStyle=1;fontSize=8;fillColor=#9FE49B;strokeColor=none;" parent="1" vertex="1">
          <mxGeometry x="1750" y="2760" width="50" height="40" as="geometry" />
        </mxCell>
        <mxCell id="8pBwBUJksHQwdAiR65Fr-104" value="写入ECC&lt;br&gt;校验缓冲区&lt;br&gt;batch#1" style="rounded=1;whiteSpace=wrap;html=1;fontStyle=1;fontSize=8;fillColor=#9FE49B;strokeColor=none;" parent="1" vertex="1">
          <mxGeometry x="1810" y="2760" width="50" height="40" as="geometry" />
        </mxCell>
        <mxCell id="hcAUEg-cHdo6pLjl__bZ-161" value="" style="edgeStyle=orthogonalEdgeStyle;rounded=0;orthogonalLoop=1;jettySize=auto;html=1;" edge="1" parent="1" source="8pBwBUJksHQwdAiR65Fr-105" target="8pBwBUJksHQwdAiR65Fr-119">
          <mxGeometry relative="1" as="geometry" />
        </mxCell>
        <mxCell id="hcAUEg-cHdo6pLjl__bZ-162" value="" style="edgeStyle=orthogonalEdgeStyle;rounded=0;orthogonalLoop=1;jettySize=auto;html=1;" edge="1" parent="1" source="8pBwBUJksHQwdAiR65Fr-105" target="8pBwBUJksHQwdAiR65Fr-119">
          <mxGeometry relative="1" as="geometry" />
        </mxCell>
        <mxCell id="8pBwBUJksHQwdAiR65Fr-105" value="ECC校验&lt;br&gt;使能" style="rounded=1;whiteSpace=wrap;html=1;fontStyle=1;fontSize=8;strokeColor=none;fillColor=#71E16B;" parent="1" vertex="1">
          <mxGeometry x="1690" y="2860" width="50" height="40" as="geometry" />
        </mxCell>
        <mxCell id="8pBwBUJksHQwdAiR65Fr-235" style="edgeStyle=orthogonalEdgeStyle;rounded=0;orthogonalLoop=1;jettySize=auto;html=1;exitX=1;exitY=0.5;exitDx=0;exitDy=0;entryX=0;entryY=0.5;entryDx=0;entryDy=0;endArrow=blockThin;endFill=1;fontStyle=1;strokeColor=none;" parent="1" source="8pBwBUJksHQwdAiR65Fr-106" target="8pBwBUJksHQwdAiR65Fr-107" edge="1">
          <mxGeometry relative="1" as="geometry" />
        </mxCell>
        <mxCell id="8pBwBUJksHQwdAiR65Fr-106" value="ECC存储&lt;br&gt;编码读出" style="rounded=1;whiteSpace=wrap;html=1;fontStyle=1;fontSize=8;fillColor=#BCEEBA;strokeColor=none;" parent="1" vertex="1">
          <mxGeometry x="1270" y="2810" width="50" height="40" as="geometry" />
        </mxCell>
        <mxCell id="8pBwBUJksHQwdAiR65Fr-107" value="ECC校验&lt;br&gt;编码写入" style="rounded=1;whiteSpace=wrap;html=1;fontStyle=1;fontSize=8;strokeColor=none;fillColor=#BCEEBA;" parent="1" vertex="1">
          <mxGeometry x="1330" y="2810" width="50" height="40" as="geometry" />
        </mxCell>
        <mxCell id="8pBwBUJksHQwdAiR65Fr-108" value="rd_vld&lt;br&gt;拉高" style="rounded=1;whiteSpace=wrap;html=1;fontStyle=1;fontSize=8;strokeColor=none;fillColor=#B9ECFD;" parent="1" vertex="1">
          <mxGeometry x="1750" y="2910" width="50" height="40" as="geometry" />
        </mxCell>
        <mxCell id="8pBwBUJksHQwdAiR65Fr-109" value="校验结果写入&lt;br&gt;rd_data&lt;br&gt;(batch#0)" style="rounded=1;whiteSpace=wrap;html=1;fontStyle=1;fontSize=8;fillColor=#c3f7c0;strokeColor=none;gradientColor=#a2e5fb;" parent="1" vertex="1">
          <mxGeometry x="1750" y="2960" width="50" height="40" as="geometry" />
        </mxCell>
        <mxCell id="8pBwBUJksHQwdAiR65Fr-110" value="校验结果写入&lt;br&gt;rd_data&lt;br&gt;(batch#1)" style="rounded=1;whiteSpace=wrap;html=1;fontStyle=1;fontSize=8;fillColor=#C3F7C0;strokeColor=none;gradientColor=#A2E5FB;" parent="1" vertex="1">
          <mxGeometry x="1810" y="2960" width="50" height="40" as="geometry" />
        </mxCell>
        <mxCell id="8pBwBUJksHQwdAiR65Fr-111" value="校验结果写入&lt;br&gt;rd_data&lt;br&gt;(batch#2)" style="rounded=1;whiteSpace=wrap;html=1;fontStyle=1;fontSize=8;fillColor=#C3F7C0;strokeColor=none;gradientColor=#A2E5FB;" parent="1" vertex="1">
          <mxGeometry x="1870" y="2960" width="50" height="40" as="geometry" />
        </mxCell>
        <mxCell id="8pBwBUJksHQwdAiR65Fr-112" value="校验结果写入&lt;br&gt;rd_data&lt;br&gt;(batch#3)" style="rounded=1;whiteSpace=wrap;html=1;fontStyle=1;fontSize=8;fillColor=#C3F7C0;strokeColor=none;gradientColor=#A2E5FB;" parent="1" vertex="1">
          <mxGeometry x="1930" y="2960" width="50" height="40" as="geometry" />
        </mxCell>
        <mxCell id="8pBwBUJksHQwdAiR65Fr-113" value="校验结果写入&lt;br&gt;rd_data&lt;br&gt;(batch#4)" style="rounded=1;whiteSpace=wrap;html=1;fontStyle=1;fontSize=8;fillColor=#C3F7C0;strokeColor=none;gradientColor=#A2E5FB;" parent="1" vertex="1">
          <mxGeometry x="1990" y="2960" width="50" height="40" as="geometry" />
        </mxCell>
        <mxCell id="8pBwBUJksHQwdAiR65Fr-114" value="校验结果写入&lt;br&gt;rd_data&lt;br&gt;(batch#5)" style="rounded=1;whiteSpace=wrap;html=1;fontStyle=1;fontSize=8;fillColor=#C3F7C0;strokeColor=none;gradientColor=#A2E5FB;" parent="1" vertex="1">
          <mxGeometry x="2050" y="2960" width="50" height="40" as="geometry" />
        </mxCell>
        <mxCell id="8pBwBUJksHQwdAiR65Fr-115" value="校验结果写入&lt;br&gt;rd_data&lt;br&gt;(batch#6)" style="rounded=1;whiteSpace=wrap;html=1;fontStyle=1;fontSize=8;fillColor=#C3F7C0;strokeColor=none;gradientColor=#A2E5FB;" parent="1" vertex="1">
          <mxGeometry x="2110" y="2960" width="50" height="40" as="geometry" />
        </mxCell>
        <mxCell id="8pBwBUJksHQwdAiR65Fr-116" value="校验结果写入&lt;br&gt;rd_data&lt;br&gt;(batch#7)" style="rounded=1;whiteSpace=wrap;html=1;fontStyle=1;fontSize=8;fillColor=#C3F7C0;strokeColor=none;gradientColor=#A2E5FB;" parent="1" vertex="1">
          <mxGeometry x="2170" y="2960" width="50" height="40" as="geometry" />
        </mxCell>
        <mxCell id="8pBwBUJksHQwdAiR65Fr-117" value="校验结果写入&lt;br&gt;rd_data&lt;br&gt;(batch#0)" style="rounded=1;whiteSpace=wrap;html=1;fontStyle=1;fontSize=8;fillColor=#C3F7C0;strokeColor=none;gradientColor=#A2E5FB;" parent="1" vertex="1">
          <mxGeometry x="2230" y="2960" width="50" height="40" as="geometry" />
        </mxCell>
        <mxCell id="8pBwBUJksHQwdAiR65Fr-118" value="校验结果写入&lt;br&gt;rd_data&lt;br&gt;(batch#1)" style="rounded=1;whiteSpace=wrap;html=1;fontStyle=1;fontSize=8;fillColor=#C3F7C0;strokeColor=none;gradientColor=#A2E5FB;" parent="1" vertex="1">
          <mxGeometry x="2291" y="2960" width="50" height="40" as="geometry" />
        </mxCell>
        <mxCell id="8pBwBUJksHQwdAiR65Fr-234" style="edgeStyle=orthogonalEdgeStyle;rounded=0;orthogonalLoop=1;jettySize=auto;html=1;exitX=1;exitY=0.5;exitDx=0;exitDy=0;entryX=0;entryY=0.5;entryDx=0;entryDy=0;endArrow=blockThin;endFill=1;fontStyle=1;strokeColor=none;" parent="1" source="8pBwBUJksHQwdAiR65Fr-119" target="8pBwBUJksHQwdAiR65Fr-120" edge="1">
          <mxGeometry relative="1" as="geometry" />
        </mxCell>
        <mxCell id="8pBwBUJksHQwdAiR65Fr-119" value="ECC存储&lt;br&gt;编码读出" style="rounded=1;whiteSpace=wrap;html=1;fontStyle=1;fontSize=8;strokeColor=none;fillColor=#BCEEBA;" parent="1" vertex="1">
          <mxGeometry x="1750" y="2810" width="50" height="40" as="geometry" />
        </mxCell>
        <mxCell id="8pBwBUJksHQwdAiR65Fr-120" value="ECC校验&lt;br&gt;编码写入" style="rounded=1;whiteSpace=wrap;html=1;fontStyle=1;fontSize=8;strokeColor=none;fillColor=#BCEEBA;" parent="1" vertex="1">
          <mxGeometry x="1810" y="2810" width="50" height="40" as="geometry" />
        </mxCell>
        <mxCell id="8pBwBUJksHQwdAiR65Fr-122" value="" style="endArrow=none;dashed=1;html=1;dashPattern=1 3;strokeWidth=2;rounded=0;fontStyle=1" parent="1" edge="1">
          <mxGeometry width="50" height="50" relative="1" as="geometry">
            <mxPoint x="1870" y="2580" as="sourcePoint" />
            <mxPoint x="2400" y="2580" as="targetPoint" />
          </mxGeometry>
        </mxCell>
        <mxCell id="8pBwBUJksHQwdAiR65Fr-123" value="" style="endArrow=none;dashed=1;html=1;dashPattern=1 3;strokeWidth=2;rounded=0;fontStyle=1" parent="1" edge="1">
          <mxGeometry width="50" height="50" relative="1" as="geometry">
            <mxPoint x="2350" y="2980" as="sourcePoint" />
            <mxPoint x="2400" y="2980" as="targetPoint" />
          </mxGeometry>
        </mxCell>
        <mxCell id="8pBwBUJksHQwdAiR65Fr-125" value="长度计数器&lt;br&gt;(1→0)" style="rounded=1;whiteSpace=wrap;html=1;fontStyle=1;fontSize=8;fillColor=#FFD257;strokeColor=none;" parent="1" vertex="1">
          <mxGeometry x="2410" y="3010" width="50" height="40" as="geometry" />
        </mxCell>
        <mxCell id="8pBwBUJksHQwdAiR65Fr-127" value="" style="endArrow=none;dashed=1;html=1;dashPattern=1 3;strokeWidth=2;rounded=0;fontStyle=1" parent="1" edge="1">
          <mxGeometry width="50" height="50" relative="1" as="geometry">
            <mxPoint x="1810" y="2680" as="sourcePoint" />
            <mxPoint x="2340" y="2680" as="targetPoint" />
          </mxGeometry>
        </mxCell>
        <mxCell id="8pBwBUJksHQwdAiR65Fr-128" value="" style="endArrow=none;dashed=1;html=1;dashPattern=1 3;strokeWidth=2;rounded=0;fontStyle=1" parent="1" edge="1">
          <mxGeometry width="50" height="50" relative="1" as="geometry">
            <mxPoint x="1870" y="2729.63" as="sourcePoint" />
            <mxPoint x="2400" y="2730" as="targetPoint" />
          </mxGeometry>
        </mxCell>
        <mxCell id="8pBwBUJksHQwdAiR65Fr-129" value="" style="endArrow=none;dashed=1;html=1;dashPattern=1 3;strokeWidth=2;rounded=0;fontStyle=1" parent="1" edge="1">
          <mxGeometry width="50" height="50" relative="1" as="geometry">
            <mxPoint x="1870" y="2779.63" as="sourcePoint" />
            <mxPoint x="2400" y="2780" as="targetPoint" />
          </mxGeometry>
        </mxCell>
        <mxCell id="8pBwBUJksHQwdAiR65Fr-130" value="" style="endArrow=none;dashed=1;html=1;dashPattern=1 3;strokeWidth=2;rounded=0;fontStyle=1" parent="1" edge="1">
          <mxGeometry width="50" height="50" relative="1" as="geometry">
            <mxPoint x="1870" y="2829.63" as="sourcePoint" />
            <mxPoint x="2240" y="2830" as="targetPoint" />
          </mxGeometry>
        </mxCell>
        <mxCell id="8pBwBUJksHQwdAiR65Fr-131" value="rd_vld&lt;br&gt;拉低" style="rounded=1;whiteSpace=wrap;html=1;fontStyle=1;fontSize=8;strokeColor=none;fillColor=#B9ECFD;" parent="1" vertex="1">
          <mxGeometry x="2710" y="2910" width="50" height="40" as="geometry" />
        </mxCell>
        <mxCell id="8pBwBUJksHQwdAiR65Fr-132" value="ECC校验&lt;br&gt;缓冲区重置" style="rounded=1;whiteSpace=wrap;html=1;fontStyle=1;fontSize=8;fillColor=#71e16b;strokeColor=none;" parent="1" vertex="1">
          <mxGeometry x="1270" y="2860" width="50" height="40" as="geometry" />
        </mxCell>
        <mxCell id="8pBwBUJksHQwdAiR65Fr-133" value="ECC校验&lt;br&gt;缓冲区重置" style="rounded=1;whiteSpace=wrap;html=1;fontStyle=1;fontSize=8;strokeColor=none;fillColor=#71E16B;" parent="1" vertex="1">
          <mxGeometry x="1750" y="2860" width="50" height="40" as="geometry" />
        </mxCell>
        <mxCell id="8pBwBUJksHQwdAiR65Fr-134" value="ECC校验&lt;br&gt;使能" style="rounded=1;whiteSpace=wrap;html=1;fontStyle=1;fontSize=8;strokeColor=none;fillColor=#71E16B;" parent="1" vertex="1">
          <mxGeometry x="2410" y="2860" width="50" height="40" as="geometry" />
        </mxCell>
        <mxCell id="8pBwBUJksHQwdAiR65Fr-137" value="rd_eop&lt;br&gt;拉高" style="rounded=1;whiteSpace=wrap;html=1;fontStyle=1;fontSize=8;fillColor=#5ED1F7;strokeColor=none;" parent="1" vertex="1">
          <mxGeometry x="2710" y="2510" width="50" height="40" as="geometry" />
        </mxCell>
        <mxCell id="8pBwBUJksHQwdAiR65Fr-138" value="rd_eop&lt;br&gt;拉低" style="rounded=1;whiteSpace=wrap;html=1;fontStyle=1;fontSize=8;fillColor=#5ED1F7;strokeColor=none;" parent="1" vertex="1">
          <mxGeometry x="2770" y="2510" width="50" height="40" as="geometry" />
        </mxCell>
        <mxCell id="8pBwBUJksHQwdAiR65Fr-140" value="读出页地址&lt;br&gt;(跳转表)" style="rounded=1;whiteSpace=wrap;html=1;fontStyle=1;fontSize=8;strokeColor=none;fillColor=#F9E6B4;" parent="1" vertex="1">
          <mxGeometry x="1630" y="2610" width="50" height="40" as="geometry" />
        </mxCell>
        <mxCell id="8pBwBUJksHQwdAiR65Fr-141" value="" style="endArrow=none;dashed=1;html=1;dashPattern=1 3;strokeWidth=2;rounded=0;fontStyle=1" parent="1" edge="1">
          <mxGeometry width="50" height="50" relative="1" as="geometry">
            <mxPoint x="1690" y="2629.7" as="sourcePoint" />
            <mxPoint x="2240" y="2630" as="targetPoint" />
          </mxGeometry>
        </mxCell>
        <mxCell id="8pBwBUJksHQwdAiR65Fr-142" value="" style="endArrow=none;dashed=1;html=1;dashPattern=1 3;strokeWidth=2;rounded=0;fontStyle=1" parent="1" edge="1">
          <mxGeometry width="50" height="50" relative="1" as="geometry">
            <mxPoint x="1810" y="2870" as="sourcePoint" />
            <mxPoint x="2400" y="2870.3" as="targetPoint" />
          </mxGeometry>
        </mxCell>
        <mxCell id="8pBwBUJksHQwdAiR65Fr-145" value="校验结果写入&lt;br&gt;rd_data&lt;br&gt;(batch#7)" style="rounded=1;whiteSpace=wrap;html=1;fontStyle=1;fontSize=8;fillColor=#C3F7C0;strokeColor=none;gradientColor=#A2E5FB;" parent="1" vertex="1">
          <mxGeometry x="2410" y="2960" width="50" height="40" as="geometry" />
        </mxCell>
        <mxCell id="8pBwBUJksHQwdAiR65Fr-146" value="尾页计数器&lt;div&gt;-1&lt;/div&gt;" style="rounded=1;whiteSpace=wrap;html=1;fontStyle=1;fontSize=8;fillColor=#ffc72e;strokeColor=none;" parent="1" vertex="1">
          <mxGeometry x="2470" y="3060" width="50" height="40" as="geometry" />
        </mxCell>
        <mxCell id="8pBwBUJksHQwdAiR65Fr-147" value="尾页计数器&lt;div&gt;(1→0)&lt;/div&gt;" style="rounded=1;whiteSpace=wrap;html=1;fontStyle=1;fontSize=8;fillColor=#FFC72E;strokeColor=none;" parent="1" vertex="1">
          <mxGeometry x="2650" y="3060" width="50" height="40" as="geometry" />
        </mxCell>
        <mxCell id="8pBwBUJksHQwdAiR65Fr-148" value="" style="endArrow=none;dashed=1;html=1;dashPattern=1 3;strokeWidth=2;rounded=0;fontStyle=1" parent="1" edge="1">
          <mxGeometry width="50" height="50" relative="1" as="geometry">
            <mxPoint x="2530" y="3079.6299999999997" as="sourcePoint" />
            <mxPoint x="2640" y="3080" as="targetPoint" />
          </mxGeometry>
        </mxCell>
        <mxCell id="8pBwBUJksHQwdAiR65Fr-149" value="校验结果写入&lt;br&gt;rd_data&lt;br&gt;(batch#0)" style="rounded=1;whiteSpace=wrap;html=1;fontStyle=1;fontSize=8;fillColor=#C3F7C0;strokeColor=none;gradientColor=#A2E5FB;" parent="1" vertex="1">
          <mxGeometry x="2470" y="2960" width="50" height="40" as="geometry" />
        </mxCell>
        <mxCell id="8pBwBUJksHQwdAiR65Fr-150" value="" style="endArrow=none;dashed=1;html=1;dashPattern=1 3;strokeWidth=2;rounded=0;fontStyle=1" parent="1" edge="1">
          <mxGeometry width="50" height="50" relative="1" as="geometry">
            <mxPoint x="2530" y="2979.6299999999997" as="sourcePoint" />
            <mxPoint x="2640" y="2980" as="targetPoint" />
          </mxGeometry>
        </mxCell>
        <mxCell id="8pBwBUJksHQwdAiR65Fr-151" value="校验结果写入&lt;br&gt;rd_data&lt;br&gt;(batch#N)" style="rounded=1;whiteSpace=wrap;html=1;fontStyle=1;fontSize=8;fillColor=#C3F7C0;strokeColor=none;gradientColor=#A2E5FB;" parent="1" vertex="1">
          <mxGeometry x="2650" y="2960" width="50" height="40" as="geometry" />
        </mxCell>
        <mxCell id="8pBwBUJksHQwdAiR65Fr-153" value="batch&lt;br&gt;计数器累加(N→N+1)" style="rounded=1;whiteSpace=wrap;html=1;fontStyle=1;fontSize=8;fillColor=#FFD257;strokeColor=none;" parent="1" vertex="1">
          <mxGeometry x="2410" y="2560" width="50" height="40" as="geometry" />
        </mxCell>
        <mxCell id="8pBwBUJksHQwdAiR65Fr-233" style="edgeStyle=orthogonalEdgeStyle;rounded=0;orthogonalLoop=1;jettySize=auto;html=1;exitX=0.5;exitY=1;exitDx=0;exitDy=0;entryX=0.5;entryY=0;entryDx=0;entryDy=0;endArrow=blockThin;endFill=1;fontStyle=1" parent="1" source="8pBwBUJksHQwdAiR65Fr-154" target="8pBwBUJksHQwdAiR65Fr-156" edge="1">
          <mxGeometry relative="1" as="geometry" />
        </mxCell>
        <mxCell id="8pBwBUJksHQwdAiR65Fr-154" value="得到数据&lt;br&gt;batch#N" style="rounded=1;whiteSpace=wrap;html=1;fontStyle=1;fontSize=8;strokeColor=none;fillColor=#F7C597;" parent="1" vertex="1">
          <mxGeometry x="2410" y="2710" width="50" height="40" as="geometry" />
        </mxCell>
        <mxCell id="8pBwBUJksHQwdAiR65Fr-156" value="写入ECC&lt;br&gt;校验缓冲区&lt;br&gt;batch#N" style="rounded=1;whiteSpace=wrap;html=1;fontStyle=1;fontSize=8;fillColor=#9FE49B;strokeColor=none;" parent="1" vertex="1">
          <mxGeometry x="2410" y="2760" width="50" height="40" as="geometry" />
        </mxCell>
        <mxCell id="8pBwBUJksHQwdAiR65Fr-157" value="ECC校验&lt;br&gt;缓冲区重置" style="rounded=1;whiteSpace=wrap;html=1;fontStyle=1;fontSize=8;strokeColor=none;fillColor=#71E16B;" parent="1" vertex="1">
          <mxGeometry x="2470" y="2860" width="50" height="40" as="geometry" />
        </mxCell>
        <mxCell id="8pBwBUJksHQwdAiR65Fr-160" value="" style="endArrow=none;dashed=1;html=1;dashPattern=1 3;strokeWidth=2;rounded=0;fontStyle=1" parent="1" edge="1">
          <mxGeometry width="50" height="50" relative="1" as="geometry">
            <mxPoint x="1930" y="3029.58" as="sourcePoint" />
            <mxPoint x="2400" y="3030" as="targetPoint" />
          </mxGeometry>
        </mxCell>
        <mxCell id="8pBwBUJksHQwdAiR65Fr-162" value="读取SRAM&lt;div&gt;batch#N&lt;/div&gt;" style="rounded=1;whiteSpace=wrap;html=1;fontStyle=1;fontSize=8;strokeColor=none;fillColor=#FDC086;" parent="1" vertex="1">
          <mxGeometry x="2350" y="2660" width="50" height="40" as="geometry" />
        </mxCell>
        <mxCell id="8pBwBUJksHQwdAiR65Fr-167" value="" style="endArrow=blockThin;html=1;rounded=0;exitX=0.5;exitY=1;exitDx=0;exitDy=0;entryX=0.5;entryY=0;entryDx=0;entryDy=0;endFill=1;fontStyle=1" parent="1" edge="1">
          <mxGeometry width="50" height="50" relative="1" as="geometry">
            <mxPoint x="1295.0000000000002" y="2600" as="sourcePoint" />
            <mxPoint x="1295.0000000000002" y="2660" as="targetPoint" />
          </mxGeometry>
        </mxCell>
        <mxCell id="8pBwBUJksHQwdAiR65Fr-168" value="" style="endArrow=blockThin;html=1;rounded=0;exitX=0.5;exitY=1;exitDx=0;exitDy=0;entryX=0.5;entryY=0;entryDx=0;entryDy=0;endFill=1;fontStyle=1" parent="1" source="8pBwBUJksHQwdAiR65Fr-53" target="8pBwBUJksHQwdAiR65Fr-59" edge="1">
          <mxGeometry width="50" height="50" relative="1" as="geometry">
            <mxPoint x="1255" y="2620" as="sourcePoint" />
            <mxPoint x="1255" y="2680" as="targetPoint" />
          </mxGeometry>
        </mxCell>
        <mxCell id="8pBwBUJksHQwdAiR65Fr-169" value="" style="endArrow=blockThin;html=1;rounded=0;exitX=0.5;exitY=1;exitDx=0;exitDy=0;entryX=0.5;entryY=0;entryDx=0;entryDy=0;endFill=1;fontStyle=1" parent="1" source="8pBwBUJksHQwdAiR65Fr-65" target="8pBwBUJksHQwdAiR65Fr-72" edge="1">
          <mxGeometry width="50" height="50" relative="1" as="geometry">
            <mxPoint x="1265" y="2630" as="sourcePoint" />
            <mxPoint x="1265" y="2690" as="targetPoint" />
          </mxGeometry>
        </mxCell>
        <mxCell id="8pBwBUJksHQwdAiR65Fr-170" value="" style="endArrow=blockThin;html=1;rounded=0;exitX=0.5;exitY=1;exitDx=0;exitDy=0;entryX=0.5;entryY=0;entryDx=0;entryDy=0;endFill=1;fontStyle=1" parent="1" source="8pBwBUJksHQwdAiR65Fr-66" target="8pBwBUJksHQwdAiR65Fr-75" edge="1">
          <mxGeometry width="50" height="50" relative="1" as="geometry">
            <mxPoint x="1275" y="2640" as="sourcePoint" />
            <mxPoint x="1275" y="2700" as="targetPoint" />
          </mxGeometry>
        </mxCell>
        <mxCell id="8pBwBUJksHQwdAiR65Fr-171" value="" style="endArrow=blockThin;html=1;rounded=0;exitX=0.5;exitY=1;exitDx=0;exitDy=0;entryX=0.5;entryY=0;entryDx=0;entryDy=0;endFill=1;fontStyle=1" parent="1" source="8pBwBUJksHQwdAiR65Fr-67" target="8pBwBUJksHQwdAiR65Fr-78" edge="1">
          <mxGeometry width="50" height="50" relative="1" as="geometry">
            <mxPoint x="1285" y="2650" as="sourcePoint" />
            <mxPoint x="1285" y="2710" as="targetPoint" />
          </mxGeometry>
        </mxCell>
        <mxCell id="8pBwBUJksHQwdAiR65Fr-172" value="" style="endArrow=blockThin;html=1;rounded=0;exitX=0.5;exitY=1;exitDx=0;exitDy=0;endFill=1;fontStyle=1" parent="1" source="8pBwBUJksHQwdAiR65Fr-68" target="8pBwBUJksHQwdAiR65Fr-81" edge="1">
          <mxGeometry width="50" height="50" relative="1" as="geometry">
            <mxPoint x="1295" y="2660" as="sourcePoint" />
            <mxPoint x="1295" y="2720" as="targetPoint" />
          </mxGeometry>
        </mxCell>
        <mxCell id="8pBwBUJksHQwdAiR65Fr-178" value="" style="endArrow=blockThin;html=1;rounded=0;exitDx=0;exitDy=0;endFill=1;fontStyle=1" parent="1" source="8pBwBUJksHQwdAiR65Fr-197" target="8pBwBUJksHQwdAiR65Fr-195" edge="1">
          <mxGeometry width="50" height="50" relative="1" as="geometry">
            <mxPoint x="1305" y="2610" as="sourcePoint" />
            <mxPoint x="1580" y="2640" as="targetPoint" />
          </mxGeometry>
        </mxCell>
        <mxCell id="8pBwBUJksHQwdAiR65Fr-195" value="" style="shape=waypoint;sketch=0;fillStyle=solid;size=6;pointerEvents=1;points=[];fillColor=none;resizable=0;rotatable=0;perimeter=centerPerimeter;snapToPoint=1;fontStyle=1" parent="1" vertex="1">
          <mxGeometry x="1585" y="2630" width="20" height="20" as="geometry" />
        </mxCell>
        <mxCell id="8pBwBUJksHQwdAiR65Fr-198" value="" style="endArrow=blockThin;html=1;rounded=0;exitDx=0;exitDy=0;endFill=1;fontStyle=1" parent="1" source="8pBwBUJksHQwdAiR65Fr-199" target="8pBwBUJksHQwdAiR65Fr-197" edge="1">
          <mxGeometry width="50" height="50" relative="1" as="geometry">
            <mxPoint x="1260" y="2640" as="sourcePoint" />
            <mxPoint x="1595" y="2640" as="targetPoint" />
          </mxGeometry>
        </mxCell>
        <mxCell id="8pBwBUJksHQwdAiR65Fr-197" value="" style="shape=waypoint;sketch=0;fillStyle=solid;size=6;pointerEvents=1;points=[];fillColor=none;resizable=0;rotatable=0;perimeter=centerPerimeter;snapToPoint=1;fontStyle=1" parent="1" vertex="1">
          <mxGeometry x="1525" y="2630" width="20" height="20" as="geometry" />
        </mxCell>
        <mxCell id="8pBwBUJksHQwdAiR65Fr-200" value="" style="endArrow=blockThin;html=1;rounded=0;exitDx=0;exitDy=0;endFill=1;fontStyle=1" parent="1" source="8pBwBUJksHQwdAiR65Fr-201" target="8pBwBUJksHQwdAiR65Fr-199" edge="1">
          <mxGeometry width="50" height="50" relative="1" as="geometry">
            <mxPoint x="1260" y="2640" as="sourcePoint" />
            <mxPoint x="1535" y="2640" as="targetPoint" />
          </mxGeometry>
        </mxCell>
        <mxCell id="8pBwBUJksHQwdAiR65Fr-199" value="" style="shape=waypoint;sketch=0;fillStyle=solid;size=6;pointerEvents=1;points=[];fillColor=none;resizable=0;rotatable=0;perimeter=centerPerimeter;snapToPoint=1;fontStyle=1" parent="1" vertex="1">
          <mxGeometry x="1465" y="2630" width="20" height="20" as="geometry" />
        </mxCell>
        <mxCell id="8pBwBUJksHQwdAiR65Fr-202" value="" style="endArrow=blockThin;html=1;rounded=0;exitDx=0;exitDy=0;endFill=1;fontStyle=1" parent="1" source="8pBwBUJksHQwdAiR65Fr-203" target="8pBwBUJksHQwdAiR65Fr-201" edge="1">
          <mxGeometry width="50" height="50" relative="1" as="geometry">
            <mxPoint x="1260" y="2640" as="sourcePoint" />
            <mxPoint x="1475" y="2640" as="targetPoint" />
          </mxGeometry>
        </mxCell>
        <mxCell id="8pBwBUJksHQwdAiR65Fr-201" value="" style="shape=waypoint;sketch=0;fillStyle=solid;size=6;pointerEvents=1;points=[];fillColor=none;resizable=0;rotatable=0;perimeter=centerPerimeter;snapToPoint=1;fontStyle=1" parent="1" vertex="1">
          <mxGeometry x="1405" y="2630" width="20" height="20" as="geometry" />
        </mxCell>
        <mxCell id="8pBwBUJksHQwdAiR65Fr-204" value="" style="endArrow=blockThin;html=1;rounded=0;exitDx=0;exitDy=0;endFill=1;fontStyle=1" parent="1" source="8pBwBUJksHQwdAiR65Fr-205" target="8pBwBUJksHQwdAiR65Fr-203" edge="1">
          <mxGeometry width="50" height="50" relative="1" as="geometry">
            <mxPoint x="1260" y="2640" as="sourcePoint" />
            <mxPoint x="1415" y="2640" as="targetPoint" />
          </mxGeometry>
        </mxCell>
        <mxCell id="8pBwBUJksHQwdAiR65Fr-203" value="" style="shape=waypoint;sketch=0;fillStyle=solid;size=6;pointerEvents=1;points=[];fillColor=none;resizable=0;rotatable=0;perimeter=centerPerimeter;snapToPoint=1;fontStyle=1" parent="1" vertex="1">
          <mxGeometry x="1345" y="2630" width="20" height="20" as="geometry" />
        </mxCell>
        <mxCell id="8pBwBUJksHQwdAiR65Fr-206" value="" style="endArrow=blockThin;html=1;rounded=0;exitX=1;exitY=0.75;exitDx=0;exitDy=0;endFill=1;fontStyle=1" parent="1" source="8pBwBUJksHQwdAiR65Fr-44" target="8pBwBUJksHQwdAiR65Fr-205" edge="1">
          <mxGeometry width="50" height="50" relative="1" as="geometry">
            <mxPoint x="1260" y="2640" as="sourcePoint" />
            <mxPoint x="1355" y="2640" as="targetPoint" />
          </mxGeometry>
        </mxCell>
        <mxCell id="8pBwBUJksHQwdAiR65Fr-205" value="" style="shape=waypoint;sketch=0;fillStyle=solid;size=6;pointerEvents=1;points=[];fillColor=none;resizable=0;rotatable=0;perimeter=centerPerimeter;snapToPoint=1;fontStyle=1" parent="1" vertex="1">
          <mxGeometry x="1285" y="2630" width="20" height="20" as="geometry" />
        </mxCell>
        <mxCell id="8pBwBUJksHQwdAiR65Fr-207" value="" style="endArrow=blockThin;html=1;rounded=0;exitX=1;exitY=0.25;exitDx=0;exitDy=0;entryX=0;entryY=0.25;entryDx=0;entryDy=0;endFill=1;fontStyle=1" parent="1" source="8pBwBUJksHQwdAiR65Fr-44" target="8pBwBUJksHQwdAiR65Fr-140" edge="1">
          <mxGeometry width="50" height="50" relative="1" as="geometry">
            <mxPoint x="1400" y="2680" as="sourcePoint" />
            <mxPoint x="1450" y="2630" as="targetPoint" />
          </mxGeometry>
        </mxCell>
        <mxCell id="8pBwBUJksHQwdAiR65Fr-208" value="" style="endArrow=blockThin;html=1;rounded=0;exitX=1;exitY=1;exitDx=0;exitDy=0;entryX=0;entryY=0;entryDx=0;entryDy=0;endFill=1;fontStyle=1" parent="1" source="8pBwBUJksHQwdAiR65Fr-43" target="8pBwBUJksHQwdAiR65Fr-50" edge="1">
          <mxGeometry width="50" height="50" relative="1" as="geometry">
            <mxPoint x="1340" y="2720" as="sourcePoint" />
            <mxPoint x="1390" y="2670" as="targetPoint" />
          </mxGeometry>
        </mxCell>
        <mxCell id="8pBwBUJksHQwdAiR65Fr-211" value="" style="endArrow=blockThin;html=1;rounded=0;exitX=1;exitY=1;exitDx=0;exitDy=0;entryX=0;entryY=0;entryDx=0;entryDy=0;endFill=1;fontStyle=1" parent="1" source="8pBwBUJksHQwdAiR65Fr-56" target="8pBwBUJksHQwdAiR65Fr-57" edge="1">
          <mxGeometry width="50" height="50" relative="1" as="geometry">
            <mxPoint x="1270" y="2710" as="sourcePoint" />
            <mxPoint x="1280" y="2720" as="targetPoint" />
          </mxGeometry>
        </mxCell>
        <mxCell id="8pBwBUJksHQwdAiR65Fr-212" value="" style="endArrow=blockThin;html=1;rounded=0;exitX=1;exitY=1;exitDx=0;exitDy=0;entryX=0;entryY=0;entryDx=0;entryDy=0;endFill=1;fontStyle=1" parent="1" source="8pBwBUJksHQwdAiR65Fr-59" target="8pBwBUJksHQwdAiR65Fr-60" edge="1">
          <mxGeometry width="50" height="50" relative="1" as="geometry">
            <mxPoint x="1280" y="2720" as="sourcePoint" />
            <mxPoint x="1290" y="2730" as="targetPoint" />
          </mxGeometry>
        </mxCell>
        <mxCell id="8pBwBUJksHQwdAiR65Fr-213" value="" style="endArrow=blockThin;html=1;rounded=0;exitX=1;exitY=1;exitDx=0;exitDy=0;entryX=0;entryY=0;entryDx=0;entryDy=0;endFill=1;fontStyle=1" parent="1" source="8pBwBUJksHQwdAiR65Fr-72" target="8pBwBUJksHQwdAiR65Fr-73" edge="1">
          <mxGeometry width="50" height="50" relative="1" as="geometry">
            <mxPoint x="1290" y="2730" as="sourcePoint" />
            <mxPoint x="1300" y="2740" as="targetPoint" />
          </mxGeometry>
        </mxCell>
        <mxCell id="8pBwBUJksHQwdAiR65Fr-214" value="" style="endArrow=blockThin;html=1;rounded=0;exitX=1;exitY=1;exitDx=0;exitDy=0;entryX=0;entryY=0;entryDx=0;entryDy=0;endFill=1;fontStyle=1" parent="1" source="8pBwBUJksHQwdAiR65Fr-75" target="8pBwBUJksHQwdAiR65Fr-76" edge="1">
          <mxGeometry width="50" height="50" relative="1" as="geometry">
            <mxPoint x="1500" y="2720" as="sourcePoint" />
            <mxPoint x="1510" y="2730" as="targetPoint" />
          </mxGeometry>
        </mxCell>
        <mxCell id="8pBwBUJksHQwdAiR65Fr-215" value="" style="endArrow=blockThin;html=1;rounded=0;exitX=1;exitY=1;exitDx=0;exitDy=0;entryX=0;entryY=0;entryDx=0;entryDy=0;endFill=1;fontStyle=1" parent="1" source="8pBwBUJksHQwdAiR65Fr-78" target="8pBwBUJksHQwdAiR65Fr-79" edge="1">
          <mxGeometry width="50" height="50" relative="1" as="geometry">
            <mxPoint x="1575" y="2730" as="sourcePoint" />
            <mxPoint x="1585" y="2740" as="targetPoint" />
          </mxGeometry>
        </mxCell>
        <mxCell id="8pBwBUJksHQwdAiR65Fr-216" value="" style="endArrow=blockThin;html=1;rounded=0;exitX=1;exitY=1;exitDx=0;exitDy=0;entryX=0;entryY=0;entryDx=0;entryDy=0;endFill=1;fontStyle=1" parent="1" source="8pBwBUJksHQwdAiR65Fr-81" target="8pBwBUJksHQwdAiR65Fr-82" edge="1">
          <mxGeometry width="50" height="50" relative="1" as="geometry">
            <mxPoint x="1650" y="2720" as="sourcePoint" />
            <mxPoint x="1660" y="2730" as="targetPoint" />
          </mxGeometry>
        </mxCell>
        <mxCell id="8pBwBUJksHQwdAiR65Fr-217" value="" style="endArrow=blockThin;html=1;rounded=0;exitX=1;exitY=1;exitDx=0;exitDy=0;entryX=0;entryY=0;entryDx=0;entryDy=0;endFill=1;fontStyle=1" parent="1" source="8pBwBUJksHQwdAiR65Fr-84" target="8pBwBUJksHQwdAiR65Fr-85" edge="1">
          <mxGeometry width="50" height="50" relative="1" as="geometry">
            <mxPoint x="1680" y="2720" as="sourcePoint" />
            <mxPoint x="1690" y="2730" as="targetPoint" />
          </mxGeometry>
        </mxCell>
        <mxCell id="8pBwBUJksHQwdAiR65Fr-219" value="" style="endArrow=blockThin;html=1;rounded=0;exitX=1;exitY=1;exitDx=0;exitDy=0;entryX=0;entryY=0;entryDx=0;entryDy=0;endFill=1;fontStyle=1" parent="1" source="8pBwBUJksHQwdAiR65Fr-87" target="8pBwBUJksHQwdAiR65Fr-88" edge="1">
          <mxGeometry width="50" height="50" relative="1" as="geometry">
            <mxPoint x="1690" y="2710" as="sourcePoint" />
            <mxPoint x="1700" y="2720" as="targetPoint" />
          </mxGeometry>
        </mxCell>
        <mxCell id="8pBwBUJksHQwdAiR65Fr-220" value="" style="endArrow=blockThin;html=1;rounded=0;exitX=1;exitY=1;exitDx=0;exitDy=0;entryX=0;entryY=0;entryDx=0;entryDy=0;endFill=1;fontStyle=1" parent="1" source="8pBwBUJksHQwdAiR65Fr-91" target="8pBwBUJksHQwdAiR65Fr-92" edge="1">
          <mxGeometry width="50" height="50" relative="1" as="geometry">
            <mxPoint x="1700" y="2720" as="sourcePoint" />
            <mxPoint x="1820" y="2700" as="targetPoint" />
          </mxGeometry>
        </mxCell>
        <mxCell id="8pBwBUJksHQwdAiR65Fr-221" value="" style="endArrow=blockThin;html=1;rounded=0;exitX=1;exitY=1;exitDx=0;exitDy=0;entryX=0;entryY=0;entryDx=0;entryDy=0;endFill=1;fontStyle=1" parent="1" source="8pBwBUJksHQwdAiR65Fr-162" target="8pBwBUJksHQwdAiR65Fr-154" edge="1">
          <mxGeometry width="50" height="50" relative="1" as="geometry">
            <mxPoint x="1710" y="2730" as="sourcePoint" />
            <mxPoint x="1720" y="2740" as="targetPoint" />
          </mxGeometry>
        </mxCell>
        <mxCell id="8pBwBUJksHQwdAiR65Fr-237" value="" style="endArrow=none;html=1;rounded=0;strokeColor=#B3B3B3;fontStyle=1" parent="1" edge="1">
          <mxGeometry width="50" height="50" relative="1" as="geometry">
            <mxPoint x="2410" y="2680" as="sourcePoint" />
            <mxPoint x="2820" y="2680" as="targetPoint" />
          </mxGeometry>
        </mxCell>
        <mxCell id="8pBwBUJksHQwdAiR65Fr-238" value="" style="endArrow=none;html=1;rounded=0;strokeColor=#B3B3B3;fontStyle=1" parent="1" edge="1">
          <mxGeometry width="50" height="50" relative="1" as="geometry">
            <mxPoint x="2250" y="2629.62" as="sourcePoint" />
            <mxPoint x="2820" y="2630" as="targetPoint" />
          </mxGeometry>
        </mxCell>
        <mxCell id="8pBwBUJksHQwdAiR65Fr-239" value="" style="endArrow=none;html=1;rounded=0;strokeColor=#B3B3B3;fontStyle=1" parent="1" edge="1">
          <mxGeometry width="50" height="50" relative="1" as="geometry">
            <mxPoint x="2470" y="2579.62" as="sourcePoint" />
            <mxPoint x="2820" y="2580" as="targetPoint" />
          </mxGeometry>
        </mxCell>
        <mxCell id="8pBwBUJksHQwdAiR65Fr-240" value="" style="endArrow=none;html=1;rounded=0;strokeColor=#B3B3B3;fontStyle=1" parent="1" edge="1">
          <mxGeometry width="50" height="50" relative="1" as="geometry">
            <mxPoint x="2470" y="2730" as="sourcePoint" />
            <mxPoint x="2820" y="2730.38" as="targetPoint" />
          </mxGeometry>
        </mxCell>
        <mxCell id="8pBwBUJksHQwdAiR65Fr-241" value="" style="endArrow=none;html=1;rounded=0;strokeColor=#B3B3B3;fontStyle=1" parent="1" edge="1">
          <mxGeometry width="50" height="50" relative="1" as="geometry">
            <mxPoint x="2470" y="2779.5499999999997" as="sourcePoint" />
            <mxPoint x="2820" y="2779.93" as="targetPoint" />
          </mxGeometry>
        </mxCell>
        <mxCell id="8pBwBUJksHQwdAiR65Fr-242" value="" style="endArrow=none;html=1;rounded=0;strokeColor=#B3B3B3;fontStyle=1" parent="1" edge="1">
          <mxGeometry width="50" height="50" relative="1" as="geometry">
            <mxPoint x="2250" y="2829.5499999999997" as="sourcePoint" />
            <mxPoint x="2820" y="2830" as="targetPoint" />
          </mxGeometry>
        </mxCell>
        <mxCell id="8pBwBUJksHQwdAiR65Fr-243" value="" style="endArrow=none;html=1;rounded=0;strokeColor=#B3B3B3;fontStyle=1" parent="1" edge="1">
          <mxGeometry width="50" height="50" relative="1" as="geometry">
            <mxPoint x="2530" y="2879.5499999999997" as="sourcePoint" />
            <mxPoint x="2820" y="2880" as="targetPoint" />
          </mxGeometry>
        </mxCell>
        <mxCell id="8pBwBUJksHQwdAiR65Fr-244" value="" style="endArrow=none;html=1;rounded=0;strokeColor=#B3B3B3;fontStyle=1" parent="1" edge="1">
          <mxGeometry width="50" height="50" relative="1" as="geometry">
            <mxPoint x="2770" y="2929.5499999999997" as="sourcePoint" />
            <mxPoint x="2820" y="2930" as="targetPoint" />
          </mxGeometry>
        </mxCell>
        <mxCell id="8pBwBUJksHQwdAiR65Fr-245" value="" style="endArrow=none;html=1;rounded=0;strokeColor=#B3B3B3;fontStyle=1" parent="1" edge="1">
          <mxGeometry width="50" height="50" relative="1" as="geometry">
            <mxPoint x="2710" y="2979.5499999999997" as="sourcePoint" />
            <mxPoint x="2820" y="2980" as="targetPoint" />
          </mxGeometry>
        </mxCell>
        <mxCell id="8pBwBUJksHQwdAiR65Fr-246" value="" style="endArrow=none;html=1;rounded=0;strokeColor=#B3B3B3;fontStyle=1" parent="1" edge="1">
          <mxGeometry width="50" height="50" relative="1" as="geometry">
            <mxPoint x="2710" y="3079.5499999999997" as="sourcePoint" />
            <mxPoint x="2820" y="3080" as="targetPoint" />
          </mxGeometry>
        </mxCell>
        <mxCell id="8pBwBUJksHQwdAiR65Fr-247" value="" style="endArrow=none;html=1;rounded=0;strokeColor=#B3B3B3;fontStyle=1" parent="1" edge="1">
          <mxGeometry width="50" height="50" relative="1" as="geometry">
            <mxPoint x="2470" y="3029.5499999999997" as="sourcePoint" />
            <mxPoint x="2820" y="3030" as="targetPoint" />
          </mxGeometry>
        </mxCell>
        <mxCell id="TSAiNINq-ciz6s8yGFa5-126" value="" style="endArrow=blockThin;html=1;rounded=0;endFill=1;fontStyle=1" parent="1" edge="1">
          <mxGeometry width="50" height="50" relative="1" as="geometry">
            <mxPoint x="1149.94" y="2400" as="sourcePoint" />
            <mxPoint x="2842.3529411764707" y="2402" as="targetPoint" />
          </mxGeometry>
        </mxCell>
        <mxCell id="TSAiNINq-ciz6s8yGFa5-127" value="&lt;font style=&quot;font-size: 11px;&quot; face=&quot;Verdana&quot;&gt;时间&lt;/font&gt;" style="edgeLabel;html=1;align=center;verticalAlign=middle;resizable=0;points=[];fontStyle=1;fontSize=11;" parent="TSAiNINq-ciz6s8yGFa5-126" vertex="1" connectable="0">
          <mxGeometry x="-0.0018" y="4" relative="1" as="geometry">
            <mxPoint y="3" as="offset" />
          </mxGeometry>
        </mxCell>
        <mxCell id="TSAiNINq-ciz6s8yGFa5-128" value="ready&lt;br&gt;拉高" style="rounded=1;whiteSpace=wrap;html=1;shadow=0;labelBackgroundColor=none;strokeWidth=1;fontFamily=Verdana;fontSize=8;align=center;fontStyle=1;fillColor=#97E3FC;strokeColor=none;" parent="1" vertex="1">
          <mxGeometry x="1149.94" y="2460" width="50" height="40" as="geometry" />
        </mxCell>
      </root>
    </mxGraphModel>
  </diagram>
</mxfile>
